<svg width="24" height="24" viewBox="0 0 24 24" fill="none" xmlns="http://www.w3.org/2000/svg">
<path d="M9.65689 16.4803L6.64394 20.6984C5.78336 21.9032 4.0469 22.0469 2.99995 21C1.95301 19.9531 2.09672 18.2166 3.30154 17.356L7.51966 14.3431C7.77108 14.1635 7.80107 13.8011 7.5826 13.5826L5.41417 11.4142C4.63312 10.6332 4.63312 9.36683 5.41417 8.58579L6.99995 7L17 17L15.4142 18.5858C14.6331 19.3668 13.3668 19.3668 12.5857 18.5858L10.4173 16.4174C10.1988 16.1989 9.83648 16.2289 9.65689 16.4803Z" fill="#12131A"/>
<path opacity="0.25" d="M17 16.9999L7 6.99994L11.0858 2.91416C11.8668 2.13311 13.1332 2.13311 13.9142 2.91415L21.0858 10.0857C21.8668 10.8668 21.8668 12.1331 21.0858 12.9142L17 16.9999Z" fill="#12131A"/>
</svg>
