<svg width="24" height="24" viewBox="0 0 24 24" fill="none" xmlns="http://www.w3.org/2000/svg">
<path opacity="0.25" fill-rule="evenodd" clip-rule="evenodd" d="M16 4C16 3.44772 16.4477 3 17 3H18C19.6569 3 21 4.34315 21 6V8.20991C21 9.73856 19.8506 11.0228 18.3313 11.1916L12.8896 11.7962C12.3831 11.8525 12 12.2805 12 12.7901V15C12 15.5523 11.5523 16 11 16C10.4477 16 10 15.5523 10 15V12.7901C10 11.2614 11.1494 9.97725 12.6687 9.80843L18.1104 9.2038C18.6169 9.14753 19 8.71946 19 8.20991V6C19 5.44772 18.5523 5 18 5H17C16.4477 5 16 4.55228 16 4Z" fill="#12131A"/>
<path d="M9 16C9 14.8954 9.89543 14 11 14C12.1046 14 13 14.8954 13 16V21C13 22.1046 12.1046 23 11 23C9.89543 23 9 22.1046 9 21V16Z" fill="#12131A"/>
<path d="M3 3C3 1.89543 3.89543 1 5 1H17C18.1046 1 19 1.89543 19 3V5C19 6.10457 18.1046 7 17 7H5C3.89543 7 3 6.10457 3 5V3Z" fill="#12131A"/>
</svg>
