<svg width="24" height="24" viewBox="0 0 24 24" fill="none" xmlns="http://www.w3.org/2000/svg">
<g opacity="0.25">
<path d="M14.5858 3.4144C15.3668 2.63335 16.6332 2.63335 17.4142 3.4144L20.0858 6.08597C20.8668 6.86702 20.8668 8.13335 20.0858 8.9144L10 19.0002V8.00019L14.5858 3.4144Z" fill="#12131A"/>
<path d="M12.2072 22C11.7617 22 11.5386 21.4614 11.8536 21.1464L18.8536 14.1464C18.9474 14.0527 19.0746 14 19.2072 14H20C21.1045 14 22 14.8954 22 16V20C22 21.1046 21.1045 22 20 22H12.2072Z" fill="#12131A"/>
</g>
<path fill-rule="evenodd" clip-rule="evenodd" d="M4 2C2.89543 2 2 2.89543 2 4V20C2 21.1046 2.89543 22 4 22H8C9.10457 22 10 21.1046 10 20V4C10 2.89543 9.10457 2 8 2H4ZM6 19C6.55228 19 7 18.5523 7 18C7 17.4477 6.55228 17 6 17C5.44772 17 5 17.4477 5 18C5 18.5523 5.44772 19 6 19Z" fill="#12131A"/>
</svg>
