<svg width="24" height="24" viewBox="0 0 24 24" fill="none" xmlns="http://www.w3.org/2000/svg">
<path d="M14.0858 21.0858L13 20L20 13L21.0858 14.0858C21.8668 14.8668 21.8668 16.1332 21.0858 16.9142L16.9142 21.0858C16.1332 21.8668 14.8668 21.8668 14.0858 21.0858Z" fill="#12131A"/>
<path opacity="0.25" d="M3.53051 12.7138L2.37708 4.63982C2.18852 3.31989 3.31989 2.18852 4.63982 2.37708L12.7138 3.53051C14.7585 3.82261 16.5093 5.1459 17.3481 7.03337L20 13L13 20L7.03337 17.3481C5.1459 16.5093 3.82261 14.7585 3.53051 12.7138Z" fill="#12131A"/>
<path d="M9.06775 10.4819L2.42395 3.83811C2.60811 3.15188 3.15189 2.60805 3.83809 2.42383L10.482 9.06773C10.6472 9.02355 10.8209 9 11 9C12.1046 9 13 9.89543 13 11C13 12.1046 12.1046 13 11 13C9.89543 13 9 12.1046 9 11C9 10.8208 9.02356 10.6472 9.06775 10.4819Z" fill="#12131A"/>
</svg>
