<svg width="24" height="24" viewBox="0 0 24 24" fill="none" xmlns="http://www.w3.org/2000/svg">
<path opacity="0.25" d="M14 5V21H10V5H14Z" fill="#12131A"/>
<path d="M5 1C3.89543 1 3 1.89543 3 3V7C3 7.55228 3.44772 8 4 8C4.55228 8 5 7.55228 5 7V5H19V7C19 7.55228 19.4477 8 20 8C20.5523 8 21 7.55228 21 7V3C21 1.89543 20.1046 1 19 1H5Z" fill="#12131A"/>
<path d="M8 21C7.44772 21 7 21.4477 7 22C7 22.5523 7.44772 23 8 23H16C16.5523 23 17 22.5523 17 22C17 21.4477 16.5523 21 16 21H8Z" fill="#12131A"/>
</svg>
