<svg width="24" height="24" viewBox="0 0 24 24" fill="none" xmlns="http://www.w3.org/2000/svg">
<path opacity="0.25" d="M18.8472 5H5.15291L2.81958 19H21.1805L18.8472 5Z" fill="#12131A"/>
<path d="M19 7C20.1046 7 21 6.10457 21 5C21 3.89543 20.1046 3 19 3C17.8954 3 17 3.89543 17 5C17 6.10457 17.8954 7 19 7Z" fill="#12131A"/>
<path d="M21 21C22.1046 21 23 20.1046 23 19C23 17.8954 22.1046 17 21 17C19.8954 17 19 17.8954 19 19C19 20.1046 19.8954 21 21 21Z" fill="#12131A"/>
<path d="M5 19C5 20.1046 4.10457 21 3 21C1.89543 21 1 20.1046 1 19C1 17.8954 1.89543 17 3 17C4.10457 17 5 17.8954 5 19Z" fill="#12131A"/>
<path d="M5 7C6.10457 7 7 6.10457 7 5C7 3.89543 6.10457 3 5 3C3.89543 3 3 3.89543 3 5C3 6.10457 3.89543 7 5 7Z" fill="#12131A"/>
</svg>
