<svg width="24" height="24" viewBox="0 0 24 24" fill="none" xmlns="http://www.w3.org/2000/svg">
<path opacity="0.25" d="M11 2.17421C11 0.465509 13.0043 -0.456313 14.3016 0.6557L19.6508 5.24074C19.8725 5.43072 20 5.70807 20 5.99999C20 6.29192 19.8725 6.56927 19.6508 6.75925L13.5366 12L18.765 16.4815C19.6962 17.2797 19.6962 18.7203 18.765 19.5185L14.3016 23.3443C13.0043 24.4563 11 23.5345 11 21.8258V14.1742L5.65081 18.7592C5.23148 19.1187 4.60018 19.0701 4.24076 18.6508C3.88134 18.2315 3.9299 17.6002 4.34923 17.2407L10.4634 12L4.34923 6.75925C3.9299 6.39983 3.88134 5.76853 4.24076 5.3492C4.60018 4.92988 5.23148 4.88131 5.65081 5.24074L11 9.82577V2.17421Z" fill="#12131A"/>
<path fill-rule="evenodd" clip-rule="evenodd" d="M11 2.17421C11 0.465507 13.0043 -0.456312 14.3016 0.6557L19.6508 5.24074C19.8725 5.43072 20 5.70807 20 5.99999C20 6.29192 19.8725 6.56927 19.6508 6.75925L5.65081 18.7592C5.23148 19.1187 4.60018 19.0701 4.24076 18.6508C3.88134 18.2315 3.9299 17.6002 4.34923 17.2407L11 11.5401V2.17421ZM13 9.82577L17.4634 5.99999L13 2.17421V9.82577Z" fill="#12131A"/>
</svg>
