<svg width="24" height="24" viewBox="0 0 24 24" fill="none" xmlns="http://www.w3.org/2000/svg">
<path d="M22 17H18V20C18 21.1046 18.8954 22 20 22C21.1046 22 22 21.1046 22 20V17Z" fill="#12131A"/>
<path opacity="0.25" fill-rule="evenodd" clip-rule="evenodd" d="M17.5 3C19.9853 3 22 5.01472 22 7.5V10V12V17H18V12H17.5C15.0147 12 13 9.98528 13 7.5C13 5.01472 15.0147 3 17.5 3Z" fill="#12131A"/>
<path d="M2 17H6V20C6 21.1046 5.10457 22 4 22C2.89543 22 2 21.1046 2 20V17Z" fill="#12131A"/>
<path opacity="0.25" fill-rule="evenodd" clip-rule="evenodd" d="M6.5 3C4.01472 3 2 5.01472 2 7.5V10V12V17H6V12H6.5C8.98528 12 11 9.98528 11 7.5C11 5.01472 8.98528 3 6.5 3Z" fill="#12131A"/>
</svg>
