<svg width="24" height="24" viewBox="0 0 24 24" fill="none" xmlns="http://www.w3.org/2000/svg">
<path opacity="0.25" fill-rule="evenodd" clip-rule="evenodd" d="M20 18.5C20 17.6716 19.3284 17 18.5 17L7.5 17C4.46243 17 2 14.5376 2 11.5C2 8.46243 4.46243 6 7.5 6L9 6L9 8L7.5 8C5.567 8 4 9.567 4 11.5C4 13.433 5.567 15 7.5 15L18.5 15C20.433 15 22 16.567 22 18.5C22 20.433 20.433 22 18.5 22L3 22C2.44772 22 2 21.5523 2 21C2 20.4477 2.44772 20 3 20L18.5 20C19.3284 20 20 19.3284 20 18.5Z" fill="#12131A"/>
<path d="M9 6C9 3.79086 10.7909 2 13 2H18C18.5523 2 19 2.44772 19 3V11C19 11.5523 18.5523 12 18 12H13C10.7909 12 9 10.2091 9 8V6Z" fill="#12131A"/>
<path d="M21 4H19V6H21C21.5523 6 22 5.55228 22 5C22 4.44772 21.5523 4 21 4Z" fill="#12131A"/>
<path d="M21 8H19V10H21C21.5523 10 22 9.55228 22 9C22 8.44772 21.5523 8 21 8Z" fill="#12131A"/>
</svg>
