<svg width="24" height="24" viewBox="0 0 24 24" fill="none" xmlns="http://www.w3.org/2000/svg">
<path opacity="0.25" fill-rule="evenodd" clip-rule="evenodd" d="M3.24271 19.2426L4.75744 20.7573C7.10058 23.1005 10.8996 23.1005 13.2427 20.7573L19.293 14.7071C19.6835 14.3166 19.6835 13.6834 19.293 13.2929L10.7072 4.70708C10.3167 4.31655 9.68349 4.31655 9.29297 4.70708L3.24271 10.7573C0.899563 13.1005 0.899568 16.8995 3.24271 19.2426Z" fill="#12131A"/>
<path d="M11.5 5.49997L18.5 12.5L21.5858 9.41416C22.3669 8.63311 22.3669 7.36678 21.5858 6.58573L17.4142 2.41415C16.6332 1.63311 15.3669 1.63311 14.5858 2.41416L11.5 5.49997Z" fill="#12131A"/>
<path d="M9 16C9 16.5523 8.55228 17 8 17C7.44772 17 7 16.5523 7 16C7 15.4477 7.44772 15 8 15C8.55228 15 9 15.4477 9 16Z" fill="#12131A"/>
</svg>
