<svg width="24" height="24" viewBox="0 0 24 24" fill="none" xmlns="http://www.w3.org/2000/svg">
<path opacity="0.25" d="M16 3C16 2.44771 16.4477 2 17 2C17.5523 2 18 2.44772 18 3V11H19C20.6569 11 22 12.3431 22 14V18C22 19.6569 20.6569 21 19 21C19 21.5523 18.5523 22 18 22C17.4477 22 17 21.5523 17 21H7C7 21.5523 6.55228 22 6 22C5.44772 22 5 21.5523 5 21C3.34315 21 2 19.6569 2 18V14C2 12.3431 3.34315 11 5 11H6V7C6 6.44772 6.44772 6 7 6C7.55228 6 8 6.44772 8 7V11H16V3Z" fill="#12131A"/>
<path d="M7 15C6.44772 15 6 15.4477 6 16C6 16.5523 6.44772 17 7 17C7.55228 17 8 16.5523 8 16C8 15.4477 7.55228 15 7 15Z" fill="#12131A"/>
<path d="M11 15C10.4477 15 10 15.4477 10 16C10 16.5523 10.4477 17 11 17H17C17.5523 17 18 16.5523 18 16C18 15.4477 17.5523 15 17 15H11Z" fill="#12131A"/>
</svg>
