<svg width="24" height="24" viewBox="0 0 24 24" fill="none" xmlns="http://www.w3.org/2000/svg">
<path opacity="0.25" d="M2 11C2 9.89543 2.89543 9 4 9H20C21.1046 9 22 9.89543 22 11V17C22 18.1046 21.1046 19 20 19H4C2.89543 19 2 18.1046 2 17V11Z" fill="#12131A"/>
<path d="M7 16C7 15.4477 7.44772 15 8 15H16C16.5523 15 17 15.4477 17 16V20C17 21.1046 16.1046 22 15 22H9C7.89543 22 7 21.1046 7 20V16Z" fill="#12131A"/>
<path d="M7 4C7 2.89543 7.89543 2 9 2H15C16.1046 2 17 2.89543 17 4V9H7V4Z" fill="#12131A"/>
</svg>
