<svg width="24" height="24" viewBox="0 0 24 24" fill="none" xmlns="http://www.w3.org/2000/svg">
<circle cx="12" cy="20" r="2" fill="#12131A"/>
<g opacity="0.25">
<path d="M1.19138 7.84032C0.866507 7.3937 0.965208 6.76827 1.41184 6.4434C2.55648 5.61079 3.79802 4.91416 5.11177 4.36999C7.29563 3.4654 9.63628 2.99982 12.0001 2.99982C14.3639 2.99982 16.7045 3.4654 18.8884 4.36999C20.2021 4.91416 21.4437 5.61079 22.5883 6.4434C23.0349 6.76827 23.1336 7.3937 22.8088 7.84032C22.4839 8.28695 21.8585 8.38565 21.4118 8.06078C20.3944 7.32068 19.2908 6.70145 18.123 6.21775C16.1818 5.41367 14.1012 4.99982 12.0001 4.99982C9.89892 4.99982 7.81835 5.41367 5.87714 6.21775C4.70936 6.70145 3.60577 7.32068 2.58831 8.06078C2.14168 8.38565 1.51625 8.28695 1.19138 7.84032Z" fill="#12131A"/>
<path d="M7.02518 8.98957C8.60242 8.33626 10.2929 8 12.0001 8C13.7073 8 15.3977 8.33632 16.975 8.98963C17.8994 9.37256 18.7744 9.86003 19.5834 10.441C20.032 10.7632 20.1345 11.388 19.8123 11.8366C19.4901 12.2852 18.8653 12.3877 18.4167 12.0655C17.7322 11.5739 16.9918 11.1614 16.2096 10.8374C14.875 10.2846 13.4446 10.0001 12.0001 10.0001C10.5555 10.0001 9.12513 10.2845 7.79055 10.8373C7.00829 11.1613 6.26793 11.5738 5.58341 12.0654C5.13482 12.3876 4.51001 12.2851 4.18784 11.8365C3.86568 11.3879 3.96816 10.7631 4.41674 10.441C5.22572 9.85997 6.10069 9.3725 7.02518 8.98957Z" fill="#12131A"/>
<path d="M7.05139 14.7143C6.61745 15.0559 6.54261 15.6847 6.88424 16.1186C7.22586 16.5525 7.85459 16.6274 8.28854 16.2858C8.71927 15.9467 9.19534 15.6675 9.70387 15.4568C10.4318 15.1553 11.212 15.0001 12 15.0001C12.7879 15.0001 13.5681 15.1553 14.2961 15.4568C14.8046 15.6675 15.2807 15.9467 15.7114 16.2858C16.1454 16.6274 16.7741 16.5525 17.1157 16.1186C17.4573 15.6847 17.3825 15.0559 16.9486 14.7143C16.3742 14.2622 15.7395 13.8899 15.0614 13.6091C14.0908 13.207 13.0505 13.0001 12 13.0001C10.9494 13.0001 9.90911 13.207 8.93851 13.6091C8.26046 13.8899 7.6257 14.2622 7.05139 14.7143Z" fill="#12131A"/>
</g>
</svg>
