<svg width="24" height="24" viewBox="0 0 24 24" fill="none" xmlns="http://www.w3.org/2000/svg">
<g opacity="0.25">
<path d="M4 2C2.89543 2 2 2.89543 2 4V20C2 21.1046 2.89543 22 4 22H8C9.10457 22 10 21.1046 10 20V4C10 2.89543 9.10457 2 8 2H4Z" fill="#12131A"/>
<path d="M16 2C14.8954 2 14 2.89543 14 4V20C14 21.1046 14.8954 22 16 22H20C21.1046 22 22 21.1046 22 20V4C22 2.89543 21.1046 2 20 2H16Z" fill="#12131A"/>
</g>
<path d="M6 7C5.44772 7 5 7.44772 5 8V16C5 16.5523 5.44772 17 6 17C6.55228 17 7 16.5523 7 16V8C7 7.44772 6.55228 7 6 7Z" fill="#12131A"/>
<path d="M18 7C17.4477 7 17 7.44772 17 8V16C17 16.5523 17.4477 17 18 17C18.5523 17 19 16.5523 19 16V8C19 7.44772 18.5523 7 18 7Z" fill="#12131A"/>
</svg>
