<svg width="24" height="24" viewBox="0 0 24 24" fill="none" xmlns="http://www.w3.org/2000/svg">
<path opacity="0.25" fill-rule="evenodd" clip-rule="evenodd" d="M2 20C2 21.1046 2.89543 22 4 22H20C21.1046 22 22 21.1046 22 20V4C22 2.89543 21.1046 2 20 2H4C2.89543 2 2 2.89543 2 4V20Z" fill="#12131A"/>
<path fill-rule="evenodd" clip-rule="evenodd" d="M11.2929 17.7071C11.6834 18.0976 12.3166 18.0976 12.7071 17.7071L14.7071 15.7071C15.0976 15.3166 15.0976 14.6834 14.7071 14.2929C14.3166 13.9024 13.6834 13.9024 13.2929 14.2929L13 14.5858V9.41421L13.2929 9.70711C13.6834 10.0976 14.3166 10.0976 14.7071 9.70711C15.0976 9.31658 15.0976 8.68342 14.7071 8.29289L12.7071 6.29289C12.3166 5.90237 11.6834 5.90237 11.2929 6.29289L9.29289 8.29289C8.90237 8.68342 8.90237 9.31658 9.29289 9.70711C9.68342 10.0976 10.3166 10.0976 10.7071 9.70711L11 9.41421V14.5858L10.7071 14.2929C10.3166 13.9024 9.68342 13.9024 9.29289 14.2929C8.90237 14.6834 8.90237 15.3166 9.29289 15.7071L11.2929 17.7071Z" fill="#12131A"/>
</svg>
