<svg width="24" height="24" viewBox="0 0 24 24" fill="none" xmlns="http://www.w3.org/2000/svg">
<path opacity="0.25" fill-rule="evenodd" clip-rule="evenodd" d="M4 2C2.89543 2 2 2.89543 2 4V20C2 21.1046 2.89543 22 4 22H20C21.1046 22 22 21.1046 22 20V4C22 2.89543 21.1046 2 20 2H4Z" fill="#12131A"/>
<path fill-rule="evenodd" clip-rule="evenodd" d="M6.29289 11.2929C5.90237 11.6834 5.90237 12.3166 6.29289 12.7071L8.29289 14.7071C8.68342 15.0976 9.31658 15.0976 9.70711 14.7071C10.0976 14.3166 10.0976 13.6834 9.70711 13.2929L9.41421 13H14.5858L14.2929 13.2929C13.9024 13.6834 13.9024 14.3166 14.2929 14.7071C14.6834 15.0976 15.3166 15.0976 15.7071 14.7071L17.7071 12.7071C18.0976 12.3166 18.0976 11.6834 17.7071 11.2929L15.7071 9.29289C15.3166 8.90237 14.6834 8.90237 14.2929 9.29289C13.9024 9.68342 13.9024 10.3166 14.2929 10.7071L14.5858 11H9.41421L9.70711 10.7071C10.0976 10.3166 10.0976 9.68342 9.70711 9.29289C9.31658 8.90237 8.68342 8.90237 8.29289 9.29289L6.29289 11.2929Z" fill="#12131A"/>
</svg>
