<svg width="24" height="24" viewBox="0 0 24 24" fill="none" xmlns="http://www.w3.org/2000/svg">
<path opacity="0.25" fill-rule="evenodd" clip-rule="evenodd" d="M1 5C1 3.89543 1.89543 3 3 3H21C22.1046 3 23 3.89543 23 5V19C23 20.1046 22.1046 21 21 21H3C1.89543 21 1 20.1046 1 19V5Z" fill="#12131A"/>
<path fill-rule="evenodd" clip-rule="evenodd" d="M4 17C4 16.4477 4.44772 16 5 16H12C12.5523 16 13 16.4477 13 17C13 17.5523 12.5523 18 12 18H5C4.44772 18 4 17.5523 4 17ZM12 12C11.4477 12 11 12.4477 11 13C11 13.5523 11.4477 14 12 14H19C19.5523 14 20 13.5523 20 13C20 12.4477 19.5523 12 19 12H12ZM15 17C15 16.4477 15.4477 16 16 16H19C19.5523 16 20 16.4477 20 17C20 17.5523 19.5523 18 19 18H16C15.4477 18 15 17.5523 15 17ZM5 12C4.44772 12 4 12.4477 4 13C4 13.5523 4.44772 14 5 14H8C8.55228 14 9 13.5523 9 13C9 12.4477 8.55228 12 8 12H5Z" fill="#12131A"/>
</svg>
