<svg width="24" height="24" viewBox="0 0 24 24" fill="none" xmlns="http://www.w3.org/2000/svg">
<path fill-rule="evenodd" clip-rule="evenodd" d="M16 12C16 11.4477 16.4477 11 17 11H23C23.5523 11 24 11.4477 24 12C24 12.5523 23.5523 13 23 13H17C16.4477 13 16 12.5523 16 12Z" fill="#12131A"/>
<path opacity="0.25" d="M5 9.00005L9.63212 4.65744C10.9094 3.45994 13 4.36563 13 6.11651V17.8836C13 19.6345 10.9095 20.5402 9.63212 19.3427L5 15H2C0.89543 15 0 14.1046 0 13V11.0001C0 9.89548 0.895431 9.00005 2 9.00005H5Z" fill="#12131A"/>
</svg>
