<svg width="24" height="24" viewBox="0 0 24 24" fill="none" xmlns="http://www.w3.org/2000/svg">
<path opacity="0.25" fill-rule="evenodd" clip-rule="evenodd" d="M12 0C14.869 0 17.3014 2.1096 17.7071 4.94975L18.3276 9.29338C18.474 10.3181 18.8258 11.2965 19.1775 12.2747C19.336 12.7155 19.4944 13.1562 19.6341 13.6012C19.8718 14.3585 20 15.1643 20 16C20 20.4183 16.4183 24 12 24C7.58172 24 4 20.4183 4 16C4 15.1643 4.12815 14.3585 4.36588 13.6012C4.50556 13.1562 4.66402 12.7155 4.82248 12.2747C5.17422 11.2965 5.52598 10.3181 5.67237 9.29338L6.29289 4.94975C6.69863 2.1096 9.13102 0 12 0Z" fill="#12131A"/>
<circle cx="12" cy="16" r="4" fill="#12131A"/>
</svg>
