<svg width="24" height="24" viewBox="0 0 24 24" fill="none" xmlns="http://www.w3.org/2000/svg">
<path opacity="0.25" d="M22 17C22 19.2091 20.2091 21 18 21H6C3.79086 21 2 19.2091 2 17V17C2 16.4477 2.44772 16 3 16H21C21.5523 16 22 16.4477 22 17V17Z" fill="#12131A"/>
<path d="M1 14.5C1 13.6716 1.67157 13 2.5 13H21.5C22.3284 13 23 13.6716 23 14.5V14.5C23 15.3284 22.3284 16 21.5 16H2.5C1.67157 16 1 15.3284 1 14.5V14.5Z" fill="#12131A"/>
<path opacity="0.25" d="M2 12C2 6.47715 6.47715 3 12 3C17.5228 3 22 6.47715 22 12C22 12.5523 21.5523 13 21 13H3C2.44772 13 2 12.5523 2 12Z" fill="#12131A"/>
<path d="M9 9C9 9.55229 8.55229 10 8 10C7.44772 10 7 9.55229 7 9C7 8.44771 7.44772 8 8 8C8.55229 8 9 8.44771 9 9Z" fill="#12131A"/>
<path d="M13 9C13 9.55229 12.5523 10 12 10C11.4477 10 11 9.55229 11 9C11 8.44771 11.4477 8 12 8C12.5523 8 13 8.44771 13 9Z" fill="#12131A"/>
<path d="M16 10C16.5523 10 17 9.55229 17 9C17 8.44771 16.5523 8 16 8C15.4477 8 15 8.44771 15 9C15 9.55229 15.4477 10 16 10Z" fill="#12131A"/>
</svg>
