<svg width="24" height="24" viewBox="0 0 24 24" fill="none" xmlns="http://www.w3.org/2000/svg">
<path opacity="0.25" d="M13.0001 6C7.23068 6 2.3859 17.0954 2.02199 21.5045C1.99928 21.7797 2.2204 22.0008 2.4956 21.9781C6.90477 21.6143 18.0001 16.7694 18.0001 11C18.0001 8 16.0001 6 13.0001 6Z" fill="#12131A"/>
<path d="M10.513 7.09878C10.3517 6.93739 10.1006 6.90449 9.91011 7.03024C9.60783 7.22981 9.3107 7.4547 9.01936 7.70163C8.80329 7.88478 8.79818 8.21234 8.99847 8.41263L10.293 9.70712C10.6835 10.0976 11.3166 10.0976 11.7072 9.70712C12.0977 9.31659 12.0977 8.68343 11.7072 8.2929L10.513 7.09878Z" fill="#12131A"/>
<path d="M4.41836 14.8325C4.26943 14.6836 4.22943 14.4571 4.32106 14.2675C4.47834 13.942 4.64244 13.6172 4.81299 13.2949C4.96809 13.0019 5.36162 12.9474 5.59607 13.1818L6.70717 14.2929C7.09769 14.6834 7.09769 15.3166 6.70717 15.7071C6.31664 16.0976 5.68348 16.0976 5.29295 15.7071L4.41836 14.8325Z" fill="#12131A"/>
<path d="M14.4634 16.0492C14.6691 16.2548 14.6568 16.5924 14.4304 16.775C14.1581 16.9945 13.8753 17.2091 13.5841 17.4183C13.3882 17.559 13.1198 17.534 12.9492 17.3634L11.293 15.7071C10.9024 15.3166 10.9024 14.6834 11.293 14.2929C11.6835 13.9024 12.3166 13.9024 12.7072 14.2929L14.4634 16.0492Z" fill="#12131A"/>
<path d="M16 2C16.5523 2 17 2.44772 17 3V5.58579L19.2929 3.29289C19.6834 2.90237 20.3166 2.90237 20.7071 3.29289C21.0976 3.68342 21.0976 4.31658 20.7071 4.70711L18.4142 7H21C21.5523 7 22 7.44772 22 8C22 8.55228 21.5523 9 21 9H16C15.7249 9 15.4758 8.88894 15.295 8.70922L15.2908 8.70498C15.196 8.6096 15.1243 8.49986 15.0759 8.38278C15.027 8.26488 15 8.13559 15 8V3C15 2.44772 15.4477 2 16 2Z" fill="#12131A"/>
</svg>
