<svg width="24" height="24" viewBox="0 0 24 24" fill="none" xmlns="http://www.w3.org/2000/svg">
<path d="M22 8C22 6.34315 20.6569 5 19 5C18.4477 5 17 5 17 5V7C17 7 18.7239 7 19 7C19.5523 7 20 7.44772 20 8V13C20 13.5523 19.5523 14 19 14C18.4477 14 17 14 17 14V16C17 16 18.7239 16 19 16C20.6569 16 22 14.6569 22 13V8Z" fill="#12131A"/>
<path opacity="0.25" d="M4 2C2.89543 2 2 2.89543 2 4V18C2 20.2091 3.79086 22 6 22H13C15.2091 22 17 20.2091 17 18V4C17 2.89543 16.1046 2 15 2C8.18872 2 7.69691 2 4 2Z" fill="#12131A"/>
<path d="M8 2H6V6C5.44772 6 5 6.44772 5 7V9C5 9.55228 5.44772 10 6 10H8C8.55228 10 9 9.55228 9 9V7C9 6.44772 8.55228 6 8 6V2Z" fill="#12131A"/>
</svg>
