<svg width="24" height="24" viewBox="0 0 24 24" fill="none" xmlns="http://www.w3.org/2000/svg">
<g clip-path="url(#clip0)">
<path opacity="0.25" fill-rule="evenodd" clip-rule="evenodd" d="M5 7L5.87551 22.133C5.94555 23.1836 6.81815 23.9999 7.87108 23.9999H16.1289C17.1818 23.9999 18.0544 23.1836 18.1244 22.133L19 7H5Z" fill="#12131A"/>
<path d="M14 15C14 16.1046 13.1046 17 12 17C10.8954 17 10 16.1046 10 15C10 13.8954 10.8954 13 12 13C13.1046 13 14 13.8954 14 15Z" fill="#12131A"/>
<path fill-rule="evenodd" clip-rule="evenodd" d="M17.2279 0.683772C17.0918 0.27543 16.7097 0 16.2792 0H7.72076C7.29033 0 6.90819 0.27543 6.77208 0.683772L6.22792 2.31623C6.09181 2.72457 5.70967 3 5.27924 3H5C4.44772 3 4 3.44772 4 4V6C4 6.55228 4.44772 7 5 7H19C19.5523 7 20 6.55228 20 6V4C20 3.44772 19.5523 3 19 3H18.7208C18.2903 3 17.9082 2.72457 17.7721 2.31623L17.2279 0.683772Z" fill="#12131A"/>
</g>
<defs>
<clipPath id="clip0">
<rect width="24" height="24" fill="white"/>
</clipPath>
</defs>
</svg>
