<svg width="24" height="24" viewBox="0 0 24 24" fill="none" xmlns="http://www.w3.org/2000/svg">
<path d="M1 20C1 19.4477 1.4757 19 2.0625 19H16.9375C17.5243 19 18 19.4477 18 20V20C18 20.5523 17.5243 21 16.9375 21H2.0625C1.4757 21 1 20.5523 1 20V20Z" fill="#12131A"/>
<path d="M17.6586 13H19C21.2091 13 23 11.2091 23 9C23 6.79086 21.2091 5 19 5H18L18 7H19C20.1046 7 21 7.89543 21 9C21 10.1046 20.1046 11 19 11H18C18 11.7013 17.8797 12.3744 17.6586 13Z" fill="#12131A"/>
<path opacity="0.25" d="M1 5C1 3.89543 1.89543 3 3 3H16C17.1046 3 18 3.89543 18 5V11C18 14.3137 15.3137 17 12 17H7C3.68629 17 1 14.3137 1 11V5Z" fill="#12131A"/>
</svg>
