<svg width="24" height="24" viewBox="0 0 24 24" fill="none" xmlns="http://www.w3.org/2000/svg">
<path opacity="0.25" fill-rule="evenodd" clip-rule="evenodd" d="M12 22C17.5228 22 22 17.5228 22 12C22 6.47715 17.5228 2 12 2C6.47715 2 2 6.47715 2 12C2 17.5228 6.47715 22 12 22ZM12 15C13.6569 15 15 13.6569 15 12C15 10.3431 13.6569 9 12 9C10.3431 9 9 10.3431 9 12C9 13.6569 10.3431 15 12 15Z" fill="#12131A"/>
<path d="M16.9487 6.31625C17.1234 5.79231 16.8402 5.22599 16.3163 5.05134C15.7923 4.8767 15.226 5.15986 15.0513 5.6838L14.5513 7.1838C14.3767 7.70774 14.6599 8.27406 15.1838 8.44871C15.7077 8.62336 16.2741 8.3402 16.4487 7.81625L16.9487 6.31625Z" fill="#12131A"/>
<path d="M7 6C7 5.44772 7.44772 5 8 5H10C10.5523 5 11 5.44772 11 6C11 6.55228 10.5523 7 10 7H8C7.44772 7 7 6.55228 7 6Z" fill="#12131A"/>
<path d="M4.10555 9.55276C4.35254 9.05878 4.95321 8.85856 5.44719 9.10555L7.44719 10.1055C7.94117 10.3525 8.14139 10.9532 7.8944 11.4472C7.64741 11.9412 7.04674 12.1414 6.55276 11.8944L4.55276 10.8944C4.05878 10.6474 3.85856 10.0467 4.10555 9.55276Z" fill="#12131A"/>
<path d="M13.7071 19.7071C14.0976 19.3166 14.0976 18.6834 13.7071 18.2929C13.3166 17.9024 12.6834 17.9024 12.2929 18.2929L11.2929 19.2929C10.9024 19.6834 10.9024 20.3166 11.2929 20.7071C11.6834 21.0976 12.3166 21.0976 12.7071 20.7071L13.7071 19.7071Z" fill="#12131A"/>
<path d="M15.2929 15.2929C15.6834 14.9024 16.3166 14.9024 16.7071 15.2929L17.7071 16.2929C18.0976 16.6834 18.0976 17.3166 17.7071 17.7071C17.3166 18.0976 16.6834 18.0976 16.2929 17.7071L15.2929 16.7071C14.9024 16.3166 14.9024 15.6834 15.2929 15.2929Z" fill="#12131A"/>
<path d="M8 16C8 15.4477 7.55228 15 7 15C6.44772 15 6 15.4477 6 16V17C6 17.5523 6.44772 18 7 18C7.55228 18 8 17.5523 8 17V16Z" fill="#12131A"/>
<path d="M17 13C17 12.4477 17.4477 12 18 12H19C19.5523 12 20 12.4477 20 13C20 13.5523 19.5523 14 19 14H18C17.4477 14 17 13.5523 17 13Z" fill="#12131A"/>
</svg>
