<svg width="24" height="24" viewBox="0 0 24 24" fill="none" xmlns="http://www.w3.org/2000/svg">
<path opacity="0.25" fill-rule="evenodd" clip-rule="evenodd" d="M17 13C17.5523 13 18 13.4477 18 14V21C18 21.5523 17.5523 22 17 22C16.4477 22 16 21.5523 16 21V14C16 13.4477 16.4477 13 17 13Z" fill="#12131A"/>
<path d="M17.1739 2C16.5256 2 16 2.52558 16 3.17391V14C16 14.6403 16.6214 15.1254 17.2425 14.9701L21.2425 13.9701C21.6877 13.8589 22 13.4589 22 13V6.82609C22 4.16071 19.8393 2 17.1739 2Z" fill="#12131A"/>
<path opacity="0.25" fill-rule="evenodd" clip-rule="evenodd" d="M7 11C7.55228 11 8 11.4477 8 12V21C8 21.5523 7.55228 22 7 22C6.44772 22 6 21.5523 6 21V12C6 11.4477 6.44772 11 7 11Z" fill="#12131A"/>
<path d="M4 3C4 2.44772 3.55228 2 3 2C2.44772 2 2 2.44772 2 3V7C2 9.76142 4.23858 12 7 12C9.76142 12 12 9.76142 12 7V3C12 2.44772 11.5523 2 11 2C10.4477 2 10 2.44772 10 3V7C10 8.30622 9.16519 9.41746 8 9.82929V3C8 2.44772 7.55228 2 7 2C6.44772 2 6 2.44772 6 3V9.82929C4.83481 9.41746 4 8.30622 4 7V3Z" fill="#12131A"/>
</svg>
