<svg width="24" height="24" viewBox="0 0 24 24" fill="none" xmlns="http://www.w3.org/2000/svg">
<path opacity="0.25" fill-rule="evenodd" clip-rule="evenodd" d="M12 12C13.313 12 14.4289 11.1565 14.8356 9.98189C15.0163 9.46 15.4477 9 16 9H19.694C20.9111 9 21.846 10.078 21.6739 11.2828L20.368 20.4243C20.1568 21.9022 18.8911 23 17.3981 23H6.60191C5.10896 23 3.84319 21.9022 3.63206 20.4243L2.32614 11.2828C2.15402 10.078 3.08894 9 4.30604 9H8C8.55228 9 8.98368 9.46 9.16437 9.98189C9.57105 11.1565 10.687 12 12 12Z" fill="#12131A"/>
<path d="M10 3C10 1.89543 10.8954 1 12 1C13.1046 1 14 1.89543 14 3V11.2361C13.4692 11.7111 12.7684 12 12 12C11.2316 12 10.5308 11.7111 10 11.2361V3Z" fill="#12131A"/>
<path d="M8 9L8 6C8 4.89543 7.10457 4 6 4C4.89543 4 4 4.89543 4 6V9.02313C4.0996 9.00791 4.20178 9 4.30604 9H8Z" fill="#12131A"/>
<path d="M20 9.02312V5C20 3.89543 19.1046 3 18 3C16.8954 3 16 3.89543 16 5V9H19.694C19.7982 9 19.9004 9.00791 20 9.02312Z" fill="#12131A"/>
</svg>
