<svg width="24" height="24" viewBox="0 0 24 24" fill="none" xmlns="http://www.w3.org/2000/svg">
<path opacity="0.25" d="M7 11H17L14.4497 22.0512C14.1865 23.1919 13.1707 24 12 24V24C10.8293 24 9.81353 23.1919 9.55028 22.0512L7 11Z" fill="#12131A"/>
<path fill-rule="evenodd" clip-rule="evenodd" d="M16.9013 4.00638C17.0104 4.54777 17.46 4.98368 17.9819 5.16437C19.1565 5.57105 20 6.68703 20 8C20 9.65685 18.6569 11 17 11H7C5.34315 11 4 9.65685 4 8C4 6.68703 4.84347 5.57105 6.01811 5.16437C6.54 4.98368 6.98957 4.54777 7.09873 4.00638C7.55953 1.72096 9.57879 0 12 0C14.4212 0 16.4405 1.72096 16.9013 4.00638Z" fill="#12131A"/>
</svg>
