<svg width="24" height="24" viewBox="0 0 24 24" fill="none" xmlns="http://www.w3.org/2000/svg">
<path d="M4 17C4 17.5523 3.55228 18 3 18C2.44772 18 2 17.5523 2 17C2 16.4477 2.44772 16 3 16C3.55228 16 4 16.4477 4 17Z" fill="#12131A"/>
<path d="M4 21C4 21.5523 3.55228 22 3 22C2.44772 22 2 21.5523 2 21C2 20.4477 2.44772 20 3 20C3.55228 20 4 20.4477 4 21Z" fill="#12131A"/>
<path d="M7 21C7.55228 21 8 20.5523 8 20C8 19.4477 7.55228 19 7 19C6.44772 19 6 19.4477 6 20C6 20.5523 6.44772 21 7 21Z" fill="#12131A"/>
<path opacity="0.25" d="M14.5857 2.41416C15.3668 1.63311 16.6331 1.63311 17.4142 2.41416L21.5857 6.58573C22.3668 7.36678 22.3668 8.63311 21.5857 9.41416L12.4142 18.5857C11.6331 19.3668 10.3668 19.3668 9.58573 18.5857L5.41415 14.4142C4.63311 13.6331 4.63311 12.3668 5.41416 11.5857L14.5857 2.41416Z" fill="#12131A"/>
<path d="M14.1464 16.1464L7.85348 9.85348C7.65822 9.65822 7.65822 9.34163 7.85348 9.14637L8.64637 8.35348C8.84163 8.15822 9.15822 8.15822 9.35348 8.35348L15.6464 14.6464C15.8416 14.8416 15.8416 15.1582 15.6464 15.3535L14.8535 16.1464C14.6582 16.3416 14.3416 16.3416 14.1464 16.1464Z" fill="#12131A"/>
</svg>
