<svg width="24" height="24" viewBox="0 0 24 24" fill="none" xmlns="http://www.w3.org/2000/svg">
<path d="M2 18C2 17.4477 2.44772 17 3 17H21C21.5523 17 22 17.4477 22 18C22 20.2091 20.2091 22 18 22H6C3.79086 22 2 20.2091 2 18Z" fill="#12131A"/>
<path opacity="0.25" fill-rule="evenodd" clip-rule="evenodd" d="M14.655 6.39803C14.8753 5.98056 15 5.50484 15 5C15 3.34315 13.6569 2 12 2C10.3431 2 9 3.34315 9 5C9 5.50484 9.1247 5.98056 9.34498 6.39803C5.67037 7.53089 3 10.9536 3 15V17H21V15C21 10.9536 18.3296 7.53089 14.655 6.39803ZM13 5C13 5.55228 12.5523 6 12 6C11.4477 6 11 5.55228 11 5C11 4.44772 11.4477 4 12 4C12.5523 4 13 4.44772 13 5Z" fill="#12131A"/>
</svg>
