<svg width="24" height="24" viewBox="0 0 24 24" fill="none" xmlns="http://www.w3.org/2000/svg">
<path opacity="0.25" d="M2 12C2 10.8954 2.89543 10 4 10H20C21.1046 10 22 10.8954 22 12V13C22 17.9706 17.9706 22 13 22H11C6.02944 22 2 17.9706 2 13V12Z" fill="#12131A"/>
<path d="M2.86578 16C2.65387 16 2.46364 15.8668 2.40099 15.6644C2.28915 15.303 2.19946 14.9319 2.13351 14.5527C2.08247 14.2592 2.31543 14 2.61332 14H21.3868C21.6847 14 21.9177 14.2592 21.8666 14.5527C21.8007 14.9319 21.711 15.303 21.5992 15.6644C21.5365 15.8668 21.3463 16 21.1344 16H2.86578Z" fill="#12131A"/>
<path d="M9 2C9.55228 2 10 2.44772 10 3C10 4.22658 9.67273 4.89061 9.39443 5.44721L9.38646 5.46314C9.1686 5.89875 9 6.23587 9 7C9 7.55228 8.55228 8 8 8C7.44772 8 7 7.55228 7 7C7 5.77342 7.32727 5.10939 7.60557 4.55279L7.61354 4.53686C7.8314 4.10125 8 3.76413 8 3C8 2.44772 8.44772 2 9 2Z" fill="#12131A"/>
<path d="M13 2C13.5523 2 14 2.44772 14 3C14 4.22658 13.6727 4.89061 13.3944 5.44721L13.3865 5.46314C13.1686 5.89875 13 6.23587 13 7C13 7.55228 12.5523 8 12 8C11.4477 8 11 7.55228 11 7C11 5.77342 11.3273 5.10939 11.6056 4.55279L11.6135 4.53686C11.8314 4.10125 12 3.76413 12 3C12 2.44772 12.4477 2 13 2Z" fill="#12131A"/>
<path d="M18 3C18 2.44772 17.5523 2 17 2C16.4477 2 16 2.44772 16 3C16 3.76413 15.8314 4.10125 15.6135 4.53686L15.6056 4.55279C15.3273 5.10939 15 5.77342 15 7C15 7.55228 15.4477 8 16 8C16.5523 8 17 7.55228 17 7C17 6.23587 17.1686 5.89875 17.3865 5.46314L17.3944 5.44721C17.6727 4.89061 18 4.22658 18 3Z" fill="#12131A"/>
</svg>
