<svg width="24" height="24" viewBox="0 0 24 24" fill="none" xmlns="http://www.w3.org/2000/svg">
<path opacity="0.25" d="M11.0011 15.9524C11.0004 15.9682 11 15.984 11 15.9999V21.9999H9C8.44771 21.9999 8 22.4477 8 22.9999C8 23.5522 8.44771 23.9999 9 23.9999H15C15.5523 23.9999 16 23.5522 16 22.9999C16 22.4477 15.5523 21.9999 15 21.9999H13V15.9999C13 15.984 12.9996 15.9682 12.9989 15.9524C12.6827 15.9838 12.35 15.9999 12.0001 15.9999C11.6501 15.9999 11.3174 15.9838 11.0011 15.9524Z" fill="#12131A"/>
<path d="M6.58884 1.30718C6.83041 0.510134 7.57261 0 8.40546 0H15.5947C16.4275 0 17.1697 0.510135 17.4113 1.30718C18.5688 5.12651 21.068 16 12.0001 16C2.9321 16 5.4313 5.12651 6.58884 1.30718Z" fill="#12131A"/>
</svg>
