<svg width="24" height="24" viewBox="0 0 24 24" fill="none" xmlns="http://www.w3.org/2000/svg">
<path opacity="0.25" d="M8 3C9.53671 3 10.9385 3.57771 12 4.52779C13.0615 3.57771 14.4633 3 16 3C19.3137 3 22 5.68645 22 9.00016C22 15.6815 15.0249 19.5727 12.7255 20.674C12.2623 20.8958 11.7377 20.8958 11.2745 20.674C8.97508 19.5727 2 15.6814 2 9C2 5.68629 4.68629 3 8 3Z" fill="#12131A"/>
<path fill-rule="evenodd" clip-rule="evenodd" d="M7.97225 7.00039C8.34091 6.99015 8.68527 7.18366 8.86824 7.50386L11.9923 12.9709C12.0623 13.0935 12.2339 13.1069 12.3221 12.9966L15.2191 9.37531C15.3968 9.15319 15.6607 9.01726 15.9447 9.00153C16.2287 8.9858 16.506 9.09176 16.7071 9.29289L18.2678 10.8536C18.3615 10.9473 18.4887 11 18.6213 11H22C22.5523 11 23 11.4477 23 12C23 12.5523 22.5523 13 22 13H18C17.7348 13 17.4804 12.8946 17.2929 12.7071L16.2409 11.6551C16.1566 11.5709 16.0178 11.5785 15.9433 11.6716L12.7809 15.6247C12.574 15.8833 12.2525 16.0227 11.9223 15.997C11.5921 15.9712 11.2961 15.7837 11.1318 15.4961L8.24421 10.4429C8.16496 10.3042 7.96311 10.3098 7.89168 10.4527L6.89443 12.4472C6.72504 12.786 6.37877 13 6 13H2C1.44772 13 1 12.5523 1 12C1 11.4477 1.44772 11 2 11H5.07295C5.26233 11 5.43547 10.893 5.52016 10.7236L7.10557 7.55279C7.2705 7.22293 7.6036 7.01062 7.97225 7.00039Z" fill="#12131A"/>
</svg>
