<svg width="24" height="24" viewBox="0 0 24 24" fill="none" xmlns="http://www.w3.org/2000/svg">
<g opacity="0.25">
<path d="M8 3C6.34315 3 5 4.34315 5 6V20C5 20.5523 5.44772 21 6 21H18C18.5523 21 19 20.5523 19 20V6C19 4.34315 17.6569 3 16 3H8Z" fill="#12131A"/>
<path d="M3 10C3 9.44772 2.55228 9 2 9C1.44772 9 1 9.44771 1 10V20C1 20.5523 1.44772 21 2 21C2.55228 21 3 20.5523 3 20V10Z" fill="#12131A"/>
<path d="M21 10C21 9.44772 21.4477 9 22 9C22.5523 9 23 9.44771 23 10V20C23 20.5523 22.5523 21 22 21C21.4477 21 21 20.5523 21 20V10Z" fill="#12131A"/>
</g>
<path d="M12 6C11.4477 6 11 6.44772 11 7V8H10C9.44771 8 9 8.44771 9 9C9 9.55228 9.44771 10 10 10H11V11C11 11.5523 11.4477 12 12 12C12.5523 12 13 11.5523 13 11V10H14C14.5523 10 15 9.55229 15 9C15 8.44772 14.5523 8 14 8H13V7C13 6.44772 12.5523 6 12 6Z" fill="#12131A"/>
<path d="M10 17C10 16.4477 10.4477 16 11 16H13C13.5523 16 14 16.4477 14 17V21H10V17Z" fill="#12131A"/>
</svg>
