<svg width="24" height="24" viewBox="0 0 24 24" fill="none" xmlns="http://www.w3.org/2000/svg">
<path d="M9 17C8.44772 17 8 17.4477 8 18V20C8 20.5523 8.44772 21 9 21C9.55228 21 10 20.5523 10 20V18C10 17.4477 9.55228 17 9 17Z" fill="#12131A"/>
<path d="M14 18C14 17.4477 13.5523 17 13 17C12.4477 17 12 17.4477 12 18V20C12 21.6569 13.3431 23 15 23H20C20.5523 23 21 22.5523 21 22C21 21.4477 20.5523 21 20 21H15C14.4477 21 14 20.5523 14 20V18Z" fill="#12131A"/>
<path opacity="0.25" d="M13 3C13 1.89543 12.1046 1 11 1C9.89543 1 9 1.89543 9 3H6C4.34315 3 3 4.34315 3 6V16C3 17.6569 4.34315 19 6 19H16C17.6569 19 19 17.6569 19 16C19 12.2571 19 12.4254 19 6C19 4.34315 17.6569 3 16 3H13Z" fill="#12131A"/>
<path d="M16 8C15.4477 8 15 8.44772 15 9C15 9.55228 15.4477 10 16 10H19V8H16Z" fill="#12131A"/>
<path d="M16 12C15.4477 12 15 12.4477 15 13C15 13.5523 15.4477 14 16 14H19V12H16Z" fill="#12131A"/>
</svg>
