<svg width="24" height="24" viewBox="0 0 24 24" fill="none" xmlns="http://www.w3.org/2000/svg">
<path opacity="0.25" d="M20.0001 12L12.0001 20C9.79098 22.2091 6.20926 22.2091 4.00012 20C1.79098 17.7909 1.79097 14.2091 4.00011 12L12.0001 3.99999C14.2093 1.79086 17.791 1.79085 20.0001 3.99999C22.2093 6.20913 22.2093 9.79085 20.0001 12Z" fill="#12131A"/>
<path d="M13 10C13 10.5523 12.5523 11 12 11C11.4477 11 11 10.5523 11 10C11 9.44772 11.4477 9 12 9C12.5523 9 13 9.44772 13 10Z" fill="#12131A"/>
<path d="M13 14C13 14.5523 12.5523 15 12 15C11.4477 15 11 14.5523 11 14C11 13.4477 11.4477 13 12 13C12.5523 13 13 13.4477 13 14Z" fill="#12131A"/>
<path d="M11 12C11 12.5523 10.5523 13 10 13C9.44772 13 9 12.5523 9 12C9 11.4477 9.44772 11 10 11C10.5523 11 11 11.4477 11 12Z" fill="#12131A"/>
<path d="M15 12C15 12.5523 14.5523 13 14 13C13.4477 13 13 12.5523 13 12C13 11.4477 13.4477 11 14 11C14.5523 11 15 11.4477 15 12Z" fill="#12131A"/>
<path d="M18.7931 13.2071L20.0002 12C20.0696 11.9305 20.1369 11.8597 20.202 11.7876L12.2126 3.79816C12.1405 3.86325 12.0696 3.93053 12.0002 3.99999L10.7931 5.2071L18.7931 13.2071Z" fill="#12131A"/>
<path d="M13.2073 18.7929L5.20728 10.7929L4.00017 12C3.93071 12.0695 3.86343 12.1403 3.79834 12.2124L11.7878 20.2018C11.8599 20.1367 11.9307 20.0695 12.0002 20L13.2073 18.7929Z" fill="#12131A"/>
</svg>
