<svg width="24" height="24" viewBox="0 0 24 24" fill="none" xmlns="http://www.w3.org/2000/svg">
<path opacity="0.25" d="M12.7071 3.29289C12.3166 2.90237 11.6834 2.90237 11.2929 3.29289C10.9024 3.68342 10.9024 4.31658 11.2929 4.70711L12.2929 5.70708L5.51368 12.4863C4.56798 13.432 4.1575 14.7877 4.41978 16.0992L4.99995 19L7.90079 19.5802C9.21223 19.8425 10.568 19.432 11.5137 18.4863C14.5924 15.4075 15.7751 14.2248 18.2929 11.7071L19.2929 12.7071C19.6834 13.0976 20.3166 13.0976 20.7071 12.7071C21.0976 12.3166 21.0976 11.6834 20.7071 11.2929L12.7071 3.29289Z" fill="#12131A"/>
<path fill-rule="evenodd" clip-rule="evenodd" d="M7 17C7.39052 17.3906 7.39052 18.0237 7 18.4143L3.70711 21.7072C3.31658 22.0977 2.68342 22.0977 2.29289 21.7072C1.90237 21.3166 1.90237 20.6835 2.29289 20.2929L5.58579 17C5.97631 16.6095 6.60948 16.6095 7 17Z" fill="#12131A"/>
<path d="M16.7071 13.2929L14.7071 11.2929C14.3166 10.9024 13.6834 10.9024 13.2929 11.2929C12.9024 11.6834 12.9024 12.3166 13.2929 12.7071L15.2929 14.7071L16.7071 13.2929Z" fill="#12131A"/>
<path d="M13.7071 16.2929L11.7071 14.2929C11.3166 13.9024 10.6834 13.9024 10.2929 14.2929C9.90237 14.6834 9.90237 15.3166 10.2929 15.7071L12.2929 17.7071L13.7071 16.2929Z" fill="#12131A"/>
<path d="M17.7072 2.29289C17.3167 1.90237 16.6835 1.90237 16.293 2.29289C15.9025 2.68342 15.9025 3.31658 16.293 3.70711L17.5859 5.00005L16.0002 6.5858C15.6096 6.97633 15.6096 7.60949 16.0002 8.00001C16.3907 8.39054 17.0239 8.39054 17.4144 8.00001L19.0001 6.41426L20.293 7.70711C20.6835 8.09763 21.3167 8.09763 21.7072 7.70711C22.0977 7.31658 22.0977 6.68342 21.7072 6.29289L17.7072 2.29289Z" fill="#12131A"/>
</svg>
