<svg width="24" height="24" viewBox="0 0 24 24" fill="none" xmlns="http://www.w3.org/2000/svg">
<path d="M4.25724 17.7426L2.46426 19.5355C1.91198 20.0878 1.91198 20.9832 2.46426 21.5355C3.01655 22.0878 3.91198 22.0878 4.46426 21.5355L6.25724 19.7426L4.25724 17.7426Z" fill="#12131A"/>
<path opacity="0.25" fill-rule="evenodd" clip-rule="evenodd" d="M20.9642 8.03554L13.0518 15.948C12.6673 16.3324 12.1856 16.6052 11.6581 16.7371L9.00163 17.4012C8.64996 17.4891 8.3288 17.6709 8.07248 17.9272L7.67139 18.3283L5.67139 16.3283L6.07248 15.9272C6.3288 15.6709 6.51064 15.3498 6.59855 14.9981L7.26266 12.3417C7.39454 11.8142 7.66729 11.3324 8.05177 10.948L15.9642 3.03553C17.3449 1.65482 19.5835 1.65482 20.9642 3.03553C22.3449 4.41625 22.3449 6.65482 20.9642 8.03554Z" fill="#12131A"/>
<path d="M16.9999 9.00003L14.9999 11C14.4476 11.5523 13.5522 11.5523 12.9999 11C12.4476 10.4477 12.4476 9.55231 12.9999 9.00003L14.9999 7.00003C15.5522 6.44774 16.4476 6.44774 16.9999 7.00003C17.5522 7.55231 17.5522 8.44774 16.9999 9.00003Z" fill="#12131A"/>
</svg>
