<svg width="24" height="24" viewBox="0 0 24 24" fill="none" xmlns="http://www.w3.org/2000/svg">
<path d="M23 8.5C23 11.5376 20.5376 14 17.5 14C14.4624 14 12 11.5376 12 8.5C12 5.46243 14.4624 3 17.5 3C20.5376 3 23 5.46243 23 8.5Z" fill="#12131A"/>
<path opacity="0.25" d="M8 8.5C8 10.433 6.433 12 4.5 12C2.567 12 1 10.433 1 8.5C1 6.567 2.567 5 4.5 5C6.433 5 8 6.567 8 8.5Z" fill="#12131A"/>
<path opacity="0.25" d="M13 17C13 19.2091 11.2091 21 9 21C6.79086 21 5 19.2091 5 17C5 14.7909 6.79086 13 9 13C11.2091 13 13 14.7909 13 17Z" fill="#12131A"/>
</svg>
