<svg width="24" height="24" viewBox="0 0 24 24" fill="none" xmlns="http://www.w3.org/2000/svg">
<g opacity="0.25">
<path d="M18 0C18.5523 0 19 0.447716 19 1V21C19 21.5523 18.5523 22 18 22C17.4477 22 17 21.5523 17 21V1C17 0.447716 17.4477 0 18 0Z" fill="#12131A"/>
<path d="M6 4C6.55228 4 7 4.44772 7 5V23C7 23.5523 6.55228 24 6 24C5.44772 24 5 23.5523 5 23V5C5 4.44772 5.44772 4 6 4Z" fill="#12131A"/>
</g>
<path d="M17 6C16.4477 6 16 6.44772 16 7V15C16 15.5523 16.4477 16 17 16H19C19.5523 16 20 15.5523 20 15V7C20 6.44772 19.5523 6 19 6H17Z" fill="#12131A"/>
<path d="M5 12C4.44772 12 4 12.4477 4 13V17C4 17.5523 4.44772 18 5 18H7C7.55228 18 8 17.5523 8 17V13C8 12.4477 7.55228 12 7 12H5Z" fill="#12131A"/>
</svg>
