<svg width="24" height="24" viewBox="0 0 24 24" fill="none" xmlns="http://www.w3.org/2000/svg">
<path d="M18 10C18 8.89543 18.8954 8 20 8V8C21.1046 8 22 8.89543 22 10V20C22 21.1046 21.1046 22 20 22V22C18.8954 22 18 21.1046 18 20V10Z" fill="#12131A"/>
<path opacity="0.25" d="M10 14C10 12.8954 10.8954 12 12 12V12C13.1046 12 14 12.8954 14 14V20C14 21.1046 13.1046 22 12 22V22C10.8954 22 10 21.1046 10 20V14Z" fill="#12131A"/>
<path opacity="0.25" d="M2 4C2 2.89543 2.89543 2 4 2V2C5.10457 2 6 2.89543 6 4V20C6 21.1046 5.10457 22 4 22V22C2.89543 22 2 21.1046 2 20V4Z" fill="#12131A"/>
</svg>
