<svg width="24" height="24" viewBox="0 0 24 24" fill="none" xmlns="http://www.w3.org/2000/svg">
<path d="M22 14C22 12.8954 21.1046 12 20 12V12C18.8954 12 18 12.8954 18 14V20C18 21.1046 18.8954 22 20 22V22C21.1046 22 22 21.1046 22 20V14Z" fill="#12131A"/>
<path opacity="0.25" d="M14 10C14 8.89543 13.1046 8 12 8V8C10.8954 8 10 8.89543 10 10V20C10 21.1046 10.8954 22 12 22V22C13.1046 22 14 21.1046 14 20V10Z" fill="#12131A"/>
<path opacity="0.25" d="M6 4C6 2.89543 5.10457 2 4 2V2C2.89543 2 2 2.89543 2 4V20C2 21.1046 2.89543 22 4 22V22C5.10457 22 6 21.1046 6 20V4Z" fill="#12131A"/>
</svg>
