<svg width="24" height="24" viewBox="0 0 24 24" fill="none" xmlns="http://www.w3.org/2000/svg">
<path opacity="0.25" fill-rule="evenodd" clip-rule="evenodd" d="M1 4.86876C1 2.99999 3 2.49994 4.5 3.50041L8.5547 6.16819C8.57009 6.17846 8.5852 6.18914 8.6 6.20024L11.6111 8.4586C11.9142 8.68586 12.3196 8.72242 12.6584 8.55303L14.6584 7.55303C15.5029 7.13073 16.4971 7.13073 17.3416 7.55303L21.3416 9.55303C22.358 10.0612 23 11.1 23 12.2363V20.0002C23 20.5525 22.5523 21.0002 22 21.0002H2C1.44772 21.0002 1 20.5525 1 20.0002V4.86876Z" fill="#12131A"/>
<path d="M4 6C4.55228 6 5 6.44772 5 7V18C5 18.5523 4.55228 19 4 19C3.44772 19 3 18.5523 3 18V7C3 6.44772 3.44772 6 4 6Z" fill="#12131A"/>
<path d="M9 10C9 9.44772 8.55229 9 8 9C7.44772 9 7 9.44771 7 10V18C7 18.5523 7.44772 19 8 19C8.55229 19 9 18.5523 9 18V10Z" fill="#12131A"/>
<path d="M17 11C17 10.4477 16.5523 10 16 10C15.4477 10 15 10.4477 15 11V18C15 18.5523 15.4477 19 16 19C16.5523 19 17 18.5523 17 18V11Z" fill="#12131A"/>
<path d="M21 13C21 12.4477 20.5523 12 20 12C19.4477 12 19 12.4477 19 13V18C19 18.5523 19.4477 19 20 19C20.5523 19 21 18.5523 21 18V13Z" fill="#12131A"/>
<path d="M12 11C12.5523 11 13 11.4477 13 12V18C13 18.5523 12.5523 19 12 19C11.4477 19 11 18.5523 11 18V12C11 11.4477 11.4477 11 12 11Z" fill="#12131A"/>
</svg>
