<svg width="24" height="24" viewBox="0 0 24 24" fill="none" xmlns="http://www.w3.org/2000/svg">
<path opacity="0.25" fill-rule="evenodd" clip-rule="evenodd" d="M23 4.86876C23 2.99999 21 2.49994 19.5 3.50041L15.4453 6.16819C15.4299 6.17846 15.4148 6.18914 15.4 6.20024L12.3889 8.4586C12.0858 8.68586 11.6804 8.72242 11.3416 8.55303L9.34164 7.55303C8.49706 7.13073 7.50294 7.13073 6.65836 7.55303L2.65836 9.55303C1.64201 10.0612 1 11.1 1 12.2363V20.0002C1 20.5525 1.44772 21.0002 2 21.0002H22C22.5523 21.0002 23 20.5525 23 20.0002V4.86876Z" fill="#12131A"/>
<path d="M20 6C19.4477 6 19 6.44772 19 7V18C19 18.5523 19.4477 19 20 19C20.5523 19 21 18.5523 21 18V7C21 6.44772 20.5523 6 20 6Z" fill="#12131A"/>
<path d="M15 10C15 9.44772 15.4477 9 16 9C16.5523 9 17 9.44771 17 10V18C17 18.5523 16.5523 19 16 19C15.4477 19 15 18.5523 15 18V10Z" fill="#12131A"/>
<path d="M7 11C7 10.4477 7.44772 10 8 10C8.55229 10 9 10.4477 9 11V18C9 18.5523 8.55229 19 8 19C7.44772 19 7 18.5523 7 18V11Z" fill="#12131A"/>
<path d="M3 13C3 12.4477 3.44772 12 4 12C4.55228 12 5 12.4477 5 13V18C5 18.5523 4.55228 19 4 19C3.44772 19 3 18.5523 3 18V13Z" fill="#12131A"/>
<path d="M12 11C11.4477 11 11 11.4477 11 12V18C11 18.5523 11.4477 19 12 19C12.5523 19 13 18.5523 13 18V12C13 11.4477 12.5523 11 12 11Z" fill="#12131A"/>
</svg>
