<svg width="24" height="24" viewBox="0 0 24 24" fill="none" xmlns="http://www.w3.org/2000/svg">
<path d="M18 4C18 2.89543 18.8954 2 20 2V2C21.1046 2 22 2.89543 22 4V20C22 21.1046 21.1046 22 20 22V22C18.8954 22 18 21.1046 18 20V4Z" fill="#12131A"/>
<path opacity="0.25" d="M10 10C10 8.89543 10.8954 8 12 8V8C13.1046 8 14 8.89543 14 10V20C14 21.1046 13.1046 22 12 22V22C10.8954 22 10 21.1046 10 20V10Z" fill="#12131A"/>
<path opacity="0.25" d="M2 14C2 12.8954 2.89543 12 4 12V12C5.10457 12 6 12.8954 6 14V20C6 21.1046 5.10457 22 4 22V22C2.89543 22 2 21.1046 2 20V14Z" fill="#12131A"/>
</svg>
