<svg width="24" height="24" viewBox="0 0 24 24" fill="none" xmlns="http://www.w3.org/2000/svg">
<path opacity="0.25" d="M1 5C1 3.89543 1.89543 3 3 3H21C22.1046 3 23 3.89543 23 5V19C23 20.1046 22.1046 21 21 21H3C1.89543 21 1 20.1046 1 19V5Z" fill="#12131A"/>
<path fill-rule="evenodd" clip-rule="evenodd" d="M17.2929 5.29289C17.6834 4.90237 18.3166 4.90237 18.7071 5.29289L20.7071 7.29289C21.0976 7.68342 21.0976 8.31658 20.7071 8.70711C20.3166 9.09763 19.6834 9.09763 19.2929 8.70711L19 8.41421V9C19 14.5228 14.5228 19 9 19H4C3.44772 19 3 18.5523 3 18C3 17.4477 3.44772 17 4 17H9C13.4183 17 17 13.4183 17 9V8.41421L16.7071 8.70711C16.3166 9.09763 15.6834 9.09763 15.2929 8.70711C14.9024 8.31658 14.9024 7.68342 15.2929 7.29289L17.2929 5.29289Z" fill="#12131A"/>
</svg>
