<svg width="24" height="24" viewBox="0 0 24 24" fill="none" xmlns="http://www.w3.org/2000/svg">
<path opacity="0.25" d="M1 5C1 3.89543 1.89543 3 3 3H21C22.1046 3 23 3.89543 23 5V19C23 20.1046 22.1046 21 21 21H3C1.89543 21 1 20.1046 1 19V5Z" fill="#12131A"/>
<path fill-rule="evenodd" clip-rule="evenodd" d="M17.2929 18.7071C17.6834 19.0976 18.3166 19.0976 18.7071 18.7071L20.7071 16.7071C21.0976 16.3166 21.0976 15.6834 20.7071 15.2929C20.3166 14.9024 19.6834 14.9024 19.2929 15.2929L19 15.5858V15C19 9.47715 14.5228 5 9 5H4C3.44772 5 3 5.44772 3 6C3 6.55228 3.44772 7 4 7H9C13.4183 7 17 10.5817 17 15V15.5858L16.7071 15.2929C16.3166 14.9024 15.6834 14.9024 15.2929 15.2929C14.9024 15.6834 14.9024 16.3166 15.2929 16.7071L17.2929 18.7071Z" fill="#12131A"/>
</svg>
