<svg width="24" height="24" viewBox="0 0 24 24" fill="none" xmlns="http://www.w3.org/2000/svg">
<path opacity="0.25" d="M11 5C11 4.44771 10.5509 3.99425 10.002 4.05549C8.57508 4.2147 7.20174 4.7137 5.99987 5.51677C4.51983 6.5057 3.36628 7.91131 2.68509 9.55585C2.0039 11.2004 1.82567 13.01 2.17294 14.7558C2.5202 16.5016 3.37737 18.1053 4.63604 19.364C5.89472 20.6226 7.49836 21.4798 9.24419 21.8271C10.99 22.1743 12.7996 21.9961 14.4442 21.3149C16.0887 20.6337 17.4943 19.4802 18.4832 18.0001C19.2863 16.7983 19.7853 15.4249 19.9445 13.998C20.0057 13.4491 19.5523 13 19 13L12 13C11.4477 13 11 12.5523 11 12L11 5Z" fill="#12131A"/>
<path d="M21 10.9999C21.5523 10.9999 22.0057 10.5508 21.9445 10.0019C21.8509 9.16262 21.6394 8.33899 21.3149 7.55571C20.8626 6.46378 20.1997 5.47163 19.364 4.6359C18.5282 3.80017 17.5361 3.13724 16.4442 2.68495C15.6609 2.3605 14.8372 2.149 13.998 2.05536C13.4491 1.99412 13 2.44758 13 2.99986V9.99986C13 10.5521 13.4477 10.9999 14 10.9999H21Z" fill="#12131A"/>
</svg>
