<svg width="24" height="24" viewBox="0 0 24 24" fill="none" xmlns="http://www.w3.org/2000/svg">
<path opacity="0.25" d="M2 4C2 2.89543 2.89543 2 4 2H20C21.1046 2 22 2.89543 22 4V20C22 21.1046 21.1046 22 20 22H4C2.89543 22 2 21.1046 2 20V4Z" fill="#12131A"/>
<path fill-rule="evenodd" clip-rule="evenodd" d="M5 14C5 13.4477 5.44772 13 6 13C6.55228 13 7 13.4477 7 14V18C7 18.5523 6.55228 19 6 19C5.44772 19 5 18.5523 5 18V14ZM6 5C5.44772 5 5 5.44772 5 6V10C5 10.5523 5.44772 11 6 11C6.55228 11 7 10.5523 7 10V6C7 5.44772 6.55228 5 6 5ZM9 12C9 11.4477 9.44771 11 10 11C10.5523 11 11 11.4477 11 12V18C11 18.5523 10.5523 19 10 19C9.44771 19 9 18.5523 9 18V12ZM10 5C9.44771 5 9 5.44772 9 6V8C9 8.55229 9.44771 9 10 9C10.5523 9 11 8.55229 11 8V6C11 5.44772 10.5523 5 10 5ZM13 6C13 5.44772 13.4477 5 14 5C14.5523 5 15 5.44772 15 6V11C15 11.5523 14.5523 12 14 12C13.4477 12 13 11.5523 13 11V6ZM14 14C13.4477 14 13 14.4477 13 15V18C13 18.5523 13.4477 19 14 19C14.5523 19 15 18.5523 15 18V15C15 14.4477 14.5523 14 14 14ZM17 6C17 5.44772 17.4477 5 18 5C18.5523 5 19 5.44772 19 6V9C19 9.55229 18.5523 10 18 10C17.4477 10 17 9.55229 17 9V6ZM18 12C17.4477 12 17 12.4477 17 13V18C17 18.5523 17.4477 19 18 19C18.5523 19 19 18.5523 19 18V13C19 12.4477 18.5523 12 18 12Z" fill="#12131A"/>
</svg>
