<svg width="24" height="24" viewBox="0 0 24 24" fill="none" xmlns="http://www.w3.org/2000/svg">
<path opacity="0.25" d="M2 4C2 2.89543 2.89543 2 4 2H20C21.1046 2 22 2.89543 22 4V20C22 21.1046 21.1046 22 20 22H4C2.89543 22 2 21.1046 2 20V4Z" fill="#12131A"/>
<path fill-rule="evenodd" clip-rule="evenodd" d="M5 17C5 16.4477 5.44772 16 6 16C6.55228 16 7 16.4477 7 17V18C7 18.5523 6.55228 19 6 19C5.44772 19 5 18.5523 5 18V17ZM6 5C5.44772 5 5 5.44772 5 6V13C5 13.5523 5.44772 14 6 14C6.55228 14 7 13.5523 7 13V6C7 5.44772 6.55228 5 6 5ZM9 15C9 14.4477 9.44771 14 10 14C10.5523 14 11 14.4477 11 15V18C11 18.5523 10.5523 19 10 19C9.44771 19 9 18.5523 9 18V15ZM10 5C9.44771 5 9 5.44772 9 6V11C9 11.5523 9.44771 12 10 12C10.5523 12 11 11.5523 11 11V6C11 5.44772 10.5523 5 10 5ZM13 6C13 5.44772 13.4477 5 14 5C14.5523 5 15 5.44772 15 6V9C15 9.55229 14.5523 10 14 10C13.4477 10 13 9.55229 13 9V6ZM14 12C13.4477 12 13 12.4477 13 13V18C13 18.5523 13.4477 19 14 19C14.5523 19 15 18.5523 15 18V13C15 12.4477 14.5523 12 14 12ZM17 6C17 5.44772 17.4477 5 18 5C18.5523 5 19 5.44772 19 6V7C19 7.55228 18.5523 8 18 8C17.4477 8 17 7.55228 17 7V6ZM18 10C17.4477 10 17 10.4477 17 11V18C17 18.5523 17.4477 19 18 19C18.5523 19 19 18.5523 19 18V11C19 10.4477 18.5523 10 18 10Z" fill="#12131A"/>
</svg>
