<svg width="24" height="24" viewBox="0 0 24 24" fill="none" xmlns="http://www.w3.org/2000/svg">
<path opacity="0.25" d="M2 4C2 2.89543 2.89543 2 4 2H20C21.1046 2 22 2.89543 22 4V20C22 21.1046 21.1046 22 20 22H4C2.89543 22 2 21.1046 2 20V4Z" fill="#12131A"/>
<path fill-rule="evenodd" clip-rule="evenodd" d="M19 17C19 16.4477 18.5523 16 18 16C17.4477 16 17 16.4477 17 17V18C17 18.5523 17.4477 19 18 19C18.5523 19 19 18.5523 19 18V17ZM18 5C18.5523 5 19 5.44772 19 6V13C19 13.5523 18.5523 14 18 14C17.4477 14 17 13.5523 17 13V6C17 5.44772 17.4477 5 18 5ZM15 15C15 14.4477 14.5523 14 14 14C13.4477 14 13 14.4477 13 15V18C13 18.5523 13.4477 19 14 19C14.5523 19 15 18.5523 15 18V15ZM14 5C14.5523 5 15 5.44772 15 6V11C15 11.5523 14.5523 12 14 12C13.4477 12 13 11.5523 13 11V6C13 5.44772 13.4477 5 14 5ZM11 6C11 5.44772 10.5523 5 10 5C9.44771 5 9 5.44772 9 6V9C9 9.55229 9.44771 10 10 10C10.5523 10 11 9.55229 11 9V6ZM10 12C10.5523 12 11 12.4477 11 13V18C11 18.5523 10.5523 19 10 19C9.44771 19 9 18.5523 9 18V13C9 12.4477 9.44771 12 10 12ZM7 6C7 5.44772 6.55228 5 6 5C5.44772 5 5 5.44772 5 6V7C5 7.55228 5.44772 8 6 8C6.55228 8 7 7.55228 7 7V6ZM6 10C6.55228 10 7 10.4477 7 11V18C7 18.5523 6.55228 19 6 19C5.44772 19 5 18.5523 5 18V11C5 10.4477 5.44772 10 6 10Z" fill="#12131A"/>
</svg>
