<svg width="24" height="24" viewBox="0 0 24 24" fill="none" xmlns="http://www.w3.org/2000/svg">
<path opacity="0.25" fill-rule="evenodd" clip-rule="evenodd" d="M10 20C13.866 20 17 16.866 17 13C17 9.13401 13.866 6 10 6C6.13401 6 3 9.13401 3 13C3 16.866 6.13401 20 10 20ZM8 12C8 11.8252 8.09745 11.5668 8.33211 11.3321C8.56676 11.0975 8.82523 11 9 11C9.55228 11 10 10.5523 10 10C10 9.44772 9.55228 9 9 9C8.17477 9 7.43324 9.40255 6.91789 9.91789C6.40255 10.4332 6 11.1748 6 12C6 12.5523 6.44772 13 7 13C7.55228 13 8 12.5523 8 12Z" fill="#12131A"/>
<path d="M18 7C19.6569 7 21 5.65685 21 4C21 2.34315 19.6569 1 18 1C16.3431 1 15 2.34315 15 4C15 5.65685 16.3431 7 18 7Z" fill="#12131A"/>
<path d="M21 21C21 22.1046 20.1046 23 19 23C17.8954 23 17 22.1046 17 21C17 19.8954 17.8954 19 19 19C20.1046 19 21 19.8954 21 21Z" fill="#12131A"/>
</svg>
