<svg width="24" height="24" viewBox="0 0 24 24" fill="none" xmlns="http://www.w3.org/2000/svg">
<path opacity="0.25" d="M3 12C3 9.79086 4.79086 8 7 8H12C14.2091 8 16 9.79086 16 12V21C16 22.1046 15.1046 23 14 23H5C3.89543 23 3 22.1046 3 21V12Z" fill="#12131A"/>
<rect x="3" y="12" width="13" height="2" fill="#12131A"/>
<path d="M8 1C6.89543 1 6 1.89543 6 3V7C6 7.55228 6.44772 8 7 8H12C12.5523 8 13 7.55228 13 7V5H17.1716C17.4368 5 17.6911 5.10536 17.8787 5.29289L19.2929 6.70711C19.6834 7.09763 20.3166 7.09763 20.7071 6.70711C21.0976 6.31658 21.0976 5.68342 20.7071 5.29289L19.2929 3.87868C18.7303 3.31607 17.9672 3 17.1716 3H13C13 1.89543 12.1046 1 11 1H8Z" fill="#12131A"/>
</svg>
