<svg width="24" height="24" viewBox="0 0 24 24" fill="none" xmlns="http://www.w3.org/2000/svg">
<path opacity="0.25" d="M13 12C13 10.8954 13.8954 10 15 10H19C20.1046 10 21 10.8954 21 12V21C21 22.1046 20.1046 23 19 23H15C13.8954 23 13 22.1046 13 21V12Z" fill="#12131A"/>
<path opacity="0.25" d="M5 8C4.44772 8 4 8.44772 4 9V13.2676C3.4022 13.6134 3 14.2597 3 15V21C3 22.1046 3.89543 23 5 23H9C10.1046 23 11 22.1046 11 21V15C11 14.2597 10.5978 13.6134 10 13.2676V9C10 8.44772 9.55228 8 9 8H5Z" fill="#12131A"/>
<path d="M5 4C5 2.34315 6.34315 1 8 1V1C8.55228 1 9 1.44772 9 2V8H5V4Z" fill="#12131A"/>
</svg>
