<svg width="24" height="24" viewBox="0 0 24 24" fill="none" xmlns="http://www.w3.org/2000/svg">
<path fill-rule="evenodd" clip-rule="evenodd" d="M5 19C3.89543 19 3 19.8954 3 21C3 22.1046 3.89543 23 5 23H19C20.1046 23 21 22.1046 21 21C21 19.8954 20.1046 19 19 19H5Z" fill="#12131A"/>
<path opacity="0.25" d="M21 10C21 14.9706 16.9706 19 12 19C7.02944 19 3 14.9706 3 10C3 5.02944 7.02944 1 12 1C16.9706 1 21 5.02944 21 10Z" fill="#12131A"/>
<path d="M9.70711 6.70711C10.0976 6.31658 10.0976 5.68342 9.70711 5.29289C9.31658 4.90237 8.68342 4.90237 8.29289 5.29289L7.29289 6.29289C6.90237 6.68342 6.90237 7.31658 7.29289 7.70711C7.68342 8.09763 8.31658 8.09763 8.70711 7.70711L9.70711 6.70711Z" fill="#12131A"/>
<path d="M13.7071 7.70711C14.0976 7.31658 14.0976 6.68342 13.7071 6.29289C13.3166 5.90237 12.6834 5.90237 12.2929 6.29289L8.29289 10.2929C7.90237 10.6834 7.90237 11.3166 8.29289 11.7071C8.68342 12.0976 9.31658 12.0976 9.70711 11.7071L13.7071 7.70711Z" fill="#12131A"/>
</svg>
