<svg width="24" height="24" viewBox="0 0 24 24" fill="none" xmlns="http://www.w3.org/2000/svg">
<path opacity="0.25" d="M6 0C4.89543 0 4 0.89543 4 2V5C4 6.10457 4.89543 7 6 7H10V22C10 23.1046 10.8954 24 12 24C13.1046 24 14 23.1046 14 22V7H18C19.1046 7 20 6.10457 20 5V2C20 0.895431 19.1046 0 18 0H6Z" fill="#12131A"/>
<path d="M9 7H15V8C15 9.65685 13.6569 11 12 11V11C10.3431 11 9 9.65685 9 8V7Z" fill="#12131A"/>
<path d="M6 3C6 2.44772 6.44772 2 7 2H17C17.5523 2 18 2.44772 18 3V3C18 3.55228 17.5523 4 17 4H7C6.44772 4 6 3.55228 6 3V3Z" fill="#12131A"/>
</svg>
