<svg width="24" height="24" viewBox="0 0 24 24" fill="none" xmlns="http://www.w3.org/2000/svg">
<path opacity="0.25" d="M3 4C3 2.34315 4.34315 1 6 1H15.7574C16.553 1 17.3161 1.31607 17.8787 1.87868L20.1213 4.12132C20.6839 4.68393 21 5.44699 21 6.24264V20C21 21.6569 19.6569 23 18 23H6C4.34315 23 3 21.6569 3 20V4Z" fill="#12131A"/>
<path d="M15 1.89181C15 1.39927 15.3993 1 15.8918 1V1C16.6014 1 17.2819 1.28187 17.7836 1.78361L20.2164 4.21639C20.7181 4.71813 21 5.39863 21 6.10819V6.10819C21 6.60073 20.6007 7 20.1082 7H16C15.4477 7 15 6.55228 15 6V1.89181Z" fill="#12131A"/>
<path d="M7.29289 13.2929C6.90237 13.6834 6.90237 14.3166 7.29289 14.7071L9.29289 16.7071C9.68342 17.0976 10.3166 17.0976 10.7071 16.7071C11.0976 16.3166 11.0976 15.6834 10.7071 15.2929L9.41421 14L10.7071 12.7071C11.0976 12.3166 11.0976 11.6834 10.7071 11.2929C10.3166 10.9024 9.68342 10.9024 9.29289 11.2929L7.29289 13.2929Z" fill="#12131A"/>
<path d="M14.7071 11.2929L16.7071 13.2929C17.0976 13.6834 17.0976 14.3166 16.7071 14.7071L14.7071 16.7071C14.3166 17.0976 13.6834 17.0976 13.2929 16.7071C12.9024 16.3166 12.9024 15.6834 13.2929 15.2929L14.5858 14L13.2929 12.7071C12.9024 12.3166 12.9024 11.6834 13.2929 11.2929C13.6834 10.9024 14.3166 10.9024 14.7071 11.2929Z" fill="#12131A"/>
</svg>
