<svg width="24" height="24" viewBox="0 0 24 24" fill="none" xmlns="http://www.w3.org/2000/svg">
<path opacity="0.25" d="M3 4C3 2.34315 4.34315 1 6 1H15.7574C16.553 1 17.3161 1.31607 17.8787 1.87868L20.1213 4.12132C20.6839 4.68393 21 5.44699 21 6.24264V20C21 21.6569 19.6569 23 18 23H6C4.34315 23 3 21.6569 3 20V4Z" fill="#12131A"/>
<path d="M15 1.89181C15 1.39927 15.3993 1 15.8918 1V1C16.6014 1 17.2819 1.28187 17.7836 1.78361L20.2164 4.21639C20.7181 4.71813 21 5.39863 21 6.10819V6.10819C21 6.60073 20.6007 7 20.1082 7H16C15.4477 7 15 6.55228 15 6V1.89181Z" fill="#12131A"/>
<path d="M10 1C9.44771 1 9 1.44772 9 2V15H4C3.44772 15 3 15.4477 3 16C3 16.5523 3.44772 17 4 17H9V22C9 22.5523 9.44771 23 10 23C10.5523 23 11 22.5523 11 22V17H20C20.5523 17 21 16.5523 21 16C21 15.4477 20.5523 15 20 15H11V2C11 1.44772 10.5523 1 10 1Z" fill="#12131A"/>
</svg>
