<svg width="24" height="24" viewBox="0 0 24 24" fill="none" xmlns="http://www.w3.org/2000/svg">
<path opacity="0.25" d="M3 4C3 2.34315 4.34315 1 6 1H15.7574C16.553 1 17.3161 1.31607 17.8787 1.87868L20.1213 4.12132C20.6839 4.68393 21 5.44699 21 6.24264V14C21 14.5523 20.5523 15 20 15H4C3.44772 15 3 14.5523 3 14V4Z" fill="#12131A"/>
<path d="M4 17C3.44772 17 3 17.4477 3 18C3 18.5523 3.44772 19 4 19C4.55228 19 5 18.5523 5 18C5 17.4477 4.55228 17 4 17Z" fill="#12131A"/>
<path d="M8 21C7.44772 21 7 21.4477 7 22C7 22.5523 7.44772 23 8 23C8.55229 23 9 22.5523 9 22C9 21.4477 8.55229 21 8 21Z" fill="#12131A"/>
<path d="M3 22C3 21.4477 3.44772 21 4 21C4.55228 21 5 21.4477 5 22C5 22.5523 4.55228 23 4 23C3.44772 23 3 22.5523 3 22Z" fill="#12131A"/>
<path d="M12 21C11.4477 21 11 21.4477 11 22C11 22.5523 11.4477 23 12 23C12.5523 23 13 22.5523 13 22C13 21.4477 12.5523 21 12 21Z" fill="#12131A"/>
<path d="M19 22C19 21.4477 19.4477 21 20 21C20.5523 21 21 21.4477 21 22C21 22.5523 20.5523 23 20 23C19.4477 23 19 22.5523 19 22Z" fill="#12131A"/>
<path d="M16 21C15.4477 21 15 21.4477 15 22C15 22.5523 15.4477 23 16 23C16.5523 23 17 22.5523 17 22C17 21.4477 16.5523 21 16 21Z" fill="#12131A"/>
<path d="M19 18C19 17.4477 19.4477 17 20 17C20.5523 17 21 17.4477 21 18C21 18.5523 20.5523 19 20 19C19.4477 19 19 18.5523 19 18Z" fill="#12131A"/>
<path d="M16 17C15.4477 17 15 17.4477 15 18C15 18.5523 15.4477 19 16 19C16.5523 19 17 18.5523 17 18C17 17.4477 16.5523 17 16 17Z" fill="#12131A"/>
<path d="M11 18C11 17.4477 11.4477 17 12 17C12.5523 17 13 17.4477 13 18C13 18.5523 12.5523 19 12 19C11.4477 19 11 18.5523 11 18Z" fill="#12131A"/>
<path d="M8 17C7.44772 17 7 17.4477 7 18C7 18.5523 7.44772 19 8 19C8.55229 19 9 18.5523 9 18C9 17.4477 8.55229 17 8 17Z" fill="#12131A"/>
<path d="M15 1.89181C15 1.39927 15.3993 1 15.8918 1V1C16.6014 1 17.2819 1.28187 17.7836 1.78361L20.2164 4.21639C20.7181 4.71813 21 5.39863 21 6.10819V6.10819C21 6.60073 20.6007 7 20.1082 7H16C15.4477 7 15 6.55228 15 6V1.89181Z" fill="#12131A"/>
</svg>
