<svg width="24" height="24" viewBox="0 0 24 24" fill="none" xmlns="http://www.w3.org/2000/svg">
<path opacity="0.25" fill-rule="evenodd" clip-rule="evenodd" d="M12 4C7.58172 4 4 7.58172 4 12C4 16.4183 7.58172 20 12 20C13.279 20 14.4852 19.7006 15.555 19.169C16.0495 18.9232 16.6497 19.1249 16.8955 19.6194C17.1413 20.114 16.9396 20.7142 16.445 20.96C15.1049 21.626 13.5947 22 12 22C6.47715 22 2 17.5228 2 12C2 6.47715 6.47715 2 12 2C17.5228 2 22 6.47715 22 12V12.0089C22.0001 12.2812 22.0003 13.4115 21.6362 14.5037C21.4504 15.0611 21.1472 15.68 20.6362 16.1683C20.1013 16.6794 19.3862 17 18.5 17C17.9477 17 17.5 16.5523 17.5 16C17.5 15.4477 17.9477 15 18.5 15C18.8638 15 19.0862 14.8831 19.2545 14.7223C19.4466 14.5388 19.6121 14.2514 19.7388 13.8713C19.9956 13.1009 20 12.2444 20 12C20 7.58172 16.4183 4 12 4Z" fill="#191213"/>
<path fill-rule="evenodd" clip-rule="evenodd" d="M15 12C15 13.6569 13.6569 15 12 15C10.3431 15 9 13.6569 9 12C9 10.3431 10.3431 9 12 9C13.6569 9 15 10.3431 15 12ZM15.7505 15.3067C14.8343 16.345 13.4937 17 12 17C9.23858 17 7 14.7614 7 12C7 9.23858 9.23858 7 12 7C13.1256 7 14.1643 7.37195 15 7.99964C15.0002 7.44752 15.4478 7 16 7C16.5523 7 17 7.44772 17 8C17 10.5531 17.0062 12.415 17.2876 13.6534C17.4253 14.2591 17.6032 14.5838 17.7695 14.7538C17.902 14.8892 18.0962 15 18.5 15C19.0523 15 19.5 15.4477 19.5 16C19.5 16.5523 19.0523 17 18.5 17C17.6538 17 16.9105 16.7358 16.3399 16.1524C16.0971 15.9043 15.9047 15.6175 15.7505 15.3067Z" fill="#121319"/>
</svg>
