<svg width="24" height="24" viewBox="0 0 24 24" fill="none" xmlns="http://www.w3.org/2000/svg">
<path opacity="0.25" fill-rule="evenodd" clip-rule="evenodd" d="M12 22C17.5228 22 22 17.5228 22 12C22 6.47715 17.5228 2 12 2C6.47715 2 2 6.47715 2 12C2 17.5228 6.47715 22 12 22Z" fill="#191213"/>
<path fill-rule="evenodd" clip-rule="evenodd" d="M9.92226 4.04076C8.91174 5.61268 7.95609 8.17078 7.95609 12C7.95609 15.8292 8.91174 18.3873 9.92226 19.9592C10.4302 20.7494 10.951 21.2892 11.3718 21.6208C11.5831 21.7872 11.7585 21.8928 11.8841 21.9526C11.9259 21.9725 11.957 21.9849 11.978 21.9925C11.999 21.9849 12.0302 21.9725 12.072 21.9526C12.1976 21.8928 12.373 21.7872 12.5842 21.6208C13.0051 21.2892 13.5258 20.7494 14.0338 19.9592C15.0443 18.3873 16 15.8292 16 12C16 8.17078 15.0443 5.61268 14.0338 4.04076C13.5258 3.25058 13.0051 2.71081 12.5842 2.37924C12.373 2.21281 12.1976 2.10718 12.072 2.04739C12.0302 2.02746 11.999 2.01505 11.978 2.0075C11.957 2.01505 11.9259 2.02746 11.8841 2.04739C11.7585 2.10718 11.5831 2.21281 11.3718 2.37924C10.951 2.71081 10.4302 3.25058 9.92226 4.04076ZM11.978 2.00005L11.9561 2C10.727 2 9.54964 2.22175 8.46193 2.62743C8.38734 2.73453 8.31327 2.84512 8.23991 2.95924C7.00043 4.88732 5.95609 7.82922 5.95609 12C5.95609 16.1708 7.00043 19.1127 8.23991 21.0408C8.31327 21.1549 8.38734 21.2655 8.46193 21.3726C9.54964 21.7782 10.727 22 11.9561 22L11.978 22L12 22C13.2291 22 14.4064 21.7782 15.4942 21.3726C15.5687 21.2655 15.6428 21.1549 15.7162 21.0408C16.9557 19.1127 18 16.1708 18 12C18 7.82922 16.9557 4.88732 15.7162 2.95924C15.6428 2.84512 15.5687 2.73453 15.4942 2.62743C14.4064 2.22175 13.2291 2 12 2L11.978 2.00005Z" fill="#121319"/>
<path fill-rule="evenodd" clip-rule="evenodd" d="M21.9506 13C21.9833 12.6711 22 12.3375 22 12C22 11.6625 21.9833 11.3289 21.9506 11H2.04938C2.01672 11.3289 2 11.6625 2 12C2 12.3375 2.01672 12.6711 2.04938 13H21.9506Z" fill="#121319"/>
</svg>
