<svg width="24" height="24" viewBox="0 0 24 24" fill="none" xmlns="http://www.w3.org/2000/svg">
<path opacity="0.25" fill-rule="evenodd" clip-rule="evenodd" d="M5 9C5.55228 9 6 9.44771 6 10V11C6 14.3137 8.68629 17 12 17C15.3137 17 18 14.3137 18 11V10C18 9.44771 18.4477 9 19 9C19.5523 9 20 9.44771 20 10V11C20 15.0796 16.9463 18.446 13 18.9381V22H16C16.5523 22 17 22.4477 17 23C17 23.5523 16.5523 24 16 24H13H11H8C7.44772 24 7 23.5523 7 23C7 22.4477 7.44772 22 8 22H11V18.9381C7.05369 18.446 4 15.0796 4 11V10C4 9.44771 4.44772 9 5 9Z" fill="#191213"/>
<path d="M8 4C8 1.79086 9.79086 0 12 0C14.2091 0 16 1.79086 16 4V11C16 13.2091 14.2091 15 12 15C9.79086 15 8 13.2091 8 11V4Z" fill="#121319"/>
</svg>
