<svg width="24" height="24" viewBox="0 0 24 24" fill="none" xmlns="http://www.w3.org/2000/svg">
<path opacity="0.25" d="M3 4C3 2.34315 4.34315 1 6 1H15.7574C16.553 1 17.3161 1.31607 17.8787 1.87868L20.1213 4.12132C20.6839 4.68393 21 5.44699 21 6.24264V20C21 21.6569 19.6569 23 18 23H6C4.34315 23 3 21.6569 3 20V4Z" fill="#12131A"/>
<path d="M15 1.89181C15 1.39927 15.3993 1 15.8918 1V1C16.6014 1 17.2819 1.28187 17.7836 1.78361L20.2164 4.21639C20.7181 4.71813 21 5.39863 21 6.10819V6.10819C21 6.60073 20.6007 7 20.1082 7H16C15.4477 7 15 6.55228 15 6V1.89181Z" fill="#12131A"/>
<path d="M11.5351 9.17546C11.7018 8.75401 12.2982 8.75401 12.465 9.17546L13.2766 11.2272C13.3464 11.4038 13.5103 11.5256 13.6995 11.5415L15.8494 11.7227C16.2857 11.7595 16.4673 12.2995 16.142 12.5925L14.4679 14.1004C14.3333 14.2216 14.2748 14.406 14.3149 14.5825L14.8198 16.8084C14.9189 17.2449 14.4386 17.5816 14.062 17.3398L12.2702 16.189C12.1056 16.0833 11.8944 16.0833 11.7298 16.189L9.93797 17.3398C9.56142 17.5816 9.08116 17.2449 9.18017 16.8084L9.68514 14.5825C9.7252 14.406 9.66668 14.2216 9.53216 14.1004L7.85798 12.5925C7.53267 12.2995 7.71434 11.7595 8.1506 11.7227L10.3005 11.5415C10.4897 11.5256 10.6536 11.4038 10.7235 11.2272L11.5351 9.17546Z" fill="#12131A"/>
</svg>
