<svg width="24" height="24" viewBox="0 0 24 24" fill="none" xmlns="http://www.w3.org/2000/svg">
<path opacity="0.25" d="M3 4C3 2.34315 4.34315 1 6 1H15.7574C16.553 1 17.3161 1.31607 17.8787 1.87868L20.1213 4.12132C20.6839 4.68393 21 5.44699 21 6.24264V20C21 21.6569 19.6569 23 18 23H6C4.34315 23 3 21.6569 3 20V4Z" fill="#12131A"/>
<path d="M15 1.89181C15 1.39927 15.3993 1 15.8918 1V1C16.6014 1 17.2819 1.28187 17.7836 1.78361L20.2164 4.21639C20.7181 4.71813 21 5.39863 21 6.10819V6.10819C21 6.60073 20.6007 7 20.1082 7H16C15.4477 7 15 6.55228 15 6V1.89181Z" fill="#12131A"/>
<path fill-rule="evenodd" clip-rule="evenodd" d="M16.6001 11.2001C17.0419 11.5314 17.1315 12.1582 16.8001 12.6001L13.8001 16.6001C13.4817 17.0246 12.887 17.1265 12.4454 16.8321L10.2775 15.3868L8.83216 17.5548C8.5258 18.0143 7.90493 18.1385 7.44541 17.8321C6.98588 17.5258 6.8617 16.9049 7.16806 16.4454L9.16806 13.4454C9.47441 12.9858 10.0953 12.8617 10.5548 13.168L12.7677 14.6433L15.2001 11.4001C15.5315 10.9582 16.1583 10.8687 16.6001 11.2001Z" fill="#12131A"/>
</svg>
