<svg width="24" height="24" viewBox="0 0 24 24" fill="none" xmlns="http://www.w3.org/2000/svg">
<path opacity="0.25" d="M3 4C3 2.34315 4.34315 1 6 1H15.7574C16.553 1 17.3161 1.31607 17.8787 1.87868L20.1213 4.12132C20.6839 4.68393 21 5.44699 21 6.24264V20C21 21.6569 19.6569 23 18 23H6C4.34315 23 3 21.6569 3 20V4Z" fill="#12131A"/>
<path d="M15 1.89181C15 1.39927 15.3993 1 15.8918 1V1C16.6014 1 17.2819 1.28187 17.7836 1.78361L20.2164 4.21639C20.7181 4.71813 21 5.39863 21 6.10819V6.10819C21 6.60073 20.6007 7 20.1082 7H16C15.4477 7 15 6.55228 15 6V1.89181Z" fill="#12131A"/>
<path d="M8.5 1C8.22386 1 8 1.22386 8 1.5V2.5C8 2.77614 8.22386 3 8.5 3H9.5C9.77614 3 10 2.77614 10 2.5V1.5C10 1.22386 9.77614 1 9.5 1H8.5Z" fill="#12131A"/>
<path d="M8.5 5C8.22386 5 8 5.22386 8 5.5V6.5C8 6.77614 8.22386 7 8.5 7H9.5C9.77614 7 10 6.77614 10 6.5V5.5C10 5.22386 9.77614 5 9.5 5H8.5Z" fill="#12131A"/>
<path d="M10 7.5C10 7.22386 10.2239 7 10.5 7H11.5C11.7761 7 12 7.22386 12 7.5V8.5C12 8.77614 11.7761 9 11.5 9H10.5C10.2239 9 10 8.77614 10 8.5V7.5Z" fill="#12131A"/>
<path d="M8 9.5C8 9.22386 8.22386 9 8.5 9H9.5C9.77614 9 10 9.22386 10 9.5V10.5C10 10.7761 9.77614 11 9.5 11H8.5C8.22386 11 8 10.7761 8 10.5V9.5Z" fill="#12131A"/>
<path d="M10 11.5C10 11.2239 10.2239 11 10.5 11H11.5C11.7761 11 12 11.2239 12 11.5V12.5C12 12.7761 11.7761 13 11.5 13H10.5C10.2239 13 10 12.7761 10 12.5V11.5Z" fill="#12131A"/>
<path d="M8 13.5C8 13.2239 8.22386 13 8.5 13H9.5C9.77614 13 10 13.2239 10 13.5V14.5C10 14.7761 9.77614 15 9.5 15H8.5C8.22386 15 8 14.7761 8 14.5V13.5Z" fill="#12131A"/>
<path d="M10 15.5C10 15.2239 10.2239 15 10.5 15H11.5C11.7761 15 12 15.2239 12 15.5V16.5C12 16.7761 11.7761 17 11.5 17H10.5C10.2239 17 10 16.7761 10 16.5V15.5Z" fill="#12131A"/>
<path d="M8 17.5C8 17.2239 8.22386 17 8.5 17H9.5C9.77614 17 10 17.2239 10 17.5V18.5C10 18.7761 9.77614 19 9.5 19H8.5C8.22386 19 8 18.7761 8 18.5V17.5Z" fill="#12131A"/>
<path d="M10.5 3C10.2239 3 10 3.22386 10 3.5V4.5C10 4.77614 10.2239 5 10.5 5H11.5C11.7761 5 12 4.77614 12 4.5V3.5C12 3.22386 11.7761 3 11.5 3H10.5Z" fill="#12131A"/>
<path d="M8 21.5C8 21.2239 8.22386 21 8.5 21H9.5C9.77614 21 10 21.2239 10 21.5V22.5C10 22.7761 9.77614 23 9.5 23H8.5C8.22386 23 8 22.7761 8 22.5V21.5Z" fill="#12131A"/>
<path d="M10.5 19C10.2239 19 10 19.2239 10 19.5V20.5C10 20.7761 10.2239 21 10.5 21H11.5C11.7761 21 12 20.7761 12 20.5V19.5C12 19.2239 11.7761 19 11.5 19H10.5Z" fill="#12131A"/>
</svg>
