<svg width="24" height="24" viewBox="0 0 24 24" fill="none" xmlns="http://www.w3.org/2000/svg">
<path opacity="0.25" d="M3 4C3 2.34315 4.34315 1 6 1H15.7574C16.553 1 17.3161 1.31607 17.8787 1.87868L20.1213 4.12132C20.6839 4.68393 21 5.44699 21 6.24264V20C21 21.6569 19.6569 23 18 23H6C4.34315 23 3 21.6569 3 20V4Z" fill="#12131A"/>
<path d="M15 1.89181C15 1.39927 15.3993 1 15.8918 1V1C16.6014 1 17.2819 1.28187 17.7836 1.78361L20.2164 4.21639C20.7181 4.71813 21 5.39863 21 6.10819V6.10819C21 6.60073 20.6007 7 20.1082 7H16C15.4477 7 15 6.55228 15 6V1.89181Z" fill="#12131A"/>
<path d="M12.3828 17.9241C12.5007 17.8753 12.6112 17.803 12.7071 17.7071L15.7071 14.7071C16.0976 14.3166 16.0976 13.6834 15.7071 13.2929C15.3166 12.9024 14.6834 12.9024 14.2929 13.2929L13 14.5858V10C13 9.44772 12.5523 9 12 9C11.4477 9 11 9.44772 11 10V14.5858L9.70711 13.2929C9.31658 12.9024 8.68342 12.9024 8.29289 13.2929C7.90237 13.6834 7.90237 14.3166 8.29289 14.7071L11.2929 17.7071C11.5875 18.0018 12.0203 18.0741 12.3828 17.9241Z" fill="#12131A"/>
</svg>
