<svg width="24" height="24" viewBox="0 0 24 24" fill="none" xmlns="http://www.w3.org/2000/svg">
<path opacity="0.25" fill-rule="evenodd" clip-rule="evenodd" d="M2 6C2 5.44772 2.44772 5 3 5H16C17.6569 5 19 6.34315 19 8V21C19 21.5523 18.5523 22 18 22C17.4477 22 17 21.5523 17 21V8C17 7.44772 16.5523 7 16 7H3C2.44772 7 2 6.55228 2 6Z" fill="#12131A"/>
<path d="M9 10C9 9.44772 9.44772 9 10 9H14C14.5523 9 15 9.44772 15 10V14C15 14.5523 14.5523 15 14 15H10C9.44772 15 9 14.5523 9 14V10Z" fill="#12131A"/>
<path fill-rule="evenodd" clip-rule="evenodd" d="M22 18C22 18.5523 21.5523 19 21 19L8 19C6.34315 19 5 17.6569 5 16L5 3C5 2.44771 5.44772 2 6 2C6.55229 2 7 2.44771 7 3L7 16C7 16.5523 7.44772 17 8 17L21 17C21.5523 17 22 17.4477 22 18Z" fill="#12131A"/>
</svg>
