<svg width="24" height="24" viewBox="0 0 24 24" fill="none" xmlns="http://www.w3.org/2000/svg">
<path opacity="0.25" d="M6 20C6 19.4477 6.44772 19 7 19H21C21.5523 19 22 19.4477 22 20V20C22 20.5523 21.5523 21 21 21H7C6.44772 21 6 20.5523 6 20V20Z" fill="#12131A"/>
<path d="M14.9999 15L7.99994 8L1.41416 14.5858C0.633108 15.3668 0.633106 16.6332 1.41415 17.4142L4.12126 20.1213C4.68387 20.6839 5.44693 21 6.24258 21H8.58573C8.85095 21 9.1053 20.8946 9.29284 20.7071L14.9999 15Z" fill="#12131A"/>
<path opacity="0.25" d="M20.5858 6.58597L16.4142 2.4144C15.6332 1.63335 14.3668 1.63335 13.5858 2.4144L8 8.00019L15 15.0002L20.5858 9.4144C21.3668 8.63335 21.3668 7.36702 20.5858 6.58597Z" fill="#12131A"/>
</svg>
