<svg width="24" height="24" viewBox="0 0 24 24" fill="none" xmlns="http://www.w3.org/2000/svg">
<path opacity="0.25" d="M3 11.0001H10V2.55566L12 3.00011V11.0001L15 11.0001V3.66678L17 4.11122V11.0001H21V13.0001H17V19.889L15 20.3334V13.0001L12 13.0001V21.0001L10 21.4446V13.0001H3V11.0001Z" fill="#12131A"/>
<path fill-rule="evenodd" clip-rule="evenodd" d="M18.2169 6.43047L6.21693 3.7638C5.59242 3.62502 5 4.10024 5 4.73999V19.2603C5 19.9 5.59242 20.3753 6.21693 20.2365L18.2169 17.5698C18.6745 17.4681 19 17.0623 19 16.5936V7.40665C19 6.93796 18.6745 6.53214 18.2169 6.43047ZM6.65079 1.81143C4.77725 1.39508 3 2.82074 3 4.73999V19.2603C3 21.1795 4.77725 22.6052 6.65079 22.1889L18.6508 19.5222C20.0234 19.2172 21 17.9997 21 16.5936V7.40665C21 6.00056 20.0234 4.78312 18.6508 4.47809L6.65079 1.81143Z" fill="#12131A"/>
</svg>
