<svg width="24" height="24" viewBox="0 0 24 24" fill="none" xmlns="http://www.w3.org/2000/svg">
<path opacity="0.25" d="M17 11L10.9904 17.0096C10.3333 17.6666 9.58796 18.2288 8.77572 18.6801L4.05957 21.3002C3.1804 21.7886 2.21135 20.8195 2.69977 19.9404L5.31986 15.2242C5.7711 14.412 6.33334 13.6666 6.99036 13.0096L13 7L17 11Z" fill="#12131A"/>
<path d="M14.4998 5.49997L17 2.99981C18.1046 1.89524 19.8954 1.89524 21 2.99981C22.1046 4.10438 22.1046 5.89525 21 6.99982L18.4998 9.49997L19.25 10.2501C19.6642 10.6643 19.6642 11.3359 19.25 11.7501C18.8358 12.1643 18.1642 12.1643 17.75 11.7501L12.25 6.25011C11.8358 5.8359 11.8358 5.16433 12.25 4.75011C12.6642 4.3359 13.3358 4.3359 13.75 4.75011L14.4998 5.49997Z" fill="#12131A"/>
</svg>
