<svg width="24" height="24" viewBox="0 0 24 24" fill="none" xmlns="http://www.w3.org/2000/svg">
<path opacity="0.25" d="M4 22H20C21.1046 22 22 21.1046 22 20V4C22 2.89543 21.1046 2 20 2H4C2.89543 2 2 2.89543 2 4V20C2 21.1046 2.89543 22 4 22Z" fill="#12131A"/>
<path fill-rule="evenodd" clip-rule="evenodd" d="M18 9C18 9.55229 18.4477 10 19 10C19.5523 10 20 9.55229 20 9V5C20 4.44772 19.5523 4 19 4H15C14.4477 4 14 4.44772 14 5C14 5.55228 14.4477 6 15 6L16.5858 6L10 12.5858V11C10 10.4477 9.55228 10 9 10C8.44772 10 8 10.4477 8 11V15C8 15.5523 8.44772 16 9 16H13C13.5523 16 14 15.5523 14 15C14 14.4477 13.5523 14 13 14H11.4142L18 7.41424V9Z" fill="#12131A"/>
</svg>
