<svg width="24" height="24" viewBox="0 0 24 24" fill="none" xmlns="http://www.w3.org/2000/svg">
<path opacity="0.25" fill-rule="evenodd" clip-rule="evenodd" d="M2 4.32823V19.9998C2 21.1044 2.89543 21.9998 4 21.9998H19.6716C21.4534 21.9998 22.3457 19.8455 21.0858 18.5856L5.41421 2.91401C4.15428 1.65408 2 2.54642 2 4.32823ZM8 13.4141V14.9999C8 15.5522 8.44772 15.9999 9 15.9999H10.5858C11.4767 15.9999 11.9229 14.9228 11.2929 14.2928L9.70711 12.707C9.07714 12.077 8 12.5232 8 13.4141Z" fill="#12131A"/>
<path d="M2.5 8C2.22386 8 2 8.22386 2 8.5V9.5C2 9.77614 2.22386 10 2.5 10H4C4.55228 10 5 9.55228 5 9C5 8.44772 4.55228 8 4 8H2.5Z" fill="#12131A"/>
<path d="M2.5 14C2.22386 14 2 14.2239 2 14.5V15.5C2 15.7761 2.22386 16 2.5 16H4C4.55228 16 5 15.5523 5 15C5 14.4477 4.55228 14 4 14H2.5Z" fill="#12131A"/>
<path d="M8.5 22C8.22386 22 8 21.7761 8 21.5V20C8 19.4477 8.44771 19 9 19C9.55229 19 10 19.4477 10 20V21.5C10 21.7761 9.77614 22 9.5 22H8.5Z" fill="#12131A"/>
<path d="M14 21.5C14 21.7761 14.2239 22 14.5 22H15.5C15.7761 22 16 21.7761 16 21.5V20C16 19.4477 15.5523 19 15 19C14.4477 19 14 19.4477 14 20V21.5Z" fill="#12131A"/>
</svg>
