<svg width="24" height="24" viewBox="0 0 24 24" fill="none" xmlns="http://www.w3.org/2000/svg">
<path opacity="0.25" fill-rule="evenodd" clip-rule="evenodd" d="M14.9056 16.3199C13.551 17.3729 11.8487 18 10 18C5.58172 18 2 14.4183 2 10C2 5.58172 5.58172 2 10 2C14.4183 2 18 5.58172 18 10C18 11.8487 17.3729 13.551 16.3199 14.9056L21.7071 20.2929C22.0976 20.6834 22.0976 21.3166 21.7071 21.7071C21.3166 22.0976 20.6834 22.0976 20.2929 21.7071L14.9056 16.3199Z" fill="#12131A"/>
<path d="M13 9C13.5523 9 14 9.44772 14 10V10C14 10.5523 13.5523 11 13 11L7 11C6.44772 11 6 10.5523 6 10V10C6 9.44771 6.44772 9 7 9L13 9Z" fill="#12131A"/>
</svg>
