<svg width="24" height="24" viewBox="0 0 24 24" fill="none" xmlns="http://www.w3.org/2000/svg">
<path opacity="0.25" d="M2 9C1.44772 9 1 9.44772 1 10C1 10.5523 1.44772 11 2 11H2.4L3.35689 15.7845C3.59419 16.9709 4.34197 17.9464 5.34404 18.501L5.02985 19.7577C4.8959 20.2935 5.22166 20.8364 5.75746 20.9704C6.29325 21.1043 6.83619 20.7786 6.97013 20.2428L7.28083 19H16.7192L17.0299 20.2428C17.1638 20.7786 17.7067 21.1043 18.2425 20.9704C18.7783 20.8364 19.1041 20.2935 18.9701 19.7577L18.656 18.501C19.658 17.9464 20.4058 16.9709 20.6431 15.7845L21.6 11H22C22.5523 11 23 10.5523 23 10C23 9.44772 22.5523 9 22 9H2Z" fill="#12131A"/>
<path d="M7 5C7.55228 5 8 4.55228 8 4C8 3.44772 7.55228 3 7 3C6.44772 3 6 3.44772 6 4C6 4.55228 6.44772 5 7 5Z" fill="#12131A"/>
<path d="M19.9588 8.50209C20.0043 8.77446 19.7761 9 19.4999 9H10.6616C10.3455 9 10.1074 8.70652 10.2439 8.42143C10.6466 7.58066 11.5055 7 12.4999 7C13.1946 7 13.8231 7.28335 14.2762 7.74078C14.7522 6.71297 15.7928 6 16.9999 6C18.4872 6 19.7216 7.08221 19.9588 8.50209Z" fill="#12131A"/>
</svg>
