<svg width="24" height="24" viewBox="0 0 24 24" fill="none" xmlns="http://www.w3.org/2000/svg">
<path opacity="0.25" d="M11.2964 9.80916C11.6768 9.37172 12.3482 9.34833 12.7581 9.75823L14.2418 11.2419C14.6517 11.6518 14.6283 12.3232 14.1909 12.7036L4.30034 21.3041C3.84957 21.6961 3.17236 21.6725 2.74996 21.2501C2.32756 20.8277 2.30397 20.1505 2.69595 19.6997L11.2964 9.80916Z" fill="#12131A"/>
<path d="M13.3726 3.50941C13.4523 3.19045 13.6834 2.93101 14.0011 2.84636C15.1524 2.53959 18.0381 2.03809 20 3.99999C21.9619 5.96189 21.4604 8.84757 21.1536 9.9989C21.0689 10.3166 20.8095 10.5476 20.4905 10.6273L16.0985 11.7253C15.417 11.8957 14.696 11.696 14.1992 11.1993L12.8007 9.80071C12.3039 9.30395 12.1042 8.58297 12.2746 7.90142L13.3726 3.50941Z" fill="#12131A"/>
</svg>
