<svg width="24" height="24" viewBox="0 0 24 24" fill="none" xmlns="http://www.w3.org/2000/svg">
<path opacity="0.25" d="M2 13C2 11.8954 2.89543 11 4 11H20C21.1046 11 22 11.8954 22 13V17C22 19.7614 19.7614 22 17 22H7C4.23858 22 2 19.7614 2 17V13Z" fill="#12131A"/>
<path fill-rule="evenodd" clip-rule="evenodd" d="M4.20909 10.3515C4.28631 10.7529 4.66748 11 5.07625 11H18.8628C19.2682 11 19.6419 10.7569 19.7502 10.3662C20.5124 7.61633 19.0865 4.57696 16.2229 3.53566L12.1733 2.06307C12.089 2.03242 11.9999 2.09485 11.9999 2.18455V4.3795C11.9999 5.27448 11.2744 6 10.3794 6H7.81014C5.37111 6 3.80234 8.2371 4.20909 10.3515Z" fill="#12131A"/>
</svg>
