<svg width="24" height="24" viewBox="0 0 24 24" fill="none" xmlns="http://www.w3.org/2000/svg">
<path opacity="0.25" d="M11.2929 9.7072C11.6834 9.31668 12.3166 9.31668 12.7071 9.7072L14.2929 11.293C14.6834 11.6835 14.6834 12.3167 14.2929 12.7072L8.48318 18.5169C8.16209 18.838 7.80559 19.1216 7.42053 19.3623L3.67465 21.7034C2.77519 22.2656 1.73449 21.2249 2.29665 20.3254L4.63783 16.5796C4.87849 16.1945 5.16209 15.838 5.48318 15.5169L11.2929 9.7072Z" fill="#12131A"/>
<path d="M22 20.0001C22 21.1047 21.1046 22.0001 20 22.0001C18.8954 22.0001 18 21.1047 18 20.0001C18 18.8592 19.1571 17.7183 19.711 17.2374C19.8788 17.0918 20.1212 17.0918 20.289 17.2374C20.8429 17.7183 22 18.8592 22 20.0001Z" fill="#12131A"/>
<path d="M15.4384 5.56185L18 3.00023C18.8284 2.1718 20.1716 2.1718 21 3.00023C21.8284 3.82865 21.8284 5.1718 21 6.00023L18.4383 8.56188C18.8402 9.31789 18.7226 10.2775 18.0857 10.9144L16.4142 12.586C15.6331 13.367 14.3668 13.367 13.5857 12.586L11.4142 10.4144C10.6331 9.63335 10.6331 8.36702 11.4142 7.58597L13.0857 5.9144C13.7227 5.27746 14.6823 5.15994 15.4384 5.56185Z" fill="#12131A"/>
</svg>
