<svg width="24" height="24" viewBox="0 0 24 24" fill="none" xmlns="http://www.w3.org/2000/svg">
<path opacity="0.25" d="M7.87868 20.8787L7 20L20.5 6.5L21.3787 7.37868C22.5503 8.55025 22.5502 10.4498 21.3787 11.6213L12.1213 20.8787C10.9497 22.0503 9.05025 22.0503 7.87868 20.8787Z" fill="#12131A"/>
<path d="M19.0001 8.00011L14.7501 3.75011C14.3359 3.3359 14.3359 2.66433 14.7501 2.25011C15.1643 1.8359 15.8359 1.8359 16.2501 2.25011L20.5001 6.50011L19.0001 8.00011Z" fill="#12131A"/>
<path d="M12.7501 7.75011L16.0001 11.0001L17.5001 9.50011L14.2501 6.25011C13.8359 5.8359 13.1643 5.8359 12.7501 6.25011C12.3359 6.66433 12.3359 7.3359 12.7501 7.75011Z" fill="#12131A"/>
<path d="M13.0001 14.0001L10.2501 11.2501C9.8359 10.8359 9.8359 10.1643 10.2501 9.75011C10.6643 9.3359 11.3359 9.3359 11.7501 9.75011L14.5001 12.5001L13.0001 14.0001Z" fill="#12131A"/>
<path d="M6.75011 13.7501L10.0001 17.0001L11.5001 15.5001L8.25011 12.2501C7.8359 11.8359 7.16433 11.8359 6.75011 12.2501C6.3359 12.6643 6.3359 13.3359 6.75011 13.7501Z" fill="#12131A"/>
<path d="M2.75011 15.7501L7.00011 20.0001L8.50011 18.5001L4.25011 14.2501C3.8359 13.8359 3.16433 13.8359 2.75011 14.2501C2.3359 14.6643 2.3359 15.3359 2.75011 15.7501Z" fill="#12131A"/>
</svg>
