<svg width="24" height="24" viewBox="0 0 24 24" fill="none" xmlns="http://www.w3.org/2000/svg">
<path d="M3.26208 12.3105L4.55824 18.7913C4.81509 20.0756 5.94272 21 7.25243 21C8.76986 21 9.99998 19.7699 9.99998 18.2525V12.7727L6.94496 13.1893C5.58726 13.3745 4.29375 13.024 3.26208 12.3105Z" fill="#12131A"/>
<path opacity="0.25" d="M1 7.99997C1 4.82621 3.80033 2.38183 6.94498 2.81065L21.2702 4.76409C22.2612 4.89922 23 5.74561 23 6.74575V9.25419C23 10.2543 22.2612 11.1007 21.2702 11.2358L6.94498 13.1893C3.80032 13.6181 1 11.1737 1 7.99997V7.99997Z" fill="#12131A"/>
<path d="M19 11.5453L17 11.818V4.18164L19 4.45437V11.5453Z" fill="#12131A"/>
</svg>
