<svg width="24" height="24" viewBox="0 0 24 24" fill="none" xmlns="http://www.w3.org/2000/svg">
<path d="M16 10V17C15.4477 17 15 17.4477 15 18C15 18.5523 15.4477 19 16 19V20C15.4477 20 15 20.4477 15 21C15 21.5523 15.4477 22 16 22C16 22.5523 16.4477 23 17 23C17.5523 23 18 22.5523 18 22C18.5523 22 19 21.5523 19 21C19 20.4477 18.5523 20 18 20V19C18.5523 19 19 18.5523 19 18C19 17.4477 18.5523 17 18 17V10H16Z" fill="#12131A"/>
<path opacity="0.25" d="M19.8766 8.88957C19.9424 9.48193 19.4787 10 18.8827 10L15.1172 10C14.5212 10 14.0575 9.48193 14.1233 8.88957L14.8023 2.77914C14.9148 1.76627 15.7709 1 16.79 1L17.2099 1C18.229 1 19.0851 1.76627 19.1976 2.77914L19.8766 8.88957Z" fill="#12131A"/>
<path opacity="0.25" d="M6 5C5.44772 5 5 5.44772 5 6V7.34868C4.44013 7.73236 4.087 8.39256 4.13276 9.12476L4.88276 21.1248C4.94864 22.1788 5.82274 23 6.87886 23H7.12106C8.17719 23 9.05128 22.1788 9.11716 21.1248L9.86716 9.12476C9.91292 8.39259 9.55983 7.73242 9 7.34874V6C9 5.44772 8.55228 5 8 5H6Z" fill="#12131A"/>
</svg>
