<svg width="24" height="24" viewBox="0 0 24 24" fill="none" xmlns="http://www.w3.org/2000/svg">
<path opacity="0.25" d="M4.65228 14.5657C4.30803 12.1559 6.17788 10 8.61208 10H15.388C17.8222 10 19.692 12.156 19.3478 14.5657L18.368 21.4243C18.1569 22.9022 16.8911 24 15.3982 24H8.60193C7.10898 24 5.84321 22.9022 5.63208 21.4243L4.65228 14.5657Z" fill="#12131A"/>
<path d="M8.72994 2.70149C8.8833 1.16789 10.1738 0 11.7151 0H12.2851C13.8264 0 15.1169 1.16788 15.2702 2.70149L15.8901 8.90049C15.949 9.48918 15.4867 10 14.8951 10H9.10508C8.51346 10 8.05117 9.48918 8.11004 8.9005L8.72994 2.70149Z" fill="#12131A"/>
</svg>
