<svg width="24" height="24" viewBox="0 0 24 24" fill="none" xmlns="http://www.w3.org/2000/svg">
<path opacity="0.25" d="M1 5C1 3.89543 1.89543 3 3 3H21C22.1046 3 23 3.89543 23 5V19C23 20.1046 22.1046 21 21 21H3C1.89543 21 1 20.1046 1 19V5Z" fill="#12131A"/>
<path d="M5 7C4.44772 7 4 7.44772 4 8V16C4 16.5523 4.44772 17 5 17C5.55228 17 6 16.5523 6 16V8C6 7.44772 5.55228 7 5 7Z" fill="#12131A"/>
<path d="M14 9C14 10.1046 13.1046 11 12 11C10.8954 11 10 10.1046 10 9C10 7.89543 10.8954 7 12 7C13.1046 7 14 7.89543 14 9Z" fill="#12131A"/>
<path d="M20 9C20 10.1046 19.1046 11 18 11C16.8954 11 16 10.1046 16 9C16 7.89543 16.8954 7 18 7C19.1046 7 20 7.89543 20 9Z" fill="#12131A"/>
<path d="M18 17C19.1046 17 20 16.1046 20 15C20 13.8954 19.1046 13 18 13C16.8954 13 16 13.8954 16 15C16 16.1046 16.8954 17 18 17Z" fill="#12131A"/>
<path d="M14 15C14 16.1046 13.1046 17 12 17C10.8954 17 10 16.1046 10 15C10 13.8954 10.8954 13 12 13C13.1046 13 14 13.8954 14 15Z" fill="#12131A"/>
</svg>
