<svg width="24" height="24" viewBox="0 0 24 24" fill="none" xmlns="http://www.w3.org/2000/svg">
<path opacity="0.25" d="M18.5353 22C19.0227 22 19.5009 21.829 19.8344 21.4736C21.1774 20.0426 22 18.1174 22 16C22 11.5817 18.4183 8 14 8C9.58172 8 6 11.5817 6 16C6 18.1174 6.82257 20.0426 8.16559 21.4736C8.49914 21.829 8.97732 22 9.46473 22H18.5353Z" fill="#12131A"/>
<path d="M2 5C2 6.65685 3.4536 8 5 8C6.83911 8 8.30241 6.87256 9.1595 6H12.0001V7C12.0001 7.55229 12.4478 8 13.0001 8H15.0001C15.5524 8 16.0001 7.55229 16.0001 7V6H17.0001C17.5524 6 18.0001 5.55228 18.0001 5C18.0001 4.44772 17.5524 4 17.0001 4H16.0001C16.0001 2.89543 15.1047 2 14.0001 2C12.8955 2 12.0001 2.89543 12.0001 4L9.1595 4C8.30241 3.12744 6.83911 2 5 2C3.4536 2 2 3.34315 2 5Z" fill="#12131A"/>
</svg>
