<svg width="24" height="24" viewBox="0 0 24 24" fill="none" xmlns="http://www.w3.org/2000/svg">
<path opacity="0.25" fill-rule="evenodd" clip-rule="evenodd" d="M21.6678 18.0007L15.2667 13.1999C15.0936 13.0701 14.883 12.9999 14.6667 12.9999H12.4141L8.44618 9.03197C8.79807 8.43645 9 7.74181 9 7C9 4.79086 7.20914 3 5 3C2.79086 3 1 4.79086 1 7C1 9.20914 2.79086 11 5 11C5.74181 11 6.43645 10.7981 7.03197 10.4462L9.93269 13.3469L13.8236 17.285C15.7924 19.2777 18.6668 20.0832 21.3844 19.4038C22.0319 19.2419 22.2017 18.4012 21.6678 18.0007ZM5 5C6.10457 5 7 5.89543 7 7C7 8.10457 6.10457 9 5 9C3.89543 9 3 8.10457 3 7C3 5.89543 3.89543 5 5 5Z" fill="#12131A"/>
<path fill-rule="evenodd" clip-rule="evenodd" d="M21.6678 5.99927L15.2667 10.8001C15.0936 10.9299 14.883 11.0001 14.6667 11.0001H12.4141L8.44618 14.968C8.79807 15.5635 9 16.2582 9 17C9 19.2091 7.20914 21 5 21C2.79086 21 1 19.2091 1 17C1 14.7909 2.79086 13 5 13C5.74181 13 6.43645 13.2019 7.03197 13.5538L9.93269 10.6531L13.8236 6.71498C15.7924 4.7223 18.6668 3.91681 21.3844 4.59621C22.0319 4.75808 22.2017 5.59882 21.6678 5.99927ZM5 19C6.10457 19 7 18.1046 7 17C7 15.8954 6.10457 15 5 15C3.89543 15 3 15.8954 3 17C3 18.1046 3.89543 19 5 19Z" fill="#12131A"/>
</svg>
