<svg width="24" height="24" viewBox="0 0 24 24" fill="none" xmlns="http://www.w3.org/2000/svg">
<path d="M9 19C9 19.5523 8.55229 20 8 20C7.44772 20 7 19.5523 7 19C7 18.4477 7.44772 18 8 18C8.55229 18 9 18.4477 9 19Z" fill="#12131A"/>
<path d="M7 23C7 23.5523 6.55228 24 6 24C5.44772 24 5 23.5523 5 23C5 22.4477 5.44772 22 6 22C6.55228 22 7 22.4477 7 23Z" fill="#12131A"/>
<path d="M12 20C12.5523 20 13 19.5523 13 19C13 18.4477 12.5523 18 12 18C11.4477 18 11 18.4477 11 19C11 19.5523 11.4477 20 12 20Z" fill="#12131A"/>
<path d="M11 23C11 23.5523 10.5523 24 10 24C9.44771 24 9 23.5523 9 23C9 22.4477 9.44771 22 10 22C10.5523 22 11 22.4477 11 23Z" fill="#12131A"/>
<path d="M16 20C16.5523 20 17 19.5523 17 19C17 18.4477 16.5523 18 16 18C15.4477 18 15 18.4477 15 19C15 19.5523 15.4477 20 16 20Z" fill="#12131A"/>
<path d="M15 23C15 23.5523 14.5523 24 14 24C13.4477 24 13 23.5523 13 23C13 22.4477 13.4477 22 14 22C14.5523 22 15 22.4477 15 23Z" fill="#12131A"/>
<path d="M18 24C18.5523 24 19 23.5523 19 23C19 22.4477 18.5523 22 18 22C17.4477 22 17 22.4477 17 23C17 23.5523 17.4477 24 18 24Z" fill="#12131A"/>
<path opacity="0.25" d="M5 0C4.44772 0 4 0.447715 4 1C4 1.55228 4.44772 2 5 2H10C10.5523 2 11 2.44772 11 3V6.06189C7.05369 6.55399 4 9.92038 4 14C4 14.5523 4.44772 15 5 15H19C19.5523 15 20 14.5523 20 14C20 9.92038 16.9463 6.55399 13 6.06189V3C13 1.34315 11.6569 0 10 0H5Z" fill="#12131A"/>
</svg>
