<svg width="24" height="24" viewBox="0 0 24 24" fill="none" xmlns="http://www.w3.org/2000/svg">
<path opacity="0.25" d="M2 13C2 11.3431 3.34315 10 5 10H19C20.6569 10 22 11.3431 22 13V19C22 20.6569 20.6569 22 19 22H5C3.34315 22 2 20.6569 2 19V13Z" fill="#12131A"/>
<path d="M11 4C11.5523 4 12 3.55228 12 3C12 2.44772 11.5523 2 11 2C10.4477 2 10 2.44772 10 3C10 3.55228 10.4477 4 11 4Z" fill="#12131A"/>
<path d="M19 6C19 7.10457 18.1046 8 17 8C15.8954 8 15 7.10457 15 6C15 4.89543 15.8954 4 17 4C18.1046 4 19 4.89543 19 6Z" fill="#12131A"/>
<path d="M11 10C11 11.1046 10.1046 12 9 12C7.89543 12 7 11.1046 7 10C7 8.89543 7.89543 8 9 8C10.1046 8 11 8.89543 11 10Z" fill="#12131A"/>
</svg>
