<svg width="24" height="24" viewBox="0 0 24 24" fill="none" xmlns="http://www.w3.org/2000/svg">
<path d="M8 19C8 18.4477 8.44772 18 9 18H15C15.5523 18 16 18.4477 16 19V22C16 23.1046 15.1046 24 14 24H10C8.89543 24 8 23.1046 8 22V19Z" fill="#12131A"/>
<path opacity="0.25" d="M4.24672 2.22086C4.11509 1.03613 5.04247 0 6.23449 0H17.7654C18.9575 0 19.8848 1.03613 19.7532 2.22086L18.1976 16.2209C18.0851 17.2337 17.229 18 16.2099 18H7.79005C6.77095 18 5.91482 17.2337 5.80228 16.2209L4.24672 2.22086Z" fill="#12131A"/>
<path d="M4.66668 6L4.44446 4H19.5556L19.3333 6H4.66668Z" fill="#12131A"/>
</svg>
