<svg width="24" height="24" viewBox="0 0 24 24" fill="none" xmlns="http://www.w3.org/2000/svg">
<g clip-path="url(#clip0)">
<path opacity="0.25" d="M4 16L4 9L4 2L18.7387 2C20.0202 2 20.7116 3.50318 19.8776 4.47619L16 9L19.8776 13.5238C20.7116 14.4968 20.0202 16 18.7387 16L4 16Z" fill="#191213"/>
<path d="M4 1C4 0.447716 4.44772 0 5 0V0C5.55228 0 6 0.447715 6 1L6 23C6 23.5523 5.55228 24 5 24V24C4.44772 24 4 23.5523 4 23L4 1Z" fill="#121319"/>
</g>
<defs>
<clipPath id="clip0">
<path d="M0 0H24V24H0V0Z" fill="white"/>
</clipPath>
</defs>
</svg>
