<svg width="24" height="24" viewBox="0 0 24 24" fill="none" xmlns="http://www.w3.org/2000/svg">
<path opacity="0.25" d="M20 18.8V6.63995L13.6514 2.81498L13.6514 2.81497C13.0511 2.4533 12.751 2.27247 12.4304 2.20183C12.1469 2.13935 11.8531 2.13935 11.5696 2.20183C11.249 2.27247 10.9489 2.45331 10.3486 2.81498L4 6.63998V18.8C4 19.9201 4 20.4801 4.21799 20.908C4.40973 21.2843 4.71569 21.5903 5.09202 21.782C5.51984 22 6.0799 22 7.2 22H16.8C17.9201 22 18.4802 22 18.908 21.782C19.2843 21.5903 19.5903 21.2843 19.782 20.908C20 20.4801 20 19.9201 20 18.8Z" fill="#191213"/>
<path fill-rule="evenodd" clip-rule="evenodd" d="M1.14254 9.51447C1.42668 9.98805 2.04094 10.1416 2.51452 9.85746L12 4.16616L21.4855 9.85746C21.9591 10.1416 22.5734 9.98805 22.8575 9.51447C23.1417 9.04089 22.9881 8.42663 22.5145 8.14248L13.029 2.45118C12.3957 2.07116 11.6044 2.07116 10.971 2.45118L1.48553 8.14248C1.01195 8.42663 0.858388 9.04089 1.14254 9.51447Z" fill="#121319"/>
<path d="M9 16C9 14.3431 10.3431 13 12 13V13C13.6569 13 15 14.3431 15 16V22H9V16Z" fill="#121319"/>
</svg>
