<svg width="24" height="24" viewBox="0 0 24 24" fill="none" xmlns="http://www.w3.org/2000/svg">
<path opacity="0.25" fill-rule="evenodd" clip-rule="evenodd" d="M12 22C17.5228 22 22 17.5228 22 12C22 6.47715 17.5228 2 12 2C6.47715 2 2 6.47715 2 12C2 17.5228 6.47715 22 12 22Z" fill="#12131A"/>
<path d="M5.5 4.40041C7.40459 6.03096 8.68901 8.36504 8.95062 11H11V2.04938C11.3289 2.01672 11.6625 2 12 2C12.3375 2 12.6711 2.01672 13 2.04938V11H15.0494C15.311 8.36504 16.5954 6.03096 18.5 4.40041C19.0083 4.83562 19.4725 5.32093 19.8848 5.84871C18.3635 7.11521 17.3193 8.93545 17.0619 11H21.9506C21.9833 11.3289 22 11.6625 22 12C22 12.3375 21.9833 12.6711 21.9506 13H17.0619C17.3193 15.0645 18.3635 16.8848 19.8848 18.1513C19.4725 18.6791 19.0083 19.1644 18.5 19.5996C16.5954 17.969 15.311 15.635 15.0494 13H13V21.9506C12.6711 21.9833 12.3375 22 12 22C11.6625 22 11.3289 21.9833 11 21.9506V13H8.95062C8.68901 15.635 7.40459 17.969 5.5 19.5996C4.99166 19.1644 4.52749 18.6791 4.11517 18.1513C5.63654 16.8848 6.68066 15.0645 6.93811 13H2.04938C2.01672 12.6711 2 12.3375 2 12C2 11.6625 2.01672 11.3289 2.04938 11H6.93811C6.68066 8.93545 5.63654 7.11521 4.11517 5.84871C4.5275 5.32093 4.99166 4.83562 5.5 4.40041Z" fill="#12131A"/>
</svg>
