<svg width="24" height="24" viewBox="0 0 24 24" fill="none" xmlns="http://www.w3.org/2000/svg">
<g opacity="0.25">
<path d="M3.70711 2.29289C3.31658 1.90237 2.68342 1.90237 2.29289 2.29289C1.90237 2.68342 1.90237 3.31658 2.29289 3.70711L8.29289 9.70711C8.68342 10.0976 9.31658 10.0976 9.70711 9.70711C10.0976 9.31658 10.0976 8.68342 9.70711 8.29289L3.70711 2.29289Z" fill="#12131A"/>
<path d="M15.7071 14.2929C15.3166 13.9024 14.6834 13.9024 14.2929 14.2929C13.9024 14.6834 13.9024 15.3166 14.2929 15.7071L20.2929 21.7071C20.6834 22.0976 21.3166 22.0976 21.7071 21.7071C22.0976 21.3166 22.0976 20.6834 21.7071 20.2929L15.7071 14.2929Z" fill="#12131A"/>
</g>
<path opacity="0.25" fill-rule="evenodd" clip-rule="evenodd" d="M21.7071 2.29289C22.0976 2.68342 22.0976 3.31658 21.7071 3.70711L3.70711 21.7071C3.31658 22.0976 2.68342 22.0976 2.29289 21.7071C1.90237 21.3166 1.90237 20.6834 2.29289 20.2929L20.2929 2.29289C20.6834 1.90237 21.3166 1.90237 21.7071 2.29289Z" fill="#12131A"/>
<path d="M8.99998 18C8.99998 19.5167 7.87446 20.7705 6.41309 20.9718C6.15036 21.008 5.89463 20.8946 5.70709 20.7071L3.29288 18.2929C3.10534 18.1054 2.99201 17.8496 3.02819 17.5869C3.22947 16.1255 4.48328 15 5.99998 15C7.65684 15 8.99998 16.3431 8.99998 18Z" fill="#12131A"/>
<path d="M15.0215 18C15.0215 19.5167 16.147 20.7705 17.6084 20.9718C17.8711 21.008 18.1269 20.8946 18.3144 20.7071L20.7286 18.2929C20.9161 18.1054 21.0295 17.8496 20.9933 17.5869C20.792 16.1255 19.5382 15 18.0215 15C16.3646 15 15.0215 16.3431 15.0215 18Z" fill="#12131A"/>
</svg>
