<svg width="24" height="24" viewBox="0 0 24 24" fill="none" xmlns="http://www.w3.org/2000/svg">
<path d="M16.5836 7.11C16.835 7.23989 17.1485 7.15277 17.2827 6.90363L20.2063 1.4741C20.565 0.807868 20.0825 0 19.3258 0H15.5936C15.2277 0 14.891 0.199887 14.7157 0.521148L13.2697 3.17224C13.1883 3.32148 13.1883 3.50185 13.2697 3.65109L14.6614 6.20261C14.7255 6.32007 14.8342 6.40636 14.962 6.44594C15.5255 6.62044 16.0676 6.84342 16.5836 7.11Z" fill="#12131A"/>
<path d="M7.4165 7.11024C7.16498 7.23988 6.85149 7.15277 6.71734 6.90363L3.79374 1.4741C3.435 0.807868 3.91754 0 4.67422 0H8.40637C8.77231 0 9.10903 0.199887 9.28426 0.521148L11.8587 5.24103C12.0433 5.57946 11.7912 5.99498 11.4064 6.01807C10.0185 6.10135 8.65341 6.47273 7.4165 7.11024Z" fill="#12131A"/>
<path opacity="0.25" fill-rule="evenodd" clip-rule="evenodd" d="M12 24C16.4183 24 20 20.4183 20 16C20 11.5817 16.4183 8 12 8C7.58172 8 4 11.5817 4 16C4 20.4183 7.58172 24 12 24Z" fill="#12131A"/>
<path fill-rule="evenodd" clip-rule="evenodd" d="M12 19C13.6569 19 15 17.6569 15 16C15 14.3431 13.6569 13 12 13C10.3431 13 9 14.3431 9 16C9 17.6569 10.3431 19 12 19Z" fill="#12131A"/>
</svg>
