<svg width="24" height="24" viewBox="0 0 24 24" fill="none" xmlns="http://www.w3.org/2000/svg">
<path opacity="0.25" d="M0 7C0 5.34315 1.34315 4 3 4H21C22.6569 4 24 5.34315 24 7V17C24 18.6569 22.6569 20 21 20H3C1.34315 20 0 18.6569 0 17V7Z" fill="#12131A"/>
<path fill-rule="evenodd" clip-rule="evenodd" d="M15 9C15 8.44772 15.4477 8 16 8H18.5C19.3284 8 20 8.67157 20 9.5V11.5C20 12.3284 19.3284 13 18.5 13H17V14H19C19.5523 14 20 14.4477 20 15C20 15.5523 19.5523 16 19 16H16.5C15.6716 16 15 15.3284 15 14.5V12.5C15 11.6716 15.6716 11 16.5 11H18V10H16C15.4477 10 15 9.55228 15 9Z" fill="#12131A"/>
<path d="M12 9C11.4477 9 11 9.44772 11 10C11 10.5523 11.4477 11 12 11C12.5523 11 13 10.5523 13 10C13 9.44772 12.5523 9 12 9Z" fill="#12131A"/>
<path d="M12 13C11.4477 13 11 13.4477 11 14C11 14.5523 11.4477 15 12 15C12.5523 15 13 14.5523 13 14C13 13.4477 12.5523 13 12 13Z" fill="#12131A"/>
<path d="M7 8C7.55228 8 8 8.44772 8 9V14C8.55228 14 9 14.4477 9 15C9 15.5523 8.55228 16 8 16H6C5.44772 16 5 15.5523 5 15C5 14.4477 5.44772 14 6 14V10C5.44772 10 5 9.55228 5 9C5 8.44772 5.44772 8 6 8H7Z" fill="#12131A"/>
</svg>
