<svg width="24" height="24" viewBox="0 0 24 24" fill="none" xmlns="http://www.w3.org/2000/svg">
<path opacity="0.25" d="M20.108 3H3.89198C2.83051 3 1.95394 3.82923 1.89506 4.88906L1.17592 17.8336C1.08038 19.5532 2.44904 21 4.1713 21H7.39812C8.89107 21 10.1568 19.9022 10.368 18.4243L10.8586 14.9899C10.9397 14.4219 11.4262 14 12 14C12.5738 14 13.0603 14.4219 13.1414 14.9899L13.632 18.4243C13.8432 19.9022 15.1089 21 16.6019 21H19.8287C21.551 21 22.9196 19.5532 22.8241 17.8336L22.105 4.88906C22.0461 3.82923 21.1695 3 20.108 3Z" fill="#12131A"/>
<path d="M22.2222 7L1.7778 7L1.66669 9L22.3334 9L22.2222 7Z" fill="#12131A"/>
</svg>
