<svg width="24" height="24" viewBox="0 0 24 24" fill="none" xmlns="http://www.w3.org/2000/svg">
<path opacity="0.25" d="M0 7C0 5.34315 1.34315 4 3 4H21C22.6569 4 24 5.34315 24 7V17C24 18.6569 22.6569 20 21 20H3C1.34315 20 0 18.6569 0 17V7Z" fill="#12131A"/>
<path fill-rule="evenodd" clip-rule="evenodd" d="M11 4H13V8.12602C14.7252 8.57006 16 10.1362 16 12C16 13.8638 14.7252 15.4299 13 15.874V20H11V15.874C9.27477 15.4299 8 13.8638 8 12C8 10.1362 9.27477 8.57006 11 8.12602V4ZM12 14C13.1046 14 14 13.1046 14 12C14 10.8954 13.1046 10 12 10C10.8954 10 10 10.8954 10 12C10 13.1046 10.8954 14 12 14Z" fill="#12131A"/>
<path d="M0 16H2C3.65685 16 5 14.6569 5 13V11C5 9.34315 3.65685 8 2 8H0V10H2C2.55228 10 3 10.4477 3 11V13C3 13.5523 2.55228 14 2 14H0V16Z" fill="#12131A"/>
<path d="M24 8H22C20.3431 8 19 9.34315 19 11V13C19 14.6569 20.3431 16 22 16H24V14H22C21.4477 14 21 13.5523 21 13V11C21 10.4477 21.4477 10 22 10H24V8Z" fill="#12131A"/>
</svg>
