<svg width="24" height="24" viewBox="0 0 24 24" fill="none" xmlns="http://www.w3.org/2000/svg">
<path opacity="0.25" fill-rule="evenodd" clip-rule="evenodd" d="M12 24C16.9706 24 21 19.9706 21 15C21 10.0294 16.9706 6 12 6C7.02944 6 3 10.0294 3 15C3 19.9706 7.02944 24 12 24Z" fill="#12131A"/>
<path fill-rule="evenodd" clip-rule="evenodd" d="M8.8541 3C7.36734 3 6.40034 4.56462 7.06524 5.89443L7.89442 7.55279C8.14141 8.04676 7.94119 8.64744 7.44721 8.89443C6.95323 9.14142 6.35256 8.94119 6.10557 8.44721L5.27639 6.78885C3.94659 4.12925 5.88057 1 8.8541 1H15.1459C18.1194 1 20.0534 4.12925 18.7236 6.78885L17.8944 8.44721C17.6474 8.94119 17.0468 9.14142 16.5528 8.89443C16.0588 8.64744 15.8586 8.04677 16.1056 7.55279L16.9347 5.89443C17.5997 4.56462 16.6327 3 15.1459 3H8.8541Z" fill="#12131A"/>
</svg>
