<svg width="24" height="24" viewBox="0 0 24 24" fill="none" xmlns="http://www.w3.org/2000/svg">
<path opacity="0.25" d="M16 12C16 16.4183 12.4183 20 8 20C3.58172 20 0 16.4183 0 12C0 7.58172 3.58172 4 8 4H11.5C11.7761 4 11.9936 4.22733 12.0617 4.49494C12.282 5.36012 13.0663 6 14 6C14.9337 6 15.718 5.36012 15.9383 4.49494C16.0064 4.22733 16.2239 4 16.5 4H22C23.1046 4 24 4.89543 24 6V8.34015C24 9.30258 23.3145 10.1285 22.3686 10.3059L15.9848 11.5028C15.9949 11.6673 16 11.833 16 12Z" fill="#12131A"/>
<circle cx="8" cy="12" r="3" fill="#12131A"/>
</svg>
