<svg width="24" height="24" viewBox="0 0 24 24" fill="none" xmlns="http://www.w3.org/2000/svg">
<path opacity="0.25" d="M21.7328 5.68046C22.1086 5.27574 22.0852 4.64301 21.6805 4.26721C21.2757 3.89141 20.643 3.91484 20.2672 4.31955L8.67945 16.7987C8.29377 17.214 7.64033 17.2261 7.23955 16.8253L3.70711 13.2929C3.31658 12.9024 2.68342 12.9024 2.29289 13.2929C1.90237 13.6834 1.90237 14.3166 2.29289 14.7071L5.82533 18.2395C7.02769 19.4419 8.988 19.4056 10.145 18.1596L17.3032 10.4507C17.4961 10.2431 17.8228 10.237 18.0232 10.4374L19.2929 11.7071C19.6834 12.0976 20.3166 12.0976 20.7071 11.7071C21.0976 11.3166 21.0976 10.6834 20.7071 10.2929L19.3588 8.94463C19.1687 8.75446 19.163 8.44793 19.346 8.25085L21.7328 5.68046Z" fill="#12131A"/>
<path d="M10 19C10 20.1046 9.10457 21 8 21C6.89543 21 6 20.1046 6 19C6 17.8954 6.89543 17 8 17C9.10457 17 10 17.8954 10 19Z" fill="#12131A"/>
<path d="M3.41416 10.4142L6.58573 13.5858C7.36678 14.3668 8.6331 14.3668 9.41415 13.5858L14.5857 8.41422C15.3668 7.63317 15.3668 6.36684 14.5857 5.58579L11.4142 2.41422C10.6331 1.63317 9.36678 1.63317 8.58573 2.41422L3.41416 7.58579C2.63311 8.36684 2.63311 9.63317 3.41416 10.4142Z" fill="#12131A"/>
</svg>
