<svg width="24" height="24" viewBox="0 0 24 24" fill="none" xmlns="http://www.w3.org/2000/svg">
<path opacity="0.25" d="M3 6C3 3.79086 4.79086 2 7 2H17C19.2091 2 21 3.79086 21 6V19C21 21.2091 19.2091 23 17 23H7C4.79086 23 3 21.2091 3 19V6Z" fill="#12131A"/>
<path d="M8 10C8.55228 10 9 9.55228 9 9C9 8.44772 8.55228 8 8 8C7.44772 8 7 8.44772 7 9C7 9.55228 7.44772 10 8 10Z" fill="#12131A"/>
<path d="M12 8C11.4477 8 11 8.44772 11 9C11 9.55228 11.4477 10 12 10H16C16.5523 10 17 9.55228 17 9C17 8.44772 16.5523 8 16 8H12Z" fill="#12131A"/>
<path d="M12 12C11.4477 12 11 12.4477 11 13C11 13.5523 11.4477 14 12 14H16C16.5523 14 17 13.5523 17 13C17 12.4477 16.5523 12 16 12H12Z" fill="#12131A"/>
<path d="M11 17C11 16.4477 11.4477 16 12 16H14C14.5523 16 15 16.4477 15 17C15 17.5523 14.5523 18 14 18H12C11.4477 18 11 17.5523 11 17Z" fill="#12131A"/>
<path d="M9 13C9 13.5523 8.55228 14 8 14C7.44772 14 7 13.5523 7 13C7 12.4477 7.44772 12 8 12C8.55228 12 9 12.4477 9 13Z" fill="#12131A"/>
<path d="M8 18C8.55228 18 9 17.5523 9 17C9 16.4477 8.55228 16 8 16C7.44772 16 7 16.4477 7 17C7 17.5523 7.44772 18 8 18Z" fill="#12131A"/>
<path d="M8.25 1H15.75C16.4404 1 17 1.44772 17 2C17 2.55228 16.4404 3 15.75 3H8.25C7.55964 3 7 2.55228 7 2C7 1.44772 7.55964 1 8.25 1Z" fill="#12131A"/>
</svg>
