<svg width="24" height="24" viewBox="0 0 24 24" fill="none" xmlns="http://www.w3.org/2000/svg">
<path d="M5.70153 19.5497L5 15H9.00003V19.3444C9.00003 20.2587 8.25877 21 7.34439 21C6.50941 21 5.80509 20.3782 5.70153 19.5497Z" fill="#12131A"/>
<path d="M22 9C22.5523 9 23 9.44772 23 10V12C23 12.5523 22.5523 13 22 13V9Z" fill="#12131A"/>
<path opacity="0.25" d="M1 11C1 8.79085 2.79086 6.99999 5 6.99999H7.63932C9.19177 6.99999 10.7229 6.63854 12.1115 5.94426L17.6584 3.17081C19.6531 2.17346 22 3.62394 22 5.85409V16.1459C22 18.376 19.6531 19.8265 17.6584 18.8292L12.1115 16.0557C10.7229 15.3614 9.19177 15 7.63932 15H5C2.79086 15 1 13.2091 1 11Z" fill="#12131A"/>
<path d="M11 14.8724C11 15.2181 10.6571 15.46 10.3241 15.3672C10.0295 15.2851 9.73138 15.2165 9.43054 15.1617C9.18473 15.117 9 14.9069 9 14.657V7.34303C9 7.09318 9.18473 6.88304 9.43054 6.83829C9.73139 6.78351 10.0295 6.71497 10.3241 6.63288C10.6571 6.54007 11 6.78198 11 7.12768V14.8724Z" fill="#12131A"/>
</svg>
