<svg width="24" height="24" viewBox="0 0 24 24" fill="none" xmlns="http://www.w3.org/2000/svg">
<path opacity="0.25" d="M2.21332 10.1996C2.09789 8.46801 3.47129 7 5.20668 7H18.7934C20.5288 7 21.9022 8.46801 21.7867 10.1996L21.1867 19.1996C21.0817 20.7755 19.7728 22 18.1934 22H5.80668C4.22729 22 2.91838 20.7755 2.81332 19.1996L2.21332 10.1996Z" fill="#12131A"/>
<path fill-rule="evenodd" clip-rule="evenodd" d="M7 7C7 4.23858 9.23858 2 12 2C14.7614 2 17 4.23858 17 7V9C17 9.55228 16.5523 10 16 10C15.4477 10 15 9.55228 15 9V7C15 5.34315 13.6569 4 12 4C10.3431 4 9 5.34315 9 7V9C9 9.55228 8.55228 10 8 10C7.44772 10 7 9.55228 7 9V7Z" fill="#12131A"/>
</svg>
