<svg width="24" height="24" viewBox="0 0 24 24" fill="none" xmlns="http://www.w3.org/2000/svg">
<g opacity="0.25">
<path d="M7 22C8.10457 22 9 21.1046 9 20C9 18.8954 8.10457 18 7 18C5.89543 18 5 18.8954 5 20C5 21.1046 5.89543 22 7 22Z" fill="#12131A"/>
<path d="M17 22C18.1046 22 19 21.1046 19 20C19 18.8954 18.1046 18 17 18C15.8954 18 15 18.8954 15 20C15 21.1046 15.8954 22 17 22Z" fill="#12131A"/>
</g>
<path opacity="0.25" d="M3.44719 2.10555C2.95321 1.85856 2.35254 2.05878 2.10555 2.55276C1.85856 3.04674 2.05878 3.64741 2.55276 3.8944L3.55627 4.39616C3.86602 4.55103 4.07359 4.85515 4.10495 5.20005L4.83872 13.2716C4.9792 14.8168 6.27479 16 7.8264 16H16.4914C17.8308 16 19.008 15.112 19.3759 13.8241L20.5973 9.54942C20.7519 9.00818 20.8478 8.46799 20.907 8.02509C20.9817 7.46617 20.5338 7 19.9699 7L6.73343 6.99997C6.47483 6.99997 6.2589 6.80278 6.23549 6.54524L6.09674 5.01898C6.00267 3.98429 5.37996 3.07193 4.4507 2.6073L3.44719 2.10555Z" fill="#12131A"/>
<path fill-rule="evenodd" clip-rule="evenodd" d="M2.10555 2.55276C2.35254 2.05878 2.95321 1.85856 3.44719 2.10555L4.4507 2.6073C5.37996 3.07193 6.00267 3.98429 6.09674 5.01898L6.83051 13.0905C6.87734 13.6056 7.3092 14 7.8264 14H16.4914C16.9379 14 17.3302 13.704 17.4529 13.2747L19.0385 7.72525C19.1902 7.19422 19.7437 6.88673 20.2747 7.03845C20.8057 7.19018 21.1132 7.74366 20.9615 8.2747L19.3759 13.8241C19.008 15.112 17.8308 16 16.4914 16H7.8264C6.27479 16 4.9792 14.8168 4.83872 13.2716L4.10495 5.20005C4.07359 4.85515 3.86602 4.55103 3.55627 4.39616L2.55276 3.8944C2.05878 3.64741 1.85856 3.04674 2.10555 2.55276Z" fill="#12131A"/>
</svg>
