<svg width="24" height="24" viewBox="0 0 24 24" fill="none" xmlns="http://www.w3.org/2000/svg">
<path opacity="0.25" d="M4 10C4 9.44772 4.44772 9 5 9H19C19.5523 9 20 9.44772 20 10V18C20 19.6569 18.6569 21 17 21H7C5.34315 21 4 19.6569 4 18V10Z" fill="#12131A"/>
<path d="M10 17C10 15.8954 10.8954 15 12 15V15C13.1046 15 14 15.8954 14 17V20C14 20.5523 13.5523 21 13 21H11C10.4477 21 10 20.5523 10 20V17Z" fill="#12131A"/>
<path d="M4.90014 4.23781C5.5688 3.4142 6.59599 3 7.65685 3H16.3431C17.404 3 18.4312 3.4142 19.0999 4.23781C19.9561 5.29247 21 7.82022 21 9C21 11 20 12 18 12C16.525 12 15.5939 10.9122 15.2067 10.3411C15.1142 10.2047 14.8858 10.2047 14.7933 10.3411C14.4061 10.9122 13.475 12 12 12C10.525 12 9.59391 10.9122 9.20672 10.3411C9.11424 10.2047 8.88576 10.2047 8.79328 10.3411C8.40609 10.9122 7.47499 12 6 12C4 12 3 11 3 9C3 7.82022 4.04391 5.29247 4.90014 4.23781Z" fill="#12131A"/>
</svg>
