<svg width="24" height="24" viewBox="0 0 24 24" fill="none" xmlns="http://www.w3.org/2000/svg">
<path opacity="0.25" d="M21.7819 11.8786C21.9988 12.9068 20.9705 13.6568 19.9736 13.3246C19.3416 13.1139 18.6583 13.1139 18.0263 13.3246L16.8287 13.7237C16.2874 13.9042 15.7059 13.9265 15.1524 13.7881L13 13.25V19C13 19.5523 13.4477 20 14 20C14.5523 20 15 19.5523 15 19C15 18.4477 15.4477 18 16 18C16.5523 18 17 18.4477 17 19C17 20.6569 15.6569 22 14 22C12.3431 22 11 20.6569 11 19V13.25L8.84745 13.7881C8.29393 13.9265 7.71243 13.9042 7.17116 13.7237L5.9736 13.3246C5.34158 13.1139 4.65828 13.1139 4.02626 13.3246C3.02939 13.6568 2.00108 12.9068 2.21796 11.8786C3.23108 7.07571 7.6155 4 11.9999 4C16.3844 4 20.7688 7.07571 21.7819 11.8786Z" fill="#12131A"/>
<path fill-rule="evenodd" clip-rule="evenodd" d="M8.3721 6.64615C9.20091 5.12667 10.4692 4 12 4C13.5417 4 14.8076 5.16385 15.6295 6.68327C16.4761 8.24815 17 10.4205 17 13C17 13.5523 16.5523 14 16 14C15.4477 14 15 13.5523 15 13C15 10.6704 14.5239 8.84276 13.8705 7.63491C13.1924 6.38161 12.4583 6 12 6C11.5308 6 10.7991 6.37333 10.1279 7.60385C9.4772 8.79679 9 10.6221 9 13C9 13.5523 8.55228 14 8 14C7.44772 14 7 13.5523 7 13C7 10.3779 7.5228 8.20321 8.3721 6.64615Z" fill="#12131A"/>
<path d="M11 3C11 2.44772 11.4477 2 12 2V2C12.5523 2 13 2.44772 13 3V4C13 4.55228 12.5523 5 12 5V5C11.4477 5 11 4.55228 11 4V3Z" fill="#12131A"/>
</svg>
