<svg width="24" height="24" viewBox="0 0 24 24" fill="none" xmlns="http://www.w3.org/2000/svg">
<path opacity="0.25" d="M4 5C4 3.34315 5.34315 2 7 2H17C18.6569 2 20 3.34315 20 5V19C20 20.6569 18.6569 22 17 22H7C5.34315 22 4 20.6569 4 19V5Z" fill="#12131A"/>
<path fill-rule="evenodd" clip-rule="evenodd" d="M7 6C7 5.44772 7.44772 5 8 5H16C16.5523 5 17 5.44772 17 6C17 6.55228 16.5523 7 16 7H8C7.44772 7 7 6.55228 7 6ZM9 10C9 10.5523 8.55229 11 8 11C7.44772 11 7 10.5523 7 10C7 9.44771 7.44772 9 8 9C8.55229 9 9 9.44771 9 10ZM12 11C12.5523 11 13 10.5523 13 10C13 9.44771 12.5523 9 12 9C11.4477 9 11 9.44771 11 10C11 10.5523 11.4477 11 12 11ZM16 11C16.5523 11 17 10.5523 17 10C17 9.44771 16.5523 9 16 9C15.4477 9 15 9.44771 15 10C15 10.5523 15.4477 11 16 11ZM8 15C8.55229 15 9 14.5523 9 14C9 13.4477 8.55229 13 8 13C7.44772 13 7 13.4477 7 14C7 14.5523 7.44772 15 8 15ZM12 15C12.5523 15 13 14.5523 13 14C13 13.4477 12.5523 13 12 13C11.4477 13 11 13.4477 11 14C11 14.5523 11.4477 15 12 15ZM16 15C16.5523 15 17 14.5523 17 14C17 13.4477 16.5523 13 16 13C15.4477 13 15 13.4477 15 14C15 14.5523 15.4477 15 16 15ZM8 19C8.55229 19 9 18.5523 9 18C9 17.4477 8.55229 17 8 17C7.44772 17 7 17.4477 7 18C7 18.5523 7.44772 19 8 19ZM12 19C12.5523 19 13 18.5523 13 18C13 17.4477 12.5523 17 12 17C11.4477 17 11 17.4477 11 18C11 18.5523 11.4477 19 12 19ZM16 19C16.5523 19 17 18.5523 17 18C17 17.4477 16.5523 17 16 17C15.4477 17 15 17.4477 15 18C15 18.5523 15.4477 19 16 19Z" fill="#12131A"/>
</svg>
