<svg width="24" height="24" viewBox="0 0 24 24" fill="none" xmlns="http://www.w3.org/2000/svg">
<path opacity="0.25" fill-rule="evenodd" clip-rule="evenodd" d="M15.9999 10.7297V5H7.99991V10.7297C7.99991 10.9067 7.9529 11.0806 7.86369 11.2335L3.63169 18.4884C2.46504 20.4884 3.90765 23 6.22302 23H17.7768C20.0922 23 21.5348 20.4884 20.3681 18.4884L16.1361 11.2335C16.0469 11.0806 15.9999 10.9067 15.9999 10.7297ZM16.6012 16L14.4086 12.2413C14.1409 11.7825 13.9999 11.2608 13.9999 10.7297V7H9.99991V10.7297C9.99991 11.2608 9.85889 11.7825 9.59125 12.2413L7.39865 16H16.6012Z" fill="#12131A"/>
<path d="M7 6C7 5.44772 7.44772 5 8 5H16C16.5523 5 17 5.44772 17 6V6C17 6.55228 16.5523 7 16 7H8C7.44772 7 7 6.55228 7 6V6Z" fill="#12131A"/>
<path d="M14 3C14.5523 3 15 2.55228 15 2C15 1.44772 14.5523 1 14 1C13.4477 1 13 1.44772 13 2C13 2.55228 13.4477 3 14 3Z" fill="#12131A"/>
<path d="M10 4C10.5523 4 11 3.55228 11 3C11 2.44772 10.5523 2 10 2C9.44771 2 9 2.44772 9 3C9 3.55228 9.44771 4 10 4Z" fill="#12131A"/>
</svg>
