<svg width="24" height="24" viewBox="0 0 24 24" fill="none" xmlns="http://www.w3.org/2000/svg">
<path opacity="0.25" d="M11 4C9.89543 4 9 4.89543 9 6V7.34141C6.66962 8.16508 5 10.3876 5 13V21C5 22.6569 6.34315 24 8 24H16C17.6569 24 19 22.6569 19 21V13C19 10.3876 17.3304 8.16508 15 7.34141V6C15 4.89543 14.1046 4 13 4H11Z" fill="#12131A"/>
<path d="M9.12132 2.29289C9.30886 2.10536 9.56321 2 9.82843 2H11V4C11 4.55228 11.4477 5 12 5C12.5523 5 13 4.55228 13 4V2H15C15.5523 2 16 1.55228 16 1C16 0.447715 15.5523 0 15 0H9.82843C9.03278 0 8.26972 0.31607 7.70711 0.878679L7.29289 1.29289C6.90237 1.68342 6.90237 2.31658 7.29289 2.70711C7.68342 3.09763 8.31658 3.09763 8.70711 2.70711L9.12132 2.29289Z" fill="#12131A"/>
</svg>
