<svg width="24" height="24" viewBox="0 0 24 24" fill="none" xmlns="http://www.w3.org/2000/svg">
<path opacity="0.25" fill-rule="evenodd" clip-rule="evenodd" d="M5 9C4.44772 9 4 9.44772 4 10V19C4 21.2091 5.79086 23 8 23H16C18.2091 23 20 21.2091 20 19V10C20 9.44772 19.5523 9 19 9L5 9Z" fill="#12131A"/>
<path fill-rule="evenodd" clip-rule="evenodd" d="M11 14C11 13.4477 11.4477 13 12 13C12.5523 13 13 13.4477 13 14V15H14C14.5523 15 15 15.4477 15 16C15 16.5523 14.5523 17 14 17H13V18C13 18.5523 12.5523 19 12 19C11.4477 19 11 18.5523 11 18V17H10C9.44771 17 9 16.5523 9 16C9 15.4477 9.44772 15 10 15H11V14Z" fill="#12131A"/>
<path opacity="0.25" d="M5 1C3.89543 1 3 1.89543 3 3V5C3 6.10457 3.89543 7 5 7C9.98706 7 14.585 7 19 7C20.1046 7 21 6.10457 21 5V3C21 1.89543 20.1046 1 19 1H5Z" fill="#12131A"/>
<path d="M8 5C7.44772 5 7 5.44772 7 6V7H9V6C9 5.44772 8.55228 5 8 5Z" fill="#12131A"/>
<path d="M11 6C11 5.44772 11.4477 5 12 5C12.5523 5 13 5.44772 13 6V7H11V6Z" fill="#12131A"/>
<path d="M15 6C15 5.44772 15.4477 5 16 5C16.5523 5 17 5.44772 17 6V7H15V6Z" fill="#12131A"/>
</svg>
