<svg width="24" height="24" viewBox="0 0 24 24" fill="none" xmlns="http://www.w3.org/2000/svg">
<path opacity="0.25" d="M12 6C13.1046 6 14 5.10457 14 4C14 3.63571 13.9026 3.29417 13.7324 3H17C19.2091 3 21 4.79086 21 7V19C21 21.2091 19.2091 23 17 23H7C4.79086 23 3 21.2091 3 19V7C3 4.79086 4.79086 3 7 3H10.2676C10.0974 3.29417 10 3.63571 10 4C10 5.10457 10.8954 6 12 6Z" fill="#12131A"/>
<path d="M8 9C7.44772 9 7 9.44771 7 10C7 10.5523 7.44772 11 8 11H16C16.5523 11 17 10.5523 17 10C17 9.44771 16.5523 9 16 9H8Z" fill="#12131A"/>
<path d="M7 14C7 13.4477 7.44772 13 8 13H16C16.5523 13 17 13.4477 17 14C17 14.5523 16.5523 15 16 15H8C7.44772 15 7 14.5523 7 14Z" fill="#12131A"/>
<path d="M7 18C7 17.4477 7.44772 17 8 17H12C12.5523 17 13 17.4477 13 18C13 18.5523 12.5523 19 12 19H8C7.44772 19 7 18.5523 7 18Z" fill="#12131A"/>
<path fill-rule="evenodd" clip-rule="evenodd" d="M11 4C11 4.55228 11.4477 5 12 5C12.5523 5 13 4.55228 13 4C13 3.44772 12.5523 3 12 3C11.4477 3 11 3.44772 11 4ZM12 1C10.3431 1 9 2.34315 9 4C9 5.65685 10.3431 7 12 7C13.6569 7 15 5.65685 15 4C15 2.34315 13.6569 1 12 1Z" fill="#12131A"/>
</svg>
