<svg width="24" height="24" viewBox="0 0 24 24" fill="none" xmlns="http://www.w3.org/2000/svg">
<path opacity="0.25" fill-rule="evenodd" clip-rule="evenodd" d="M7 6V5C7 3.34315 8.34315 2 10 2H14C15.6569 2 17 3.34315 17 5V6H19C20.6569 6 22 7.34315 22 9V19C22 20.6569 20.6569 22 19 22H5C3.34315 22 2 20.6569 2 19V9C2 7.34315 3.34315 6 5 6H7ZM9 5C9 4.44772 9.44772 4 10 4H14C14.5523 4 15 4.44772 15 5V6H9V5Z" fill="#12131A"/>
<path fill-rule="evenodd" clip-rule="evenodd" d="M11 11C11 10.4477 11.4477 10 12 10C12.5523 10 13 10.4477 13 11V13H15C15.5523 13 16 13.4477 16 14C16 14.5523 15.5523 15 15 15H13V17C13 17.5523 12.5523 18 12 18C11.4477 18 11 17.5523 11 17V15H9C8.44771 15 8 14.5523 8 14C8 13.4477 8.44772 13 9 13H11V11Z" fill="#12131A"/>
</svg>
