<svg width="24" height="24" viewBox="0 0 24 24" fill="none" xmlns="http://www.w3.org/2000/svg">
<path opacity="0.25" d="M5.66871 4.70346C4.14941 4.87227 3 6.15646 3 7.68511V12.6615C3 15.2997 4.55372 17.6905 6.9646 18.762C10.1704 20.1868 13.8296 20.1868 17.0354 18.762C19.4463 17.6905 21 15.2997 21 12.6615V7.68511C21 6.15646 19.8506 4.87227 18.3313 4.70346L17.5216 4.61349C13.8518 4.20574 10.1482 4.20574 6.47843 4.61349L5.66871 4.70346Z" fill="#12131A"/>
<path d="M1 8C0.447715 8 0 8.44772 0 9C0 9.55228 0.447715 10 1 10H4C4.55228 10 5 9.55228 5 9C5 8.44772 4.55228 8 4 8H1Z" fill="#12131A"/>
<path d="M20 8C19.4477 8 19 8.44772 19 9C19 9.55228 19.4477 10 20 10H23C23.5523 10 24 9.55228 24 9C24 8.44772 23.5523 8 23 8H20Z" fill="#12131A"/>
<path d="M0 14C0 13.4477 0.447715 13 1 13H4C4.55228 13 5 13.4477 5 14C5 14.5523 4.55228 15 4 15H1C0.447715 15 0 14.5523 0 14Z" fill="#12131A"/>
<path d="M20 13C19.4477 13 19 13.4477 19 14C19 14.5523 19.4477 15 20 15H23C23.5523 15 24 14.5523 24 14C24 13.4477 23.5523 13 23 13H20Z" fill="#12131A"/>
</svg>
