<svg width="24" height="24" viewBox="0 0 24 24" fill="none" xmlns="http://www.w3.org/2000/svg">
<path opacity="0.25" fill-rule="evenodd" clip-rule="evenodd" d="M6 16H10V9C10 5.13401 8.20914 2 6 2C3.79086 2 2 5.13401 2 9C2 12.866 3.79086 16 6 16Z" fill="#12131A"/>
<path opacity="0.25" fill-rule="evenodd" clip-rule="evenodd" d="M9 2C11.2091 2 12 6 12 9C12 13.3878 12 15.6593 12 20C12 21.1046 12.8954 22 14 22H20C21.1046 22 22 21.1046 22 20C22 15.585 22 13.4204 22 9C22 7.0648 21.4478 5.35865 20.567 4.11082C19.6987 2.88077 18.4287 2 17 2H9Z" fill="#12131A"/>
<ellipse cx="6" cy="9" rx="1" ry="2" fill="#12131A"/>
<path d="M12 14H13C13.5523 14 14 14.4477 14 15C14 15.5523 13.5523 16 13 16H12V14Z" fill="#12131A"/>
<path d="M16 15C16 14.4477 16.4477 14 17 14C17.5523 14 18 14.4477 18 15C18 15.5523 17.5523 16 17 16C16.4477 16 16 15.5523 16 15Z" fill="#12131A"/>
<path d="M21 14C20.4477 14 20 14.4477 20 15C20 15.5523 20.4477 16 21 16H22V14H21Z" fill="#12131A"/>
</svg>
