<svg width="24" height="24" viewBox="0 0 24 24" fill="none" xmlns="http://www.w3.org/2000/svg">
<path opacity="0.25" fill-rule="evenodd" clip-rule="evenodd" d="M20.7071 5.29289C21.0976 5.68342 21.0976 6.31658 20.7071 6.70711L6.70711 20.7071C6.31658 21.0976 5.68342 21.0976 5.29289 20.7071C4.90237 20.3166 4.90237 19.6834 5.29289 19.2929L19.2929 5.29289C19.6834 4.90237 20.3166 4.90237 20.7071 5.29289Z" fill="#12131A"/>
<path d="M13.2929 1.29289C13.6834 0.902369 14.3166 0.902369 14.7071 1.29289L17.2071 3.79289C17.5976 4.18342 17.5976 4.81658 17.2071 5.20711C16.8166 5.59763 16.1834 5.59763 15.7929 5.20711L13.2929 2.70711C12.9024 2.31658 12.9024 1.68342 13.2929 1.29289Z" fill="#12131A"/>
<path d="M11.2929 4.29289C11.6834 3.90237 12.3166 3.90237 12.7071 4.29289L14.7071 6.29289C15.0976 6.68342 15.0976 7.31658 14.7071 7.70711C14.3166 8.09763 13.6834 8.09763 13.2929 7.70711L11.2929 5.70711C10.9024 5.31658 10.9024 4.68342 11.2929 4.29289Z" fill="#12131A"/>
<path d="M9.70711 6.29289C9.31658 5.90237 8.68342 5.90237 8.29289 6.29289C7.90237 6.68342 7.90237 7.31658 8.29289 7.70711L10.7929 10.2071C11.1834 10.5976 11.8166 10.5976 12.2071 10.2071C12.5976 9.81658 12.5976 9.18342 12.2071 8.79289L9.70711 6.29289Z" fill="#12131A"/>
</svg>
