<svg width="24" height="24" viewBox="0 0 24 24" fill="none" xmlns="http://www.w3.org/2000/svg">
<path opacity="0.25" fill-rule="evenodd" clip-rule="evenodd" d="M19.0709 4.92885C18.6804 4.53832 18.0472 4.53832 17.6567 4.92885L16.1921 6.39343C15.2759 5.70724 14.1859 5.24039 13 5.07077V2.99988C13 2.44759 12.5523 1.99988 12 1.99988C11.4477 1.99988 11 2.44759 11 2.99988L11 5.07077C9.81407 5.2404 8.72403 5.70729 7.80778 6.39353L6.34304 4.92879C5.95251 4.53827 5.31935 4.53826 4.92882 4.92879C4.5383 5.31931 4.5383 5.95248 4.92882 6.343L6.39358 7.80776C5.70738 8.72399 5.24052 9.81399 5.07089 10.9999L3 10.9999C2.44772 10.9999 2 11.4476 2 11.9999C2 12.5522 2.44772 12.9999 3 12.9999L5.07089 12.9999C5.24051 14.1857 5.70736 15.2757 6.39355 16.192L4.92873 17.6568C4.5382 18.0473 4.5382 18.6805 4.92873 19.071C5.31925 19.4615 5.95242 19.4615 6.34294 19.071L7.80774 17.6062C8.724 18.2925 9.81405 18.7594 11 18.929V20.9999C11 21.5522 11.4477 21.9999 12 21.9999C12.5523 21.9999 13 21.5522 13 20.9999V18.929C14.1859 18.7594 15.2759 18.2925 16.1921 17.6063L17.6568 19.0709C18.0473 19.4615 18.6804 19.4615 19.071 19.0709C19.4615 18.6804 19.4615 18.0472 19.071 17.6567L17.6063 16.1921C18.2926 15.2758 18.7595 14.1858 18.9291 12.9999H21C21.5523 12.9999 22 12.5522 22 11.9999C22 11.4476 21.5523 10.9999 21 10.9999H18.9291C18.7595 9.81393 18.2926 8.72388 17.6063 7.80762L19.0709 6.34306C19.4614 5.95254 19.4614 5.31937 19.0709 4.92885Z" fill="#12131A"/>
<path d="M15 2C15 1.44772 14.5523 1 14 1L10 1C9.44772 1 9 1.44772 9 2C9 2.55228 9.44772 3 10 3L14 3C14.5523 3 15 2.55228 15 2Z" fill="#12131A"/>
<path d="M2 15C2.55228 15 3 14.5523 3 14L3 10C3 9.44772 2.55229 9 2 9C1.44772 9 1 9.44772 1 10L1 14C1 14.5523 1.44772 15 2 15Z" fill="#12131A"/>
<path d="M22 15C22.5523 15 23 14.5523 23 14V10C23 9.44772 22.5523 9 22 9C21.4477 9 21 9.44771 21 10V14C21 14.5523 21.4477 15 22 15Z" fill="#12131A"/>
<path d="M14 21C14.5523 21 15 21.4477 15 22C15 22.5523 14.5523 23 14 23H10C9.44772 23 9 22.5523 9 22C9 21.4477 9.44772 21 10 21H14Z" fill="#12131A"/>
<path d="M4.22175 7.05026C3.83122 7.44078 3.19806 7.44078 2.80753 7.05026C2.41701 6.65973 2.41701 6.02657 2.80753 5.63604L5.63596 2.80762C6.02648 2.41709 6.65965 2.41709 7.05017 2.80762C7.4407 3.19814 7.4407 3.83131 7.05017 4.22183L4.22175 7.05026Z" fill="#12131A"/>
<path d="M16.9497 21.1924C17.3402 21.5829 17.9734 21.5829 18.3639 21.1924L21.1923 18.364C21.5828 17.9734 21.5828 17.3403 21.1923 16.9498C20.8018 16.5592 20.1686 16.5592 19.7781 16.9498L16.9497 19.7782C16.5591 20.1687 16.5591 20.8019 16.9497 21.1924Z" fill="#12131A"/>
<path d="M7.05014 19.7782C7.44066 20.1687 7.44066 20.8019 7.05014 21.1924C6.65961 21.5829 6.02645 21.5829 5.63592 21.1924L2.8075 18.364C2.41697 17.9735 2.41697 17.3403 2.8075 16.9498C3.19802 16.5592 3.83119 16.5592 4.22171 16.9498L7.05014 19.7782Z" fill="#12131A"/>
<path d="M21.1923 7.05027C21.5828 6.65975 21.5828 6.02658 21.1923 5.63606L18.3638 2.80763C17.9733 2.41711 17.3402 2.41711 16.9496 2.80763C16.5591 3.19816 16.5591 3.83132 16.9496 4.22185L19.7781 7.05027C20.1686 7.4408 20.8017 7.4408 21.1923 7.05027Z" fill="#12131A"/>
</svg>
