<svg width="24" height="24" viewBox="0 0 24 24" fill="none" xmlns="http://www.w3.org/2000/svg">
<path opacity="0.25" fill-rule="evenodd" clip-rule="evenodd" d="M3 14C3 18 5.99982 23 8.99991 23C10.0418 23 11.0837 22.3969 11.9999 21.4422C12.9161 22.3969 13.958 23 14.9999 23C18 23 21 18 21 14C21 10 19 7 14.9999 7C13.8283 7 12.8283 7.25735 11.9999 7.7218C11.1715 7.25735 10.1715 7 8.99991 7C4.99982 7 3 10 3 14Z" fill="#12131A"/>
<path d="M8.5 13C8.22386 13 8 13.2239 8 13.5V14.5C8 15.3284 8.67157 16 9.5 16C9.77614 16 10 15.7761 10 15.5V14.5C10 13.6716 9.32843 13 8.5 13Z" fill="#12131A"/>
<path d="M15.5 13C15.7761 13 16 13.2239 16 13.5V14.5C16 15.3284 15.3284 16 14.5 16C14.2239 16 14 15.7761 14 15.5V14.5C14 13.6716 14.6716 13 15.5 13Z" fill="#12131A"/>
<path fill-rule="evenodd" clip-rule="evenodd" d="M9 5C10.1046 5 11 5.89543 11 7V8C11 8.55228 11.4477 9 12 9V9C12.5523 9 13 8.55228 13 8V7C13 4.79086 11.2091 3 9 3H8C7.44772 3 7 3.44772 7 4C7 4.55228 7.44772 5 8 5H9Z" fill="#12131A"/>
<path d="M17.3333 1H19.3333C19.7015 1 20 1.29848 20 1.66667C20 3.50762 18.5076 5 16.6667 5H14.6667C14.2985 5 14 4.70152 14 4.33333C14 2.49238 15.4924 1 17.3333 1Z" fill="#12131A"/>
</svg>
