<svg width="24" height="24" viewBox="0 0 24 24" fill="none" xmlns="http://www.w3.org/2000/svg">
<path opacity="0.25" fill-rule="evenodd" clip-rule="evenodd" d="M5.77095 8.03711C5.18051 8.01097 4.70969 8.51545 4.75877 9.10443L5.84724 22.1661C5.93362 23.2027 6.80015 24 7.84033 24H16.1598C17.2 24 18.0665 23.2027 18.1529 22.1661L19.0787 11.056C19.1267 10.4802 18.6771 9.98527 18.0998 9.95903C15.1907 9.82678 13.4579 9.39526 11.7575 8.97016L11.743 8.96652C10.1123 8.55884 8.51045 8.15838 5.77095 8.03711Z" fill="#12131A"/>
<path d="M10 14C10.5523 14 11 13.5523 11 13C11 12.4477 10.5523 12 10 12C9.44772 12 9 12.4477 9 13C9 13.5523 9.44772 14 10 14Z" fill="#12131A"/>
<path d="M14 19C14.5523 19 15 18.5523 15 18C15 17.4477 14.5523 17 14 17C13.4477 17 13 17.4477 13 18C13 18.5523 13.4477 19 14 19Z" fill="#12131A"/>
<path fill-rule="evenodd" clip-rule="evenodd" d="M4.28875 3.3721C4.06493 1.58155 5.46108 0 7.26558 0H16.8264C18.5815 0 19.9618 1.50008 19.8161 3.24914L19.4966 7.08305C19.4507 7.63342 18.9673 8.04241 18.417 7.99655C17.8666 7.95068 17.4576 7.46733 17.5035 6.91695L17.823 3.08305C17.8715 2.50003 17.4115 2 16.8264 2H7.26558C6.66408 2 6.19869 2.52718 6.2733 3.12404L6.49229 4.87597C6.56079 5.42398 6.17207 5.92378 5.62405 5.99228C5.07603 6.06078 4.57624 5.67205 4.50774 5.12403L4.28875 3.3721Z" fill="#12131A"/>
</svg>
