<svg width="24" height="24" viewBox="0 0 24 24" fill="none" xmlns="http://www.w3.org/2000/svg">
<path opacity="0.25" d="M10.2929 12.293L11.7071 13.7072L3.70711 21.7072C3.31658 22.0977 2.68342 22.0977 2.29289 21.7072C1.90237 21.3167 1.90237 20.6835 2.29289 20.293L10.2929 12.293Z" fill="#12131A"/>
<path fill-rule="evenodd" clip-rule="evenodd" d="M16.5 13C19.5376 13 22 10.5376 22 7.5C22 4.46243 19.5376 2 16.5 2C13.4624 2 11 4.46243 11 7.5C11 7.90102 11.0429 8.29202 11.1244 8.66865C11.1856 8.95122 11.025 9.24375 10.7445 9.31387L9.71346 9.57164C8.95937 9.76016 8.69926 10.6993 9.24889 11.2489L12.7511 14.7511C13.3007 15.3007 14.2398 15.0406 14.4284 14.2865L14.6861 13.2555C14.7563 12.975 15.0488 12.8144 15.3314 12.8756C15.708 12.9571 16.099 13 16.5 13Z" fill="#12131A"/>
</svg>
