<svg width="24" height="24" viewBox="0 0 24 24" fill="none" xmlns="http://www.w3.org/2000/svg">
<path opacity="0.25" fill-rule="evenodd" clip-rule="evenodd" d="M17 10.03C17 7.26855 14.7614 5 12 5C9.23858 5 7 7.26855 7 10.03C7 11.3496 6.40502 12.5907 5.79337 13.76C5.2866 14.7288 5 15.8309 5 17C5 20.866 8.13401 24 12 24C15.866 24 19 20.866 19 17C19 15.8309 18.7134 14.7288 18.2066 13.76C17.595 12.5907 17 11.3496 17 10.03Z" fill="#12131A"/>
<path fill-rule="evenodd" clip-rule="evenodd" d="M16.7082 2C15.4814 2 14.3783 2.74685 13.9227 3.88583L12.9285 6.37139C12.7234 6.88417 12.1414 7.13359 11.6286 6.92848C11.1158 6.72336 10.8664 6.14139 11.0715 5.62861L12.0658 3.14305C12.8251 1.24476 14.6636 0 16.7082 0H19C19.5523 0 20 0.447715 20 1C20 1.55228 19.5523 2 19 2H16.7082Z" fill="#12131A"/>
<path d="M6.66667 0H4.66667C4.29848 0 4 0.298477 4 0.666667C4 2.50762 5.49238 4 7.33333 4H9.33333C9.70152 4 10 3.70152 10 3.33333C10 1.49238 8.50762 0 6.66667 0Z" fill="#12131A"/>
</svg>
