<svg width="24" height="24" viewBox="0 0 24 24" fill="none" xmlns="http://www.w3.org/2000/svg">
<path opacity="0.25" d="M2.53982 16.3404L10.2692 2.98963C11.0396 1.65906 12.9606 1.65905 13.7309 2.98962L21.4603 16.3404C22.3683 17.9087 22.0416 19.8586 20.3688 20.5555C18.6137 21.2865 15.9014 22 12.0001 22C8.09875 22 5.38651 21.2865 3.63141 20.5555C1.95853 19.8586 1.63184 17.9088 2.53982 16.3404Z" fill="#12131A"/>
<path d="M3.27596 16.071C3.03138 15.9409 2.72456 16.0213 2.58578 16.261L2.53982 16.3404C1.63184 17.9087 1.95853 19.8586 3.63141 20.5555C5.38651 21.2865 8.09875 22 12.0001 22C15.9014 22 18.6137 21.2865 20.3688 20.5555C22.0416 19.8586 22.3683 17.9087 21.4603 16.3404L21.4144 16.261C21.2756 16.0213 20.9687 15.9409 20.7242 16.0709C20.5148 16.1822 20.2883 16.2952 20.0441 16.408C18.2907 17.2172 15.648 18 12 18C8.35195 18 5.70925 17.2172 3.95594 16.408C3.71179 16.2953 3.48524 16.1822 3.27596 16.071Z" fill="#12131A"/>
<path d="M14.8135 5.94604C15.017 5.72947 15.3595 5.80237 15.5084 6.05954L17.9402 10.26C18.0891 10.5172 17.9818 10.8505 17.6927 10.9191C17.1804 11.0406 16.6406 11.0263 16.1282 10.8707C15.3669 10.6394 14.7286 10.1153 14.3538 9.41344C13.9789 8.71162 13.8983 7.88964 14.1295 7.12833C14.2648 6.68269 14.5005 6.27921 14.8135 5.94604Z" fill="#12131A"/>
<path d="M10 14C10.5523 14 11 13.5523 11 13C11 12.4477 10.5523 12 10 12C9.44772 12 9 12.4477 9 13C9 13.5523 9.44772 14 10 14Z" fill="#12131A"/>
</svg>
