<svg width="24" height="24" viewBox="0 0 24 24" fill="none" xmlns="http://www.w3.org/2000/svg">
<path opacity="0.25" fill-rule="evenodd" clip-rule="evenodd" d="M8.34267 5C6.30367 6.64996 5 9.17273 5 12C5 16.9706 9.02944 21 14 21L14.0445 20.9999L14.0886 21C18.9787 21 22.9322 17.0285 22.9991 12.1265C22.9997 12.0844 23 12.0422 23 12C23 11.9612 22.9998 11.9226 22.9993 11.8839C22.9378 6.97709 18.9822 3 14.0886 3H4C3.44772 3 3 3.44772 3 4C3 4.55228 3.44772 5 4 5H8.34267Z" fill="#12131A"/>
<path fill-rule="evenodd" clip-rule="evenodd" d="M10 9C10 8.44772 10.4477 8 11 8C11.5523 8 12 8.44772 12 9V15C12 15.5523 11.5523 16 11 16C10.4477 16 10 15.5523 10 15V9ZM14.5 8C13.6716 8 13 8.67157 13 9.5V11.5C13 12.3284 13.6716 13 14.5 13H16V14H14C13.4477 14 13 14.4477 13 15C13 15.5523 13.4477 16 14 16H16.5C17.3284 16 18 15.3284 18 14.5V12.5C18 11.6716 17.3284 11 16.5 11H15V10H17C17.5523 10 18 9.55229 18 9C18 8.44771 17.5523 8 17 8H14.5Z" fill="#12131A"/>
<path fill-rule="evenodd" clip-rule="evenodd" d="M1.29289 3.29289C0.902369 3.68342 0.902369 4.31658 1.29289 4.70711L3.29289 6.70711C3.68342 7.09763 4.31658 7.09763 4.70711 6.70711C5.09763 6.31658 5.09763 5.68342 4.70711 5.29289L3.41421 4L4.70711 2.70711C5.09763 2.31658 5.09763 1.68342 4.70711 1.29289C4.31658 0.902369 3.68342 0.902369 3.29289 1.29289L1.29289 3.29289Z" fill="#12131A"/>
</svg>
