<svg width="24" height="24" viewBox="0 0 24 24" fill="none" xmlns="http://www.w3.org/2000/svg">
<path opacity="0.25" d="M3.5 22C2.67157 22 2 21.3284 2 20.5V20.5C2 19.6716 2.67157 19 3.5 19L20.5 19C21.3284 19 22 19.6716 22 20.5V20.5C22 21.3284 21.3284 22 20.5 22L3.5 22Z" fill="#12131A"/>
<path d="M3.99997 16.9999C2.35188 16.9999 1.41111 15.1184 2.39997 13.7999L10.4 3.13325C11.2 2.06659 12.8 2.06659 13.6 3.13325L21.6 13.7999C22.5888 15.1184 21.6481 16.9999 20 16.9999L3.99997 16.9999Z" fill="#12131A"/>
</svg>
