<svg width="24" height="24" viewBox="0 0 24 24" fill="none" xmlns="http://www.w3.org/2000/svg">
<path opacity="0.25" d="M2.36899 6.54184C2.65912 4.34504 4.34504 2.65912 6.54184 2.36899C8.05208 2.16953 9.94127 2 12 2C14.0587 2 15.9479 2.16953 17.4582 2.36899C19.655 2.65912 21.3409 4.34504 21.631 6.54184C21.8305 8.05208 22 9.94127 22 12C22 14.0587 21.8305 15.9479 21.631 17.4582C21.3409 19.655 19.655 21.3409 17.4582 21.631C15.9479 21.8305 14.0587 22 12 22C9.94127 22 8.05208 21.8305 6.54184 21.631C4.34504 21.3409 2.65912 19.655 2.36899 17.4582C2.16953 15.9479 2 14.0587 2 12C2 9.94127 2.16953 8.05208 2.36899 6.54184Z" fill="#12131A"/>
<path fill-rule="evenodd" clip-rule="evenodd" d="M9 20C8.44772 20 8 19.5523 8 19L8 17C8 16.4477 7.55228 16 7 16H5C4.44772 16 4 15.5523 4 15C4 14.4477 4.44772 14 5 14H7C8.65685 14 10 15.3431 10 17L10 19C10 19.5523 9.55229 20 9 20ZM16 19C16 19.5523 15.5523 20 15 20C14.4477 20 14 19.5523 14 19L14 17C14 15.3431 15.3431 14 17 14H19C19.5523 14 20 14.4477 20 15C20 15.5523 19.5523 16 19 16H17C16.4477 16 16 16.4477 16 17L16 19ZM9 4C8.44772 4 8 4.44772 8 5L8 7C8 7.55228 7.55228 8 7 8H5C4.44772 8 4 8.44771 4 9C4 9.55228 4.44772 10 5 10H7C8.65685 10 10 8.65685 10 7L10 5C10 4.44772 9.55229 4 9 4ZM16 5C16 4.44772 15.5523 4 15 4C14.4477 4 14 4.44772 14 5V7C14 8.65685 15.3431 10 17 10H19C19.5523 10 20 9.55228 20 9C20 8.44772 19.5523 8 19 8H17C16.4477 8 16 7.55228 16 7V5Z" fill="#12131A"/>
</svg>
