<svg width="24" height="24" viewBox="0 0 24 24" fill="none" xmlns="http://www.w3.org/2000/svg">
<path opacity="0.25" fill-rule="evenodd" clip-rule="evenodd" d="M15.6573 5C17.6963 6.64996 19 9.17273 19 12C19 16.9706 14.9706 21 10 21L9.95548 20.9999L9.91136 21C5.02127 21 1.06783 17.0285 1.00086 12.1265C1.00029 12.0844 1 12.0422 1 12C1 11.9612 1.00024 11.9226 1.00073 11.8839C1.06223 6.97709 5.01781 3 9.91136 3H20C20.5523 3 21 3.44772 21 4C21 4.55228 20.5523 5 20 5H15.6573Z" fill="#12131A"/>
<path fill-rule="evenodd" clip-rule="evenodd" d="M22.7071 3.29289C23.0976 3.68342 23.0976 4.31658 22.7071 4.70711L20.7071 6.70711C20.3166 7.09763 19.6834 7.09763 19.2929 6.70711C18.9024 6.31658 18.9024 5.68342 19.2929 5.29289L20.5858 4L19.2929 2.70711C18.9024 2.31658 18.9024 1.68342 19.2929 1.29289C19.6834 0.902369 20.3166 0.902369 20.7071 1.29289L22.7071 3.29289Z" fill="#12131A"/>
<path fill-rule="evenodd" clip-rule="evenodd" d="M6 9C6 8.44772 6.44772 8 7 8C7.55228 8 8 8.44772 8 9V15C8 15.5523 7.55228 16 7 16C6.44772 16 6 15.5523 6 15V9ZM10.5 8C9.67157 8 9 8.67157 9 9.5V11.5C9 12.3284 9.67157 13 10.5 13H12V14H10C9.44771 14 9 14.4477 9 15C9 15.5523 9.44771 16 10 16H12.5C13.3284 16 14 15.3284 14 14.5V12.5C14 11.6716 13.3284 11 12.5 11H11V10H13C13.5523 10 14 9.55229 14 9C14 8.44771 13.5523 8 13 8H10.5Z" fill="#12131A"/>
</svg>
