<svg width="24" height="24" viewBox="0 0 24 24" fill="none" xmlns="http://www.w3.org/2000/svg">
<path opacity="0.25" d="M2.36899 6.54184C2.65912 4.34504 4.34504 2.65912 6.54184 2.36899C8.05208 2.16953 9.94127 2 12 2C14.0587 2 15.9479 2.16953 17.4582 2.36899C19.655 2.65912 21.3409 4.34504 21.631 6.54184C21.8305 8.05208 22 9.94127 22 12C22 14.0587 21.8305 15.9479 21.631 17.4582C21.3409 19.655 19.655 21.3409 17.4582 21.631C15.9479 21.8305 14.0587 22 12 22C9.94127 22 8.05208 21.8305 6.54184 21.631C4.34504 21.3409 2.65912 19.655 2.36899 17.4582C2.16953 15.9479 2 14.0587 2 12C2 9.94127 2.16953 8.05208 2.36899 6.54184Z" fill="#12131A"/>
<path fill-rule="evenodd" clip-rule="evenodd" d="M5 14C5.55228 14 6 14.4477 6 15V17C6 17.5523 6.44772 18 7 18H9C9.55228 18 10 18.4477 10 19C10 19.5523 9.55228 20 9 20H7C5.34315 20 4 18.6569 4 17V15C4 14.4477 4.44772 14 5 14ZM18 15C18 14.4477 18.4477 14 19 14C19.5523 14 20 14.4477 20 15V17C20 18.6569 18.6569 20 17 20H15C14.4477 20 14 19.5523 14 19C14 18.4477 14.4477 18 15 18H17C17.5523 18 18 17.5523 18 17V15ZM5 10C5.55228 10 6 9.55228 6 9V7C6 6.44772 6.44772 6 7 6H9C9.55228 6 10 5.55228 10 5C10 4.44772 9.55228 4 9 4H7C5.34315 4 4 5.34315 4 7V9C4 9.55228 4.44772 10 5 10ZM18 9C18 9.55228 18.4477 10 19 10C19.5523 10 20 9.55228 20 9V7C20 5.34315 18.6569 4 17 4H15C14.4477 4 14 4.44772 14 5C14 5.55228 14.4477 6 15 6H17C17.5523 6 18 6.44772 18 7V9Z" fill="#12131A"/>
</svg>
