<svg width="24" height="24" viewBox="0 0 24 24" fill="none" xmlns="http://www.w3.org/2000/svg">
<path opacity="0.25" fill-rule="evenodd" clip-rule="evenodd" d="M22 12C22 17.5228 17.5228 22 12 22C6.47715 22 2 17.5228 2 12C2 6.47715 6.47715 2 12 2C17.5228 2 22 6.47715 22 12Z" fill="#12131A"/>
<path fill-rule="evenodd" clip-rule="evenodd" d="M11 5C11 4.44772 11.4477 4 12 4C12.5523 4 13 4.44772 13 5V7C13 7.55228 12.5523 8 12 8C11.4477 8 11 7.55228 11 7V5ZM12 16C11.4477 16 11 16.4477 11 17V19C11 19.5523 11.4477 20 12 20C12.5523 20 13 19.5523 13 19V17C13 16.4477 12.5523 16 12 16ZM19 11C19.5523 11 20 11.4477 20 12C20 12.5523 19.5523 13 19 13H17C16.4477 13 16 12.5523 16 12C16 11.4477 16.4477 11 17 11H19ZM8 12C8 11.4477 7.55228 11 7 11H5C4.44772 11 4 11.4477 4 12C4 12.5523 4.44772 13 5 13H7C7.55228 13 8 12.5523 8 12ZM16.2426 6.34309C16.6331 5.95257 17.2663 5.95257 17.6568 6.34309C18.0473 6.73362 18.0473 7.36678 17.6568 7.75731L16.2426 9.17152C15.8521 9.56204 15.2189 9.56204 14.8284 9.17152C14.4379 8.781 14.4379 8.14783 14.8284 7.75731L16.2426 6.34309ZM9.17158 14.8284C8.78106 14.4379 8.14789 14.4379 7.75737 14.8284L6.34316 16.2427C5.95263 16.6332 5.95263 17.2663 6.34316 17.6569C6.73368 18.0474 7.36685 18.0474 7.75737 17.6569L9.17158 16.2427C9.56211 15.8521 9.56211 15.219 9.17158 14.8284ZM17.6569 16.2426C18.0474 16.6331 18.0474 17.2663 17.6569 17.6568C17.2664 18.0473 16.6332 18.0473 16.2427 17.6568L14.8285 16.2426C14.438 15.8521 14.438 15.2189 14.8285 14.8284C15.219 14.4379 15.8522 14.4379 16.2427 14.8284L17.6569 16.2426ZM9.17156 9.17146C9.56208 8.78094 9.56208 8.14777 9.17156 7.75725L7.75734 6.34303C7.36682 5.95251 6.73365 5.95251 6.34313 6.34303C5.9526 6.73356 5.9526 7.36672 6.34313 7.75725L7.75734 9.17146C8.14787 9.56199 8.78103 9.56199 9.17156 9.17146Z" fill="#12131A"/>
</svg>
