<svg width="24" height="24" viewBox="0 0 24 24" fill="none" xmlns="http://www.w3.org/2000/svg">
<g opacity="0.25">
<path d="M20 3C20 2.44772 19.5523 2 19 2C18.4477 2 18 2.44772 18 3L18 21C18 21.5523 18.4477 22 19 22C19.5523 22 20 21.5523 20 21V3Z" fill="#12131A"/>
<path d="M12 2C12.5523 2 13 2.44772 13 3L13 21C13 21.5523 12.5523 22 12 22C11.4477 22 11 21.5523 11 21L11 3C11 2.44772 11.4477 2 12 2Z" fill="#12131A"/>
<path d="M5 2C5.55229 2 6 2.44772 6 3L6 21C6 21.5523 5.55229 22 5 22C4.44772 22 4 21.5523 4 21L4 3C4 2.44772 4.44772 2 5 2Z" fill="#12131A"/>
</g>
<path d="M17 7C17 8.10457 17.8954 9 19 9C20.1046 9 21 8.10457 21 7C21 5.89543 20.1046 5 19 5C17.8954 5 17 5.89543 17 7Z" fill="#12131A"/>
<path d="M12 19C10.8954 19 10 18.1046 10 17C10 15.8954 10.8954 15 12 15C13.1046 15 14 15.8954 14 17C14 18.1046 13.1046 19 12 19Z" fill="#12131A"/>
<path d="M5 14C3.89543 14 3 13.1046 3 12C3 10.8954 3.89543 10 5 10C6.10457 10 7 10.8954 7 12C7 13.1046 6.10457 14 5 14Z" fill="#12131A"/>
</svg>
