<svg width="24" height="24" viewBox="0 0 24 24" fill="none" xmlns="http://www.w3.org/2000/svg">
<path opacity="0.25" fill-rule="evenodd" clip-rule="evenodd" d="M5.54525 3.39358C3.34649 3.66842 1.64953 5.34244 1.34056 7.53666C1.15369 8.86378 1 10.4319 1 12C1 13.5681 1.15369 15.1362 1.34056 16.4633C1.64953 18.6576 3.34649 20.3316 5.54525 20.6064C7.22455 20.8163 9.42861 21 12 21C14.5714 21 16.7755 20.8163 18.4547 20.6064C20.6535 20.3316 22.3505 18.6576 22.6594 16.4633C22.8463 15.1362 23 13.5681 23 12C23 10.4319 22.8463 8.86378 22.6594 7.53666C22.3505 5.34244 20.6535 3.66842 18.4547 3.39358C16.7755 3.18367 14.5714 3 12 3C9.4286 3 7.22455 3.18367 5.54525 3.39358Z" fill="#12131A"/>
<path fill-rule="evenodd" clip-rule="evenodd" d="M15.6432 11.1521L10.53 7.95634C9.86395 7.54005 9 8.0189 9 8.80433V15.1958C9 15.9813 9.86395 16.4601 10.53 16.0438L15.6432 12.8481C16.2699 12.4564 16.2699 11.5438 15.6432 11.1521Z" fill="#12131A"/>
</svg>
