<svg width="24" height="24" viewBox="0 0 24 24" fill="none" xmlns="http://www.w3.org/2000/svg">
<path d="M16 4C15.4477 4 15 4.44772 15 5C15 5.55228 15.4477 6 16 6C19.3137 6 22 8.68629 22 12C22 15.3137 19.3137 18 16 18C15.4477 18 15 18.4477 15 19C15 19.5523 15.4477 20 16 20C20.4183 20 24 16.4183 24 12C24 7.58172 20.4183 4 16 4Z" fill="#12131A"/>
<path d="M16 8C15.4477 8 15 8.44772 15 9C15 9.55228 15.4477 10 16 10C17.1046 10 18 10.8954 18 12C18 13.1046 17.1046 14 16 14C15.4477 14 15 14.4477 15 15C15 15.5523 15.4477 16 16 16C18.2091 16 20 14.2091 20 12C20 9.79086 18.2091 8 16 8Z" fill="#12131A"/>
<path opacity="0.25" d="M5 9.00005L9.63212 4.65744C10.9094 3.45994 13 4.36563 13 6.11651V17.8836C13 19.6345 10.9095 20.5402 9.63212 19.3427L5 15H2C0.89543 15 0 14.1046 0 13V11.0001C0 9.89548 0.895431 9.00005 2 9.00005H5Z" fill="#12131A"/>
</svg>
