<svg width="24" height="24" viewBox="0 0 24 24" fill="none" xmlns="http://www.w3.org/2000/svg">
<path opacity="0.25" d="M3 7H21V19C21 20.6569 19.6569 22 18 22H6C4.34315 22 3 20.6569 3 19V7Z" fill="#12131A"/>
<path d="M9 13C9 12.4477 9.44772 12 10 12H14C14.5523 12 15 12.4477 15 13V13C15 13.5523 14.5523 14 14 14H10C9.44772 14 9 13.5523 9 13V13Z" fill="#12131A"/>
<path d="M2 4C2 2.89543 2.89543 2 4 2H20C21.1046 2 22 2.89543 22 4V6C22 7.10457 21.1046 8 20 8H4C2.89543 8 2 7.10457 2 6V4Z" fill="#12131A"/>
</svg>
