<svg width="24" height="24" viewBox="0 0 24 24" fill="none" xmlns="http://www.w3.org/2000/svg">
<path opacity="0.25" d="M1 5C1 3.89543 1.89543 3 3 3H21C22.1046 3 23 3.89543 23 5V11C23 12.1046 22.1046 13 21 13H14V9H12V13H3C1.89543 13 1 12.1046 1 11V5Z" fill="#12131A"/>
<path d="M5 7C4.44772 7 4 7.44772 4 8C4 8.55229 4.44772 9 5 9H6V18C6 19.6569 7.34315 21 9 21H11.5C11.7761 21 12 20.7761 12 20.5V9H14V20.5C14 20.7761 14.2239 21 14.5 21H15C16.6569 21 18 19.6569 18 18V9H19C19.5523 9 20 8.55229 20 8C20 7.44772 19.5523 7 19 7H5Z" fill="#12131A"/>
</svg>
