<svg width="24" height="24" viewBox="0 0 24 24" fill="none" xmlns="http://www.w3.org/2000/svg">
<path opacity="0.25" d="M2.36899 6.54184C2.65912 4.34504 4.34504 2.65912 6.54184 2.36899C8.05208 2.16953 9.94127 2 12 2C14.0587 2 15.9479 2.16953 17.4582 2.36899C19.655 2.65912 21.3409 4.34504 21.631 6.54184C21.8305 8.05208 22 9.94127 22 12C22 14.0587 21.8305 15.9479 21.631 17.4582C21.3409 19.655 19.655 21.3409 17.4582 21.631C15.9479 21.8305 14.0587 22 12 22C9.94127 22 8.05208 21.8305 6.54184 21.631C4.34504 21.3409 2.65912 19.655 2.36899 17.4582C2.16953 15.9479 2 14.0587 2 12C2 9.94127 2.16953 8.05208 2.36899 6.54184Z" fill="#12131A"/>
<path fill-rule="evenodd" clip-rule="evenodd" d="M16 11C15.4477 11 15 10.5523 15 10V9H14C13.4477 9 13 8.55228 13 8C13 7.44772 13.4477 7 14 7H15V6C15 5.44772 15.4477 5 16 5C16.5523 5 17 5.44772 17 6V7H18C18.5523 7 19 7.44772 19 8C19 8.55228 18.5523 9 18 9H17V10C17 10.5523 16.5523 11 16 11ZM6 7C5.44772 7 5 7.44772 5 8C5 8.55228 5.44772 9 6 9H10C10.5523 9 11 8.55228 11 8C11 7.44772 10.5523 7 10 7H6ZM14 13C13.4477 13 13 13.4477 13 14C13 14.5523 13.4477 15 14 15H18C18.5523 15 19 14.5523 19 14C19 13.4477 18.5523 13 18 13H14ZM14 17C13.4477 17 13 17.4477 13 18C13 18.5523 13.4477 19 14 19H18C18.5523 19 19 18.5523 19 18C19 17.4477 18.5523 17 18 17H14ZM7.20711 13.7929C6.81658 13.4024 6.18342 13.4024 5.79289 13.7929C5.40237 14.1834 5.40237 14.8166 5.79289 15.2071L6.58579 16L5.79289 16.7929C5.40237 17.1834 5.40237 17.8166 5.79289 18.2071C6.18342 18.5976 6.81658 18.5976 7.20711 18.2071L8 17.4142L8.79289 18.2071C9.18342 18.5976 9.81658 18.5976 10.2071 18.2071C10.5976 17.8166 10.5976 17.1834 10.2071 16.7929L9.41421 16L10.2071 15.2071C10.5976 14.8166 10.5976 14.1834 10.2071 13.7929C9.81658 13.4024 9.18342 13.4024 8.79289 13.7929L8 14.5858L7.20711 13.7929Z" fill="#12131A"/>
</svg>
