<svg width="24" height="24" viewBox="0 0 24 24" fill="none" xmlns="http://www.w3.org/2000/svg">
<path opacity="0.25" fill-rule="evenodd" clip-rule="evenodd" d="M1 6C1 4.34315 2.34315 3 4 3H20C21.6569 3 23 4.34315 23 6V18C23 19.6569 21.6569 21 20 21H4C2.34315 21 1 19.6569 1 18V6Z" fill="#12131A"/>
<path d="M18 6C17.4477 6 17 6.44771 17 7V17C17 17.5523 17.4477 18 18 18C18.5523 18 19 17.5523 19 17V7C19 6.44772 18.5523 6 18 6Z" fill="#12131A"/>
<path d="M10 8C9.44771 8 9 8.44772 9 9V17C9 17.5523 9.44771 18 10 18C10.5523 18 11 17.5523 11 17V9C11 8.44771 10.5523 8 10 8Z" fill="#12131A"/>
<path d="M6 14C5.44772 14 5 14.4477 5 15V17C5 17.5523 5.44772 18 6 18C6.55228 18 7 17.5523 7 17V15C7 14.4477 6.55228 14 6 14Z" fill="#12131A"/>
<path d="M13 11C13 10.4477 13.4477 10 14 10C14.5523 10 15 10.4477 15 11V17C15 17.5523 14.5523 18 14 18C13.4477 18 13 17.5523 13 17V11Z" fill="#12131A"/>
</svg>
