<svg width="24" height="24" viewBox="0 0 24 24" fill="none" xmlns="http://www.w3.org/2000/svg">
<path opacity="0.25" d="M3 4C3 2.34315 4.34315 1 6 1H15.7574C16.553 1 17.3161 1.31607 17.8787 1.87868L20.1213 4.12132C20.6839 4.68393 21 5.44699 21 6.24264V20C21 21.6569 19.6569 23 18 23H6C4.34315 23 3 21.6569 3 20V4Z" fill="#12131A"/>
<path d="M11 12C11 11.4477 11.4477 11 12 11C12.5523 11 13 11.4477 13 12V17C13 17.5523 12.5523 18 12 18C11.4477 18 11 17.5523 11 17V12Z" fill="#12131A"/>
<path d="M7 15C7 14.4477 7.44772 14 8 14C8.55229 14 9 14.4477 9 15V17C9 17.5523 8.55229 18 8 18C7.44772 18 7 17.5523 7 17V15Z" fill="#12131A"/>
<path d="M16 13C15.4477 13 15 13.4477 15 14V17C15 17.5523 15.4477 18 16 18C16.5523 18 17 17.5523 17 17V14C17 13.4477 16.5523 13 16 13Z" fill="#12131A"/>
<path d="M16.4978 1.04011C16.2256 0.993378 16 1.22387 16 1.50001V5.00001C16 5.55229 16.4477 6.00001 17 6.00001H20.5C20.7761 6.00001 21.0066 5.77437 20.9599 5.50221C20.8903 5.09715 20.7242 4.72417 20.4142 4.41422L17.5858 1.5858C17.2758 1.27585 16.9029 1.10967 16.4978 1.04011Z" fill="#12131A"/>
</svg>
