<svg width="24" height="24" viewBox="0 0 24 24" fill="none" xmlns="http://www.w3.org/2000/svg">
<path opacity="0.25" d="M2 5C2 3.34315 3.34315 2 5 2H19C20.6569 2 22 3.34315 22 5V14.7574C22 15.553 21.6839 16.3161 21.1213 16.8787L16.8787 21.1213C16.3161 21.6839 15.553 22 14.7574 22H5C3.34315 22 2 20.6569 2 19V5Z" fill="#12131A"/>
<path d="M21.8979 15.5335C21.9734 15.2514 21.7401 15 21.448 15H16C15.4477 15 15 15.4477 15 16V21.448C15 21.7401 15.2514 21.9734 15.5335 21.8979C16.038 21.7627 16.503 21.497 16.8787 21.1213L21.1213 16.8787C21.497 16.503 21.7627 16.038 21.8979 15.5335Z" fill="#12131A"/>
</svg>
