<svg width="24" height="24" viewBox="0 0 24 24" fill="none" xmlns="http://www.w3.org/2000/svg">
<path opacity="0.25" d="M18.7858 12.3929L10.9724 8.48619C10.5903 8.29515 10.1601 8.64025 10.2637 9.05467L10.9443 11.7769C10.9797 11.9185 11.0752 12.0376 11.2057 12.1029L17.3858 15.1929C18.2378 15.6189 19.2695 15.1915 19.5708 14.2879C19.8171 13.5489 19.4825 12.7413 18.7858 12.3929Z" fill="#12131A"/>
<path d="M6.83053 6.79047C6.92933 6.3294 7.33679 6 7.80833 6H10.1915C10.663 6 11.0705 6.3294 11.1693 6.79047L13.8704 19.3957C13.9498 19.766 13.8131 20.1495 13.5173 20.3861L9.62461 23.5002C9.25939 23.7924 8.74044 23.7924 8.37522 23.5002L4.48252 20.3861C4.18674 20.1495 4.05004 19.766 4.12941 19.3957L6.83053 6.79047Z" fill="#12131A"/>
<path opacity="0.25" d="M5.72349 0.552786C5.89288 0.214002 6.23915 0 6.61792 0H11.3819C11.7606 0 12.1069 0.214002 12.2763 0.552786L12.7763 1.55279C12.917 1.83431 12.917 2.16569 12.7763 2.44721L11.2763 5.44721C11.1069 5.786 10.7606 6 10.3819 6H7.61792C7.23915 6 6.89288 5.786 6.72349 5.44721L5.22349 2.44721C5.08273 2.16569 5.08273 1.83431 5.22349 1.55279L5.72349 0.552786Z" fill="#12131A"/>
</svg>
