<svg width="24" height="24" viewBox="0 0 24 24" fill="none" xmlns="http://www.w3.org/2000/svg">
<path opacity="0.25" d="M1 6C1 4.34315 2.34315 3 4 3H20C21.6569 3 23 4.34315 23 6V18C23 19.6569 21.6569 21 20 21H4C2.34315 21 1 19.6569 1 18V6Z" fill="#12131A"/>
<path fill-rule="evenodd" clip-rule="evenodd" d="M18 9H22C22.5523 9 23 9.44772 23 10V14C23 14.5523 22.5523 15 22 15H18C16.3431 15 15 13.6569 15 12C15 10.3431 16.3431 9 18 9ZM18 13C18.5523 13 19 12.5523 19 12C19 11.4477 18.5523 11 18 11C17.4477 11 17 11.4477 17 12C17 12.5523 17.4477 13 18 13Z" fill="#12131A"/>
</svg>
