<svg width="24" height="24" viewBox="0 0 24 24" fill="none" xmlns="http://www.w3.org/2000/svg">
<path opacity="0.25" fill-rule="evenodd" clip-rule="evenodd" d="M22 7V8L22.8944 8.44721C23.572 8.786 24 9.47852 24 10.2361V13.7639C24 14.5215 23.572 15.214 22.8944 15.5528L22 16V17C22 18.6569 20.6569 20 19 20H3C1.34315 20 0 18.6569 0 17V7C0 5.34315 1.34315 4 3 4H19C20.6569 4 22 5.34315 22 7Z" fill="#12131A"/>
<path d="M5 8C4.44772 8 4 8.44771 4 9V15C4 15.5523 4.44772 16 5 16C5.55228 16 6 15.5523 6 15V9C6 8.44771 5.55228 8 5 8Z" fill="#12131A"/>
<path d="M9 8C8.44771 8 8 8.44771 8 9V15C8 15.5523 8.44771 16 9 16C9.55229 16 10 15.5523 10 15V9C10 8.44771 9.55229 8 9 8Z" fill="#12131A"/>
<path d="M12 9C12 8.44771 12.4477 8 13 8C13.5523 8 14 8.44771 14 9V15C14 15.5523 13.5523 16 13 16C12.4477 16 12 15.5523 12 15V9Z" fill="#12131A"/>
<path d="M17 8C16.4477 8 16 8.44771 16 9V15C16 15.5523 16.4477 16 17 16C17.5523 16 18 15.5523 18 15V9C18 8.44771 17.5523 8 17 8Z" fill="#12131A"/>
</svg>
