<svg width="24" height="24" viewBox="0 0 24 24" fill="none" xmlns="http://www.w3.org/2000/svg">
<path opacity="0.25" d="M1.4526 8.37983C1.76537 5.87768 3.89237 4 6.41399 4H17.5862C20.1078 4 22.2348 5.87768 22.5476 8.37983L23.322 14.5757C23.6821 17.456 21.4363 20 18.5336 20C16.9301 20 15.5005 19.2154 14.6212 18H9.37894C8.4997 19.2154 7.07009 20 5.46656 20C2.5639 20 0.318082 17.456 0.678112 14.5757L1.4526 8.37983Z" fill="#12131A"/>
<path d="M8 8C7.44772 8 7 8.44772 7 9V10H6C5.44772 10 5 10.4477 5 11C5 11.5523 5.44772 12 6 12H7V13C7 13.5523 7.44772 14 8 14C8.55229 14 9 13.5523 9 13V12H10C10.5523 12 11 11.5523 11 11C11 10.4477 10.5523 10 10 10H9V9C9 8.44772 8.55229 8 8 8Z" fill="#12131A"/>
<path d="M18 10C18.5523 10 19 9.55229 19 9C19 8.44771 18.5523 8 18 8C17.4477 8 17 8.44771 17 9C17 9.55229 17.4477 10 18 10Z" fill="#12131A"/>
<path d="M16 14C16.5523 14 17 13.5523 17 13C17 12.4477 16.5523 12 16 12C15.4477 12 15 12.4477 15 13C15 13.5523 15.4477 14 16 14Z" fill="#12131A"/>
</svg>
