<svg width="24" height="24" viewBox="0 0 24 24" fill="none" xmlns="http://www.w3.org/2000/svg">
<path opacity="0.25" d="M5 7C5 5.89543 5.89543 5 7 5H17C18.1046 5 19 5.89543 19 7V17C19 18.1046 18.1046 19 17 19H7C5.89543 19 5 18.1046 5 17V7Z" fill="#12131A"/>
<path d="M10 11C10 10.4477 10.4477 10 11 10H13C13.5523 10 14 10.4477 14 11V13C14 13.5523 13.5523 14 13 14H11C10.4477 14 10 13.5523 10 13V11Z" fill="#12131A"/>
<path d="M9 2C8.44772 2 8 2.44772 8 3V5H10V3C10 2.44772 9.55228 2 9 2Z" fill="#12131A"/>
<path d="M10 21V19H8V21C8 21.5523 8.44772 22 9 22C9.55228 22 10 21.5523 10 21Z" fill="#12131A"/>
<path d="M14 3C14 2.44772 14.4477 2 15 2C15.5523 2 16 2.44772 16 3V5H14V3Z" fill="#12131A"/>
<path d="M16 21V19H14V21C14 21.5523 14.4477 22 15 22C15.5523 22 16 21.5523 16 21Z" fill="#12131A"/>
<path d="M21 8C21.5523 8 22 8.44772 22 9C22 9.55229 21.5523 10 21 10H19V8H21Z" fill="#12131A"/>
<path d="M3 10H5V8H3C2.44772 8 2 8.44771 2 9C2 9.55229 2.44772 10 3 10Z" fill="#12131A"/>
<path d="M21 14C21.5523 14 22 14.4477 22 15C22 15.5523 21.5523 16 21 16H19V14H21Z" fill="#12131A"/>
<path d="M3 16H5V14H3C2.44772 14 2 14.4477 2 15C2 15.5523 2.44772 16 3 16Z" fill="#12131A"/>
</svg>
