<svg width="24" height="24" viewBox="0 0 24 24" fill="none" xmlns="http://www.w3.org/2000/svg">
<g opacity="0.25">
<path d="M17 7C16.4477 7 16 7.44772 16 8V20C16 20.5523 16.4477 21 17 21C17.5523 21 18 20.5523 18 20V8C18 7.44772 17.5523 7 17 7Z" fill="#12131A"/>
<path d="M12 11C11.4477 11 11 11.4477 11 12V20C11 20.5523 11.4477 21 12 21C12.5523 21 13 20.5523 13 20V12C13 11.4477 12.5523 11 12 11Z" fill="#12131A"/>
<path d="M6 16C6 15.4477 6.44772 15 7 15C7.55228 15 8 15.4477 8 16V20C8 20.5523 7.55228 21 7 21C6.44772 21 6 20.5523 6 20V16Z" fill="#12131A"/>
<path d="M2 19C1.44772 19 1 19.4477 1 20C1 20.5523 1.44772 21 2 21C2.55228 21 3 20.5523 3 20C3 19.4477 2.55228 19 2 19Z" fill="#12131A"/>
</g>
<path d="M21 4C21 3.44772 21.4477 3 22 3C22.5523 3 23 3.44772 23 4V20C23 20.5523 22.5523 21 22 21C21.4477 21 21 20.5523 21 20V4Z" fill="#12131A"/>
</svg>
