<svg width="24" height="24" viewBox="0 0 24 24" fill="none" xmlns="http://www.w3.org/2000/svg">
<path d="M7 2V4L17 4V2C17 0.895431 16.1046 0 15 0H9C7.89543 0 7 0.895431 7 2Z" fill="#12131A"/>
<path d="M7 22V20H17V22C17 23.1046 16.1046 24 15 24H9C7.89543 24 7 23.1046 7 22Z" fill="#12131A"/>
<path opacity="0.25" d="M7 20C5.34315 20 4 18.6569 4 17L4 7C4 5.34315 5.34315 4 7 4L17 4C18.6569 4 20 5.34314 20 7L20 17C20 18.6569 18.6569 20 17 20L7 20Z" fill="#12131A"/>
<path d="M20 10C20.5523 10 21 10.4477 21 11V13C21 13.5523 20.5523 14 20 14V10Z" fill="#12131A"/>
</svg>
