<svg width="24" height="24" viewBox="0 0 24 24" fill="none" xmlns="http://www.w3.org/2000/svg">
<g opacity="0.25">
<path d="M2 7C2 6.44772 2.44772 6 3 6H5C5.55228 6 6 5.55228 6 5C6 4.44772 5.55228 4 5 4H3C1.34315 4 0 5.34315 0 7V9C0 9.55228 0.447715 10 1 10C1.55228 10 2 9.55228 2 9V7Z" fill="#12131A"/>
<path d="M22 17C22 17.5523 21.5523 18 21 18L19 18C18.4477 18 18 18.4477 18 19C18 19.5523 18.4477 20 19 20L21 20C22.6569 20 24 18.6569 24 17V15C24 14.4477 23.5523 14 23 14C22.4477 14 22 14.4477 22 15V17Z" fill="#12131A"/>
<path d="M2 17C2 17.5523 2.44772 18 3 18H5C5.55228 18 6 18.4477 6 19C6 19.5523 5.55228 20 5 20H3C1.34315 20 0 18.6569 0 17V15C0 14.4477 0.447715 14 1 14C1.55228 14 2 14.4477 2 15L2 17Z" fill="#12131A"/>
<path d="M21 6C21.5523 6 22 6.44772 22 7V9C22 9.55228 22.4477 10 23 10C23.5523 10 24 9.55228 24 9V7C24 5.34315 22.6569 4 21 4H19C18.4477 4 18 4.44772 18 5C18 5.55228 18.4477 6 19 6L21 6Z" fill="#12131A"/>
</g>
<path d="M5 8C4.44772 8 4 8.44772 4 9V15C4 15.5523 4.44772 16 5 16C5.55228 16 6 15.5523 6 15V9C6 8.44772 5.55228 8 5 8Z" fill="#12131A"/>
<path d="M18 8C17.4477 8 17 8.44772 17 9V15C17 15.5523 17.4477 16 18 16H19C19.5523 16 20 15.5523 20 15V9C20 8.44772 19.5523 8 19 8H18Z" fill="#12131A"/>
<path d="M8 9C8 8.44772 8.44772 8 9 8H10C10.5523 8 11 8.44772 11 9V15C11 15.5523 10.5523 16 10 16H9C8.44771 16 8 15.5523 8 15V9Z" fill="#12131A"/>
<path d="M14 8C13.4477 8 13 8.44772 13 9V15C13 15.5523 13.4477 16 14 16C14.5523 16 15 15.5523 15 15V9C15 8.44772 14.5523 8 14 8Z" fill="#12131A"/>
</svg>
