<svg width="24" height="24" viewBox="0 0 24 24" fill="none" xmlns="http://www.w3.org/2000/svg">
<path opacity="0.25" d="M13 15C13 13.8954 13.8954 13 15 13H21C22.1046 13 23 13.8954 23 15V21C23 22.1046 22.1046 23 21 23H15C13.8954 23 13 22.1046 13 21V15Z" fill="#12131A"/>
<path d="M17 13.1429C17 13.064 17.064 13 17.1429 13H18.8571C18.936 13 19 13.064 19 13.1429V15C19 15.5523 18.5523 16 18 16V16C17.4477 16 17 15.5523 17 15V13.1429Z" fill="#12131A"/>
<path opacity="0.25" d="M1 15C1 13.8954 1.89543 13 3 13H9C10.1046 13 11 13.8954 11 15V21C11 22.1046 10.1046 23 9 23H3C1.89543 23 1 22.1046 1 21V15Z" fill="#12131A"/>
<path d="M5 13.1429C5 13.064 5.06396 13 5.14286 13H6.85714C6.93604 13 7 13.064 7 13.1429V15C7 15.5523 6.55228 16 6 16V16C5.44772 16 5 15.5523 5 15V13.1429Z" fill="#12131A"/>
<path opacity="0.25" d="M7 3C7 1.89543 7.89543 1 9 1H15C16.1046 1 17 1.89543 17 3V9C17 10.1046 16.1046 11 15 11H9C7.89543 11 7 10.1046 7 9V3Z" fill="#12131A"/>
<path d="M11 1.14286C11 1.06396 11.064 1 11.1429 1H12.8571C12.936 1 13 1.06396 13 1.14286V3C13 3.55228 12.5523 4 12 4V4C11.4477 4 11 3.55228 11 3V1.14286Z" fill="#12131A"/>
</svg>
