<svg width="24" height="24" viewBox="0 0 24 24" fill="none" xmlns="http://www.w3.org/2000/svg">
<path opacity="0.25" d="M13 5H2C0.895431 5 0 5.89543 0 7V15C0 16.1046 0.895431 17 2 17H3H7H14.5C14.7761 17 15 16.7761 15 16.5V7.00057C15 5.896 14.1046 5 13 5Z" fill="#12131A"/>
<path d="M15.5 8C15.2239 8 15 8.22386 15 8.5V16.5C15 16.7761 15.2239 17 15.5 17H18H21H23C23.5523 17 24 16.5523 24 16V12.6637C24 12.0249 23.6948 11.4244 23.1786 11.0479L19.5267 8.38417C19.1844 8.13452 18.7717 8 18.3481 8H15.5Z" fill="#12131A"/>
<path d="M5 19C6.10457 19 7 18.1046 7 17C7 15.8954 6.10457 15 5 15C3.89543 15 3 15.8954 3 17C3 18.1046 3.89543 19 5 19Z" fill="#12131A"/>
<path d="M19 19C20.1046 19 21 18.1046 21 17C21 15.8954 20.1046 15 19 15C17.8954 15 17 15.8954 17 17C17 18.1046 17.8954 19 19 19Z" fill="#12131A"/>
</svg>
