<svg width="24" height="24" viewBox="0 0 24 24" fill="none" xmlns="http://www.w3.org/2000/svg">
<path opacity="0.25" d="M18.0001 2H6.00008C3.52794 2 2.11679 4.82229 3.60008 6.8L8.60008 13.4667C8.85972 13.8129 9.00008 14.2339 9.00008 14.6667V20.7299C9.00008 22.4256 10.9778 23.3519 12.2804 22.2664L14.2804 20.5997C14.7364 20.2197 15.0001 19.6568 15.0001 19.0632V14.6667C15.0001 14.2339 15.1404 13.8129 15.4001 13.4667L20.4001 6.8C21.8834 4.82229 20.4722 2 18.0001 2Z" fill="#12131A"/>
<path fill-rule="evenodd" clip-rule="evenodd" d="M5.34923 4.24076C5.76855 3.88134 6.39985 3.9299 6.75927 4.34923L11.2408 9.57763C11.6399 10.0432 12.3602 10.0432 12.7593 9.57763L17.2408 4.34923C17.6002 3.9299 18.2315 3.88134 18.6508 4.24076C19.0701 4.60018 19.1187 5.23148 18.7593 5.65081L14.2778 10.8792C13.0805 12.276 10.9195 12.276 9.72225 10.8792L5.24076 5.65081C4.88134 5.23148 4.9299 4.60018 5.34923 4.24076Z" fill="#12131A"/>
</svg>
