<svg width="24" height="24" viewBox="0 0 24 24" fill="none" xmlns="http://www.w3.org/2000/svg">
<path opacity="0.25" fill-rule="evenodd" clip-rule="evenodd" d="M6 2C5.44772 2 5 2.44772 5 3V21.0657C5 21.4651 5.44507 21.7033 5.77735 21.4818L7.51714 20.3219C7.81573 20.1228 8.19808 20.099 8.51906 20.2595L10.6584 21.3292C11.5029 21.7515 12.4971 21.7515 13.3416 21.3292L15.4809 20.2595C15.8019 20.099 16.1843 20.1228 16.4829 20.3219L18.2226 21.4818C18.5549 21.7033 19 21.4651 19 21.0657V3C19 2.44772 18.5523 2 18 2H6Z" fill="#12131A"/>
<path fill-rule="evenodd" clip-rule="evenodd" d="M8 8C8 7.44771 8.44771 7 9 7H11C11.5523 7 12 7.44771 12 8C12 8.55229 11.5523 9 11 9H9C8.44771 9 8 8.55229 8 8ZM14 8C14 7.44771 14.4477 7 15 7C15.5523 7 16 7.44771 16 8C16 8.55229 15.5523 9 15 9C14.4477 9 14 8.55229 14 8ZM8 12C8 11.4477 8.44771 11 9 11H11C11.5523 11 12 11.4477 12 12C12 12.5523 11.5523 13 11 13H9C8.44771 13 8 12.5523 8 12ZM14 12C14 11.4477 14.4477 11 15 11C15.5523 11 16 11.4477 16 12C16 12.5523 15.5523 13 15 13C14.4477 13 14 12.5523 14 12ZM8 16C8 15.4477 8.44771 15 9 15H11C11.5523 15 12 15.4477 12 16C12 16.5523 11.5523 17 11 17H9C8.44771 17 8 16.5523 8 16ZM14 16C14 15.4477 14.4477 15 15 15C15.5523 15 16 15.4477 16 16C16 16.5523 15.5523 17 15 17C14.4477 17 14 16.5523 14 16Z" fill="#12131A"/>
<path d="M2 3C2 2.44772 2.44772 2 3 2H21C21.5523 2 22 2.44772 22 3V3C22 3.55228 21.5523 4 21 4H3C2.44772 4 2 3.55228 2 3V3Z" fill="#12131A"/>
</svg>
