<svg width="24" height="24" viewBox="0 0 24 24" fill="none" xmlns="http://www.w3.org/2000/svg">
<path d="M2 5C2 3.89543 2.89543 3 4 3H20C21.1046 3 22 3.89543 22 5V5C22 6.10457 21.1046 7 20 7H4C2.89543 7 2 6.10457 2 5V5Z" fill="#12131A"/>
<path opacity="0.25" d="M5 12C5 10.8954 5.89543 10 7 10H17C18.1046 10 19 10.8954 19 12V12C19 13.1046 18.1046 14 17 14H7C5.89543 14 5 13.1046 5 12V12Z" fill="#12131A"/>
<path opacity="0.25" d="M8 19C8 17.8954 8.89543 17 10 17H14C15.1046 17 16 17.8954 16 19V19C16 20.1046 15.1046 21 14 21H10C8.89543 21 8 20.1046 8 19V19Z" fill="#12131A"/>
</svg>
