<svg width="24" height="24" viewBox="0 0 24 24" fill="none" xmlns="http://www.w3.org/2000/svg">
<circle opacity="0.25" cx="12" cy="12" r="10" fill="#12131A"/>
<path d="M16.0495 21.1463C15.7577 21.2757 15.4323 21.0809 15.3825 20.7656C15.0209 18.4763 14.4595 16.3766 13.6947 14.3832C11.7217 15.3397 9.5224 16.9882 6.54041 19.8854C6.36711 20.0538 6.09752 20.0769 5.90604 19.9295C5.61434 19.705 5.33538 19.4648 5.07043 19.2101C4.87444 19.0216 4.88113 18.7096 5.07586 18.5199C8.19793 15.4782 10.6183 13.634 12.916 12.5385C12.6104 11.8758 12.2807 11.2225 11.927 10.5752C9.24388 11.4208 6.20102 11.8838 2.50929 11.9809C2.22977 11.9883 1.99885 11.7624 2.01307 11.4832C2.03209 11.1098 2.07158 10.7419 2.13045 10.3804C2.168 10.1499 2.36861 9.9844 2.60206 9.97759C5.88095 9.88199 8.5589 9.48523 10.8889 8.80067C9.85666 7.14443 8.66154 5.50783 7.301 3.83241C7.10715 3.5937 7.16922 3.23687 7.44284 3.09654C7.77947 2.9239 8.12718 2.76979 8.4846 2.63555C8.67974 2.56227 8.89845 2.62649 9.02919 2.78884C10.4681 4.57575 11.7351 6.33662 12.8276 8.13547C14.8565 7.33353 16.6684 6.26771 18.4647 4.92446C18.66 4.7784 18.9332 4.78982 19.1048 4.9631C19.3634 5.22415 19.6077 5.49938 19.8364 5.78751C20.0038 5.99839 19.9587 6.3034 19.7436 6.46526C17.8819 7.86589 15.9729 9.01109 13.8292 9.8883C14.1663 10.518 14.4827 11.1547 14.7782 11.801C16.9153 11.1238 19.0207 11.0192 21.4963 11.003C21.7539 11.0014 21.9714 11.1966 21.9853 11.4538C21.995 11.6347 21.9999 11.8169 21.9999 12.0002C21.9999 12.1852 21.9949 12.3691 21.985 12.5517C21.9711 12.8076 21.7554 13.002 21.4991 13.0038C19.1397 13.021 17.3377 13.1171 15.5568 13.6532C16.3335 15.6748 16.9169 17.8068 17.3041 20.1219C17.3369 20.3184 17.2486 20.516 17.077 20.6173C16.7463 20.8126 16.4033 20.9894 16.0495 21.1463Z" fill="#12131A"/>
</svg>
