<svg width="24" height="24" viewBox="0 0 24 24" fill="none" xmlns="http://www.w3.org/2000/svg">
<path d="M16 0H12V8H8C5.79086 8 4 9.79086 4 12C4 14.2091 5.79086 16 8 16H12V8H16C18.2091 8 20 6.20914 20 4C20 1.79086 18.2091 0 16 0Z" fill="#12131A"/>
<g opacity="0.25">
<path d="M4 4C4 1.79086 5.79086 0 8 0H12V8H8C5.79086 8 4 6.20914 4 4Z" fill="#12131A"/>
<path d="M12 12C12 9.79086 13.7909 8 16 8C18.2091 8 20 9.79086 20 12C20 14.2091 18.2091 16 16 16C13.7909 16 12 14.2091 12 12Z" fill="#12131A"/>
<path d="M8 16C5.79086 16 4 17.7909 4 20C4 22.2091 5.79086 24 8 24C10.2091 24 12 22.2091 12 20V16H8Z" fill="#12131A"/>
</g>
</svg>
