<svg width="24" height="24" viewBox="0 0 24 24" fill="none" xmlns="http://www.w3.org/2000/svg">
<path opacity="0.25" d="M22 12C22 17.5228 17.5228 22 12 22C10.5778 22 9.22492 21.7031 8 21.1679L5.20344 21.7497C4.58261 21.8788 3.99989 21.4049 3.99977 20.7708L3.99927 18C2.74389 16.3287 2 14.2512 2 12C2 6.47715 6.47715 2 12 2C17.5228 2 22 6.47715 22 12Z" fill="#12131A"/>
<path d="M9.45558 9.77771L6.70499 13.7071C6.58637 13.8766 6.60653 14.1067 6.75279 14.253C6.89647 14.3967 7.1216 14.419 7.29067 14.3063L9.4627 12.8582C9.78972 12.6402 10.2141 12.634 10.5474 12.8423L13.195 14.497C13.6462 14.779 14.2391 14.6584 14.5442 14.2225L17.2948 10.2931C17.4134 10.1236 17.3933 9.89348 17.247 9.74721C17.1033 9.60353 16.8782 9.58124 16.7091 9.69395L14.5371 11.142C14.2101 11.36 13.7857 11.3662 13.4524 11.1579L10.8048 9.50317C10.3536 9.22119 9.76068 9.34185 9.45558 9.77771Z" fill="#12131A"/>
</svg>
