<svg width="24" height="24" viewBox="0 0 24 24" fill="none" xmlns="http://www.w3.org/2000/svg">
<circle opacity="0.25" cx="12" cy="12" r="10" fill="#12131A"/>
<path d="M8.53223 21.3824C8.29628 21.2951 8.17349 21.0391 8.24082 20.7968L11.0365 10.7324C11.1843 10.2002 11.7355 9.88867 12.2677 10.0365C12.7998 10.1843 13.1113 10.7355 12.9635 11.2676L11.9112 15.056C13.1622 15.3211 14.0396 15.0944 14.627 14.7061C15.37 14.215 15.8472 13.3358 15.9668 12.2917C16.0864 11.2467 15.8305 10.1502 15.2459 9.33801C14.6827 8.55555 13.7931 8 12.5 8C10.5791 8 9.43569 8.83125 8.8779 9.85385C8.29729 10.9183 8.27861 12.3212 8.89442 13.5528C9.1414 14.0468 8.94118 14.6474 8.4472 14.8944C7.95322 15.1414 7.35255 14.9412 7.10556 14.4472C6.22139 12.6788 6.20272 10.5817 7.12212 8.89615C8.06434 7.16875 9.92096 6 12.5 6C14.457 6 15.9423 6.88195 16.8692 8.16961C17.7746 9.42758 18.1239 11.0338 17.9538 12.5192C17.7836 14.0056 17.0762 15.4847 15.7299 16.3746C14.5809 17.134 13.1012 17.3769 11.3753 16.9852L10.1601 21.36C10.09 21.6122 9.83698 21.769 9.58295 21.7059C9.2247 21.617 8.87406 21.5088 8.53223 21.3824Z" fill="#12131A"/>
</svg>
