<svg width="24" height="24" viewBox="0 0 24 24" fill="none" xmlns="http://www.w3.org/2000/svg">
<path opacity="0.25" d="M2 5C2 3.34315 3.34315 2 5 2H19C20.6569 2 22 3.34315 22 5V19C22 20.6569 20.6569 22 19 22H5C3.34315 22 2 20.6569 2 19V5Z" fill="#12131A"/>
<path d="M7 5C5.89543 5 5 5.89543 5 7V17C5 18.1046 5.89543 19 7 19H9C10.1046 19 11 18.1046 11 17V7C11 5.89543 10.1046 5 9 5H7Z" fill="#12131A"/>
<path d="M15 5C13.8954 5 13 5.89543 13 7V10C13 11.1046 13.8954 12 15 12H17C18.1046 12 19 11.1046 19 10V7C19 5.89543 18.1046 5 17 5H15Z" fill="#12131A"/>
</svg>
