<svg width="24" height="24" viewBox="0 0 24 24" fill="none" xmlns="http://www.w3.org/2000/svg">
<path opacity="0.25" d="M2 6.72243C2 5.73244 2.72428 4.89142 3.70332 4.74456L19.7033 2.34456C20.9125 2.16318 22 3.0997 22 4.32243V19.6777C22 20.9004 20.9125 21.8369 19.7033 21.6556L3.70332 19.2556C2.72428 19.1087 2 18.2677 2 17.2777V6.72243Z" fill="#12131A"/>
<path d="M2.5 11C2.22386 11 2 11.2239 2 11.5V12.5C2 12.7762 2.22386 13 2.5 13H10V19.7692C10 20.0167 10.1811 20.227 10.4258 20.2637L11.4258 20.4137C11.7281 20.4591 12 20.2249 12 19.9192V13H21.5C21.7761 13 22 12.7762 22 12.5V11.5C22 11.2239 21.7761 11 21.5 11H12V4.08042C12 3.77474 11.7281 3.54061 11.4258 3.58596L10.4258 3.73596C10.1811 3.77267 10 3.98293 10 4.23042V11H2.5Z" fill="#12131A"/>
</svg>
