<svg width="24" height="24" viewBox="0 0 24 24" fill="none" xmlns="http://www.w3.org/2000/svg">
<path opacity="0.25" d="M22.3422 9.506C23.5181 10.9837 23.5181 13.0163 22.3422 14.494C20.4739 16.8417 17.0265 20 11.9999 20C6.97341 20 3.526 16.8417 1.65772 14.494C0.481768 13.0163 0.481768 10.9837 1.65772 9.506C3.526 7.15826 6.97341 4 11.9999 4C17.0265 4 20.4739 7.15826 22.3422 9.506Z" fill="#12131A"/>
<path fill-rule="evenodd" clip-rule="evenodd" d="M14 12C14 13.1046 13.1046 14 12 14C10.8954 14 10 13.1046 10 12C10 11.9716 10.0006 11.9434 10.0018 11.9153C10.1577 11.9701 10.3253 12 10.5 12C11.3284 12 12 11.3284 12 10.5C12 10.3253 11.9701 10.1577 11.9153 10.0018C11.9434 10.0006 11.9716 10 12 10C13.1046 10 14 10.8954 14 12ZM16 12C16 14.2091 14.2091 16 12 16C9.79086 16 8 14.2091 8 12C8 9.79086 9.79086 8 12 8C14.2091 8 16 9.79086 16 12Z" fill="#12131A"/>
</svg>
