<svg width="24" height="24" viewBox="0 0 24 24" fill="none" xmlns="http://www.w3.org/2000/svg">
<path opacity="0.25" fill-rule="evenodd" clip-rule="evenodd" d="M6.30179 8.41477C6.13289 7.45563 6 6.41137 6 5.5V0H18V5.5C18 6.41137 17.8671 7.45563 17.6982 8.41477C17.4137 10.0303 16.3562 11.3787 14.895 12C16.3562 12.6213 17.4137 13.9697 17.6982 15.5852C17.8671 16.5444 18 17.5886 18 18.5V24H6V18.5C6 17.5886 6.13289 16.5444 6.30179 15.5852C6.58627 13.9697 7.64383 12.6213 9.10503 12C7.64383 11.3787 6.58627 10.0303 6.30179 8.41477Z" fill="#12131A"/>
<path d="M4 1C4 0.447715 4.44772 0 5 0H19C19.5523 0 20 0.447715 20 1V1C20 1.55228 19.5523 2 19 2H5C4.44772 2 4 1.55228 4 1V1Z" fill="#12131A"/>
<path d="M4 23C4 22.4477 4.44772 22 5 22H19C19.5523 22 20 22.4477 20 23V23C20 23.5523 19.5523 24 19 24H5C4.44772 24 4 23.5523 4 23V23Z" fill="#12131A"/>
<path d="M8 22C8 21.3871 8.34626 20.8269 8.89443 20.5528L11.1056 19.4472C11.6686 19.1657 12.3314 19.1657 12.8944 19.4472L15.1056 20.5528C15.6537 20.8269 16 21.3871 16 22V22H8V22Z" fill="#12131A"/>
</svg>
