<svg width="24" height="24" viewBox="0 0 24 24" fill="none" xmlns="http://www.w3.org/2000/svg">
<path opacity="0.25" fill-rule="evenodd" clip-rule="evenodd" d="M2 16C1.44772 16 1 16.4477 1 17C1 17.5523 1.44772 18 2 18H13C13.5523 18 14 17.5523 14 17C14 16.4477 13.5523 16 13 16H2ZM19 16C18.4477 16 18 16.4477 18 17C18 17.5523 18.4477 18 19 18H22C22.5523 18 23 17.5523 23 17C23 16.4477 22.5523 16 22 16H19Z" fill="#12131A"/>
<path fill-rule="evenodd" clip-rule="evenodd" d="M16 21C18.2091 21 20 19.2091 20 17C20 14.7909 18.2091 13 16 13C13.7909 13 12 14.7909 12 17C12 19.2091 13.7909 21 16 21Z" fill="#12131A"/>
<path opacity="0.25" fill-rule="evenodd" clip-rule="evenodd" d="M2 6C1.44772 6 1 6.44772 1 7C1 7.55228 1.44772 8 2 8H5C5.55228 8 6 7.55228 6 7C6 6.44772 5.55228 6 5 6H2ZM11 6C10.4477 6 10 6.44772 10 7C10 7.55228 10.4477 8 11 8H22C22.5523 8 23 7.55228 23 7C23 6.44772 22.5523 6 22 6H11Z" fill="#12131A"/>
<path d="M8 11C10.2091 11 12 9.20914 12 7C12 4.79086 10.2091 3 8 3C5.79086 3 4 4.79086 4 7C4 9.20914 5.79086 11 8 11Z" fill="#12131A"/>
</svg>
