<svg width="24" height="24" viewBox="0 0 24 24" fill="none" xmlns="http://www.w3.org/2000/svg">
<rect opacity="0.25" y="4" width="24" height="16" rx="3" fill="#12131A"/>
<path d="M24 8.5C24 8.22386 23.775 8.00328 23.501 7.96918C21.6908 7.74391 20.2561 6.30917 20.0308 4.49901C19.9967 4.22498 19.7761 4 19.5 4H18.5C18.2239 4 17.9978 4.22464 18.0205 4.49985C18.2609 7.41487 20.5851 9.73906 23.5002 9.97948C23.7754 10.0022 24 9.77614 24 9.5V8.5Z" fill="#12131A"/>
<path d="M4.5 20C4.22386 20 4.00328 19.775 3.96918 19.501C3.74391 17.6908 2.30917 16.2561 0.499007 16.0308C0.224978 15.9967 0 15.7761 0 15.5V14.5C0 14.2239 0.224642 13.9978 0.49985 14.0205C3.41487 14.2609 5.73906 16.5851 5.97948 19.5002C6.00217 19.7754 5.77614 20 5.5 20H4.5Z" fill="#12131A"/>
<path d="M19.5 20C19.7761 20 19.9967 19.775 20.0308 19.501C20.2561 17.6908 21.6908 16.2561 23.501 16.0308C23.775 15.9967 24 15.7761 24 15.5V14.5C24 14.2239 23.7754 13.9978 23.5002 14.0205C20.5851 14.2609 18.2609 16.5851 18.0205 19.5002C17.9978 19.7754 18.2239 20 18.5 20H19.5Z" fill="#12131A"/>
<path d="M4.5 4C4.22386 4 4.00328 4.22498 3.96918 4.49901C3.74391 6.30916 2.30917 7.74391 0.499007 7.96918C0.224978 8.00328 0 8.22386 0 8.5V9.5C0 9.77614 0.224642 10.0022 0.49985 9.97948C3.41487 9.73906 5.73906 7.41487 5.97948 4.49985C6.00217 4.22464 5.77614 4 5.5 4H4.5Z" fill="#12131A"/>
<path d="M12 15C13.6569 15 15 13.6569 15 12C15 10.3431 13.6569 9 12 9C10.3431 9 9 10.3431 9 12C9 13.6569 10.3431 15 12 15Z" fill="#12131A"/>
</svg>
