<svg width="24" height="24" viewBox="0 0 24 24" fill="none" xmlns="http://www.w3.org/2000/svg">
<g opacity="0.25">
<path fill-rule="evenodd" clip-rule="evenodd" d="M5 2C3.34315 2 2 3.34315 2 5V10C2 10.5523 2.44772 11 3 11H21C21.5523 11 22 10.5523 22 10V5C22 3.34315 20.6569 2 19 2H5Z" fill="#12131A"/>
<path fill-rule="evenodd" clip-rule="evenodd" d="M22 14C22 13.4477 21.5523 13 21 13H3C2.44772 13 2 13.4477 2 14V19C2 20.6569 3.34315 22 5 22H19C20.6569 22 22 20.6569 22 19V14Z" fill="#12131A"/>
</g>
<path d="M10 5C9.44772 5 9 5.44772 9 6C9 6.55228 9.44772 7 10 7H14C14.5523 7 15 6.55228 15 6C15 5.44772 14.5523 5 14 5H10Z" fill="#12131A"/>
<path d="M10 16C9.44772 16 9 16.4477 9 17C9 17.5523 9.44772 18 10 18H14C14.5523 18 15 17.5523 15 17C15 16.4477 14.5523 16 14 16H10Z" fill="#12131A"/>
</svg>
