<svg width="24" height="24" viewBox="0 0 24 24" fill="none" xmlns="http://www.w3.org/2000/svg">
<circle opacity="0.25" cx="12" cy="12" r="10" fill="#12131A"/>
<path d="M11 5C11 4.44772 11.4477 4 12 4C12.5523 4 13 4.44772 13 5V6C14.6569 6 16 7.34315 16 9C16 9.55229 15.5523 10 15 10C14.4477 10 14 9.55229 14 9C14 8.44772 13.5523 8 13 8H11C10.4477 8 10 8.44771 10 9V9.55848C10 9.98891 10.2754 10.3711 10.6838 10.5072L13.9487 11.5955C15.1737 12.0038 16 13.1502 16 14.4415V15C16 16.6569 14.6569 18 13 18V19C13 19.5523 12.5523 20 12 20C11.4477 20 11 19.5523 11 19V18C9.34315 18 8 16.6569 8 15C8 14.4477 8.44771 14 9 14C9.55229 14 10 14.4477 10 15C10 15.5523 10.4477 16 11 16H13C13.5523 16 14 15.5523 14 15V14.4415C14 14.0111 13.7246 13.6289 13.3162 13.4928L10.0513 12.4045C8.82629 11.9962 8 10.8498 8 9.55848V9C8 7.34315 9.34315 6 11 6V5Z" fill="#12131A"/>
</svg>
