<svg width="24" height="24" viewBox="0 0 24 24" fill="none" xmlns="http://www.w3.org/2000/svg">
<path d="M8.8944 20.4472C9.14139 19.9532 8.94117 19.3525 8.44719 19.1055C7.95321 18.8586 7.35254 19.0588 7.10555 19.5528L6.10555 21.5528C5.85856 22.0467 6.05878 22.6474 6.55276 22.8944C7.04674 23.1414 7.64741 22.9412 7.8944 22.4472L8.8944 20.4472Z" fill="#12131A"/>
<path d="M15.1056 20.4472C14.8586 19.9532 15.0588 19.3525 15.5528 19.1055C16.0468 18.8586 16.6475 19.0588 16.8945 19.5528L17.8945 21.5528C18.1414 22.0467 17.9412 22.6474 17.4472 22.8944C16.9533 23.1414 16.3526 22.9412 16.1056 22.4472L15.1056 20.4472Z" fill="#12131A"/>
<path opacity="0.25" fill-rule="evenodd" clip-rule="evenodd" d="M11 2C11 1.44772 11.4477 1 12 1C12.5523 1 13 1.44772 13 2V3H18C19.6569 3 21 4.34315 21 6V14C21 15.6569 19.6569 17 18 17H6C4.34315 17 3 15.6569 3 14V6C3 4.34315 4.34315 3 6 3H11V2Z" fill="#12131A"/>
<path fill-rule="evenodd" clip-rule="evenodd" d="M17.6247 6.21917C18.056 6.56418 18.1259 7.19347 17.7809 7.62473L13.7809 12.6247C13.4568 13.0298 12.8769 13.1198 12.4453 12.8321L10.1274 11.2868L7.70711 13.7071C7.31658 14.0977 6.68342 14.0977 6.29289 13.7071C5.90237 13.3166 5.90237 12.6835 6.29289 12.2929L9.29289 9.29293C9.62996 8.95587 10.1581 8.90357 10.5547 9.16799L12.7919 10.6594L16.2191 6.37534C16.5641 5.94408 17.1934 5.87416 17.6247 6.21917Z" fill="#12131A"/>
</svg>
