<svg width="24" height="24" viewBox="0 0 24 24" fill="none" xmlns="http://www.w3.org/2000/svg">
<path opacity="0.25" d="M1.79285 13.7253L0.36428 18.7253C0.181761 19.3641 0.661425 20 1.3258 20H9.67434C10.3387 20 10.8184 19.3641 10.6359 18.7253L9.2073 13.7253C9.08464 13.296 8.69225 13 8.24577 13H2.75437C2.30789 13 1.91551 13.296 1.79285 13.7253Z" fill="#12131A"/>
<path opacity="0.25" d="M14.7929 13.7253L13.3643 18.7253C13.1818 19.3641 13.6614 20 14.3258 20H22.6743C23.3387 20 23.8184 19.3641 23.6359 18.7253L22.2073 13.7253C22.0846 13.296 21.6923 13 21.2458 13H15.7544C15.3079 13 14.9155 13.296 14.7929 13.7253Z" fill="#12131A"/>
<path d="M8.29285 4.72528L6.86428 9.72528C6.68176 10.3641 7.16143 11 7.8258 11H16.1743C16.8387 11 17.3184 10.3641 17.1359 9.72528L15.7073 4.72528C15.5846 4.29598 15.1923 4 14.7458 4H9.25437C8.80789 4 8.41551 4.29598 8.29285 4.72528Z" fill="#12131A"/>
</svg>
