<svg width="24" height="24" viewBox="0 0 24 24" fill="none" xmlns="http://www.w3.org/2000/svg">
<path opacity="0.25" fill-rule="evenodd" clip-rule="evenodd" d="M5 2C3.34315 2 2 3.34315 2 5V17C2 18.6569 3.34315 20 5 20L5 21C5 21.5523 5.44772 22 6 22C6.55228 22 7 21.5523 7 21V20H17V21C17 21.5523 17.4477 22 18 22C18.5523 22 19 21.5523 19 21V20C20.6569 20 22 18.6569 22 17V5C22 3.34315 20.6569 2 19 2H5Z" fill="#12131A"/>
<path fill-rule="evenodd" clip-rule="evenodd" d="M11 7C11 6.44772 11.4477 6 12 6C12.5523 6 13 6.44772 13 7V8.17071C13.8524 8.47199 14.528 9.14759 14.8293 10H16C16.5523 10 17 10.4477 17 11C17 11.5523 16.5523 12 16 12H14.8293C14.528 12.8524 13.8524 13.528 13 13.8293V15C13 15.5523 12.5523 16 12 16C11.4477 16 11 15.5523 11 15V13.8293C10.1476 13.528 9.47199 12.8524 9.17071 12H8C7.44772 12 7 11.5523 7 11C7 10.4477 7.44772 10 8 10H9.17071C9.47199 9.14759 10.1476 8.47199 11 8.17071V7ZM11 11C11 11.5523 11.4477 12 12 12C12.5523 12 13 11.5523 13 11C13 10.4477 12.5523 10 12 10C11.4477 10 11 10.4477 11 11Z" fill="#12131A"/>
</svg>
