<svg width="24" height="24" viewBox="0 0 24 24" fill="none" xmlns="http://www.w3.org/2000/svg">
<path opacity="0.25" d="M6 9L18 9V16C18 17.3062 17.1652 18.4175 16 18.8293V21C16 21.5523 15.5523 22 15 22C14.4477 22 14 21.5523 14 21V19H10V21C10 21.5523 9.55228 22 9 22C8.44772 22 8 21.5523 8 21V18.8293C6.83481 18.4175 6 17.3062 6 16V9Z" fill="#12131A"/>
<path d="M7.55276 2.10579C8.04674 1.8588 8.64741 2.05903 8.8944 2.55301L9.41083 3.58586C10.1947 3.21032 11.0728 3 12 3C12.9272 3 13.8053 3.21032 14.5892 3.58586L15.1056 2.55301C15.3526 2.05903 15.9533 1.8588 16.4472 2.10579C16.9412 2.35278 17.1414 2.95345 16.8945 3.44743L16.2405 4.75526C17.3276 5.84121 18 7.34208 18 9H6C6 7.34208 6.67244 5.84121 7.75946 4.75526L7.10555 3.44743C6.85856 2.95345 7.05878 2.35278 7.55276 2.10579Z" fill="#12131A"/>
<path d="M3 9C2.44772 9 2 9.44772 2 10V14C2 14.5523 2.44772 15 3 15C3.55228 15 4 14.5523 4 14V10C4 9.44772 3.55228 9 3 9Z" fill="#12131A"/>
<path d="M21 9C20.4477 9 20 9.44772 20 10V14C20 14.5523 20.4477 15 21 15C21.5523 15 22 14.5523 22 14V10C22 9.44772 21.5523 9 21 9Z" fill="#12131A"/>
</svg>
