<svg width="24" height="24" viewBox="0 0 24 24" fill="none" xmlns="http://www.w3.org/2000/svg">
<path opacity="0.25" d="M10.3078 6.55375C9.71281 6.28719 9.0718 6 8 6C4 6 3.00003 10.0002 3 14C2.99997 17.9998 6 23 8 23C9.17157 23 10 22.6569 10.6863 22.3726C11.1716 22.1716 11.5858 22 12 22C12.4142 22 12.8284 22.1716 13.3137 22.3726C14 22.6569 14.8284 23 16 23C17.4277 23 19.3651 20.4521 20.3569 17.5387C20.4567 17.2453 20.253 16.9427 19.9538 16.8618C18.2521 16.4019 17 14.8472 17 13C17 11.257 18.1149 9.7743 19.6705 9.22627C19.9659 9.12218 20.1482 8.79868 20.009 8.51806C19.26 7.00805 18.008 6 16 6C14.9282 6 14.2872 6.28719 13.6922 6.55375C13.1769 6.78461 12.6962 7 12 7C11.3038 7 10.8231 6.78461 10.3078 6.55375Z" fill="#12131A"/>
<path d="M12 4.75C12 2.67893 13.6789 1 15.75 1C15.8881 1 16 1.11193 16 1.25C16 3.32107 14.3211 5 12.25 5C12.1119 5 12 4.88807 12 4.75Z" fill="#12131A"/>
</svg>
