<svg width="24" height="24" viewBox="0 0 24 24" fill="none" xmlns="http://www.w3.org/2000/svg">
<circle opacity="0.25" cx="12" cy="12" r="10" fill="#12131A"/>
<path d="M11.5002 21.9877C11.776 22.0013 12 21.7761 12 21.5V14H14C14.5523 14 15 13.5523 15 13C15 12.4477 14.5523 12 14 12H12V10C12 9.44772 12.4477 9 13 9H14C14.5523 9 15 8.55229 15 8C15 7.44772 14.5523 7 14 7H13C11.3431 7 10 8.34315 10 10V12H9C8.44772 12 8 12.4477 8 13C8 13.5523 8.44771 14 9 14H10V21.3913C10 21.6291 10.1673 21.8353 10.4021 21.873C10.7621 21.9308 11.1285 21.9694 11.5002 21.9877Z" fill="#12131A"/>
</svg>
