<svg width="24" height="24" viewBox="0 0 24 24" fill="none" xmlns="http://www.w3.org/2000/svg">
<g clip-path="url(#clip0)">
<path opacity="0.25" d="M6 0C4.89543 0 4 0.895431 4 2V23C4 23.4166 4.25828 23.7896 4.64827 23.9361C5.03826 24.0826 5.47824 23.972 5.75258 23.6585L12.155 16.3415C12.3448 16.1245 12.6192 16 12.9075 16H16.1916C17.1347 16 17.9496 15.3412 18.1472 14.4191L20.7186 2.41906C20.9854 1.17403 20.0363 0 18.763 0H6Z" fill="#12131A"/>
<path d="M19.6074 7.60476C19.6741 7.29351 19.4368 7 19.1185 7H12C11.4477 7 11 7.44772 11 8C11 8.55228 11.4477 9 12 9H18.9042C19.14 9 19.3437 8.8353 19.3931 8.60476L19.6074 7.60476Z" fill="#12131A"/>
</g>
<defs>
<clipPath id="clip0">
<rect width="24" height="24" fill="white"/>
</clipPath>
</defs>
</svg>
