<svg width="24" height="24" viewBox="0 0 24 24" fill="none" xmlns="http://www.w3.org/2000/svg">
<g opacity="0.25">
<path d="M6 0C5.44772 0 5 0.447716 5 1V22.7802C5 23.4112 5.57733 23.8845 6.19612 23.7608L9.19612 23.1608C9.66354 23.0673 10 22.6569 10 22.1802V1C10 0.447715 9.55228 0 9 0H6Z" fill="#12131A"/>
<path d="M15 0C14.4477 0 14 0.447715 14 1V22.1802C14 22.6569 14.3365 23.0673 14.8039 23.1608L17.8039 23.7608C18.4227 23.8845 19 23.4112 19 22.7802V1C19 0.447715 18.5523 0 18 0H15Z" fill="#12131A"/>
</g>
<path d="M8.61409 0H5.73266C5.38053 0 5.13872 0.354282 5.26704 0.682199L13.6017 21.982C13.85 22.6164 14.404 23.0808 15.072 23.2144L18.118 23.8236C18.5026 23.9005 18.8219 23.5249 18.6842 23.1577L10.4867 1.29775C10.194 0.517146 9.44778 0 8.61409 0Z" fill="#12131A"/>
</svg>
