<svg width="24" height="24" viewBox="0 0 24 24" fill="none" xmlns="http://www.w3.org/2000/svg">
<path opacity="0.25" d="M9.58091 20.7012L2.38768 10.8922C1.5725 9.78064 1.61975 8.25657 2.50222 7.1976L5.28717 3.85567C5.74714 3.30371 6.38992 2.93516 7.09864 2.81704L11.5069 2.08232C11.8335 2.0279 12.1668 2.0279 12.4933 2.08232L16.9016 2.81704C17.6103 2.93516 18.2531 3.30371 18.7131 3.85566L21.498 7.1976C22.3805 8.25657 22.4277 9.78064 21.6126 10.8922L14.4193 20.7012C13.2207 22.3357 10.7796 22.3357 9.58091 20.7012Z" fill="#12131A"/>
<path fill-rule="evenodd" clip-rule="evenodd" d="M12.345 2.0614C12.5412 2.13354 12.7128 2.26646 12.8321 2.4453L15.653 6.67675L16.8153 2.80264L16.9016 2.81704C17.5635 2.92735 18.1679 3.25608 18.6195 3.74865L17.3441 8H21.9775C22.2333 8.6372 22.2625 9.34476 22.0611 10H16.7441L16.6705 10.2452L16.6419 10.2366L12.9487 21.3162C12.863 21.5733 12.6798 21.7777 12.4485 21.8938C12.1513 21.9382 11.8486 21.9382 11.5514 21.8938C11.3201 21.7776 11.137 21.5732 11.0513 21.3162L7.35813 10.2367L7.32958 10.2452L7.25601 10H1.93913C1.73777 9.34476 1.76691 8.6372 2.02274 8H6.65601L5.38064 3.74875C5.8323 3.25613 6.43671 2.92736 7.09864 2.81704L7.18487 2.80266L8.34706 6.67664L11.168 2.4453C11.2872 2.26649 11.4587 2.13358 11.6549 2.06144C11.8842 2.03487 12.1157 2.03486 12.345 2.0614ZM12 4.80278L14.1315 8H9.86852L12 4.80278ZM12 17.8377L9.38743 10H14.6126L12 17.8377Z" fill="#12131A"/>
</svg>
