<svg width="24" height="24" viewBox="0 0 24 24" fill="none" xmlns="http://www.w3.org/2000/svg">
<path opacity="0.25" fill-rule="evenodd" clip-rule="evenodd" d="M12 6.46154C12 5.10207 13.1021 4 14.4615 4C17.0924 4 19.2948 5.8343 19.8596 8.29374C22.263 9.07646 24 11.3354 24 14C24 17.3137 21.3137 20 18 20H16H15C13.3431 20 12 18.6569 12 17V16V15V6.46154Z" fill="#12131A"/>
<path d="M8 9C8 8.44771 8.44772 8 9 8C9.55228 8 10 8.44772 10 9V19C10 19.5523 9.55228 20 9 20C8.44772 20 8 19.5523 8 19V9Z" fill="#12131A"/>
<path d="M4 12C4 11.4477 4.44772 11 5 11C5.55228 11 6 11.4477 6 12V19C6 19.5523 5.55228 20 5 20C4.44772 20 4 19.5523 4 19V12Z" fill="#12131A"/>
<path d="M1 14C0.447715 14 0 14.4477 0 15V19C0 19.5523 0.447715 20 1 20C1.55228 20 2 19.5523 2 19V15C2 14.4477 1.55228 14 1 14Z" fill="#12131A"/>
</svg>
