<svg width="24" height="24" viewBox="0 0 24 24" fill="none" xmlns="http://www.w3.org/2000/svg">
<path opacity="0.25" d="M2 5C2 3.34315 3.34315 2 5 2H19C20.6569 2 22 3.34315 22 5V19C22 20.6569 20.6569 22 19 22H5C3.34315 22 2 20.6569 2 19V5Z" fill="#12131A"/>
<path d="M14 7C14 6.44772 13.5523 6 13 6C12.4477 6 12 6.44772 12 7V14.5C12 15.3284 11.3284 16 10.5 16C9.67157 16 9 15.3284 9 14.5C9 13.8125 9.56207 13.1095 10.1989 12.9802C10.7402 12.8703 11.0899 12.3425 10.98 11.8013C10.8701 11.26 10.3423 10.9103 9.80107 11.0202C8.1731 11.3506 7 12.9227 7 14.5C7 16.433 8.567 18 10.5 18C12.4319 18 13.9982 16.4347 14 14.5032L14 14.5V10.4649C14.5883 10.8052 15.2714 11 16 11C16.5523 11 17 10.5523 17 10C17 9.44771 16.5523 9 16 9C14.8954 9 14 8.10457 14 7Z" fill="#12131A"/>
</svg>
