<svg width="24" height="24" viewBox="0 0 24 24" fill="none" xmlns="http://www.w3.org/2000/svg">
<path opacity="0.25" d="M0.204737 7.68604C0.350133 5.82087 1.821 4.36169 3.68826 4.24606C5.68542 4.12239 8.53673 4 12 4C15.4633 4 18.3146 4.12239 20.3117 4.24606C22.179 4.36169 23.6499 5.82087 23.7953 7.68604C23.9035 9.07434 24 10.6819 24 12C24 13.3181 23.9035 14.9257 23.7953 16.314C23.6499 18.1791 22.179 19.6383 20.3117 19.7539C18.3146 19.8776 15.4633 20 12 20C8.53673 20 5.68542 19.8776 3.68826 19.7539C1.821 19.6383 0.350133 18.1791 0.204737 16.314C0.0965153 14.9257 0 13.3181 0 12C0 10.6819 0.0965153 9.07434 0.204737 7.68604Z" fill="#12131A"/>
<path d="M11.5547 9.03633L14.752 11.1678C15.3457 11.5636 15.3457 12.4361 14.752 12.8319L11.5547 14.9634C10.8902 15.4064 10 14.93 10 14.1313L10 9.86838C10 9.06969 10.8902 8.59329 11.5547 9.03633Z" fill="#12131A"/>
</svg>
