<svg width="24" height="24" viewBox="0 0 24 24" fill="none" xmlns="http://www.w3.org/2000/svg">
<path opacity="0.25" fill-rule="evenodd" clip-rule="evenodd" d="M6.81113 1.14921C4.7967 1.2786 3.2974 2.8001 3.17794 4.81514C3.0811 6.44881 3.00002 8.77846 3 12C2.99997 17.0256 3.19727 20.4726 3.34399 22.3412C3.4031 23.0939 4.24523 23.4739 4.8621 23.0385L11.4233 18.4071C11.769 18.163 12.2309 18.163 12.5766 18.4071L19.1378 23.0385C19.7547 23.4739 20.5968 23.0939 20.6559 22.3412C20.8026 20.4726 20.9999 17.0256 20.9999 12C20.9999 8.77836 20.9189 6.44867 20.822 4.81499C20.7025 2.80002 19.2033 1.27861 17.1889 1.14922C15.8866 1.06557 14.1728 1 11.9999 1C9.8272 1 8.11343 1.06557 6.81113 1.14921Z" fill="#12131A"/>
<path fill-rule="evenodd" clip-rule="evenodd" d="M6.81115 1.14921C4.79672 1.2786 3.29741 2.8001 3.17796 4.81514C3.17436 4.8758 3.17079 4.93741 3.16724 5C5 5 19 5 20.8327 5C20.8292 4.93736 20.8256 4.8757 20.822 4.81499C20.7025 2.80002 19.2033 1.27861 17.1889 1.14922C15.8866 1.06557 14.1728 1 12 1C9.82721 1 8.11344 1.06557 6.81115 1.14921Z" fill="#12131A"/>
</svg>
