<svg width="24" height="24" viewBox="0 0 24 24" fill="none" xmlns="http://www.w3.org/2000/svg">
<path opacity="0.25" d="M12 4.80957C10.8321 3.6888 9.24649 3 7.5 3C3.91015 3 1 5.91015 1 9.5C1 15.8683 7.97034 19.385 10.8138 20.5547C11.5796 20.8697 12.4204 20.8697 13.1862 20.5547C16.0297 19.385 23 15.8682 23 9.5C23 5.91015 20.0899 3 16.5 3C14.7535 3 13.1679 3.6888 12 4.80957Z" fill="#12131A"/>
<path fill-rule="evenodd" clip-rule="evenodd" d="M12 8.86061L10.9229 7.9028C10.2926 7.34226 9.44106 7 8.5 7C6.567 7 5 8.45209 5 10.2433C5 12.4009 6.6 14.0961 8.59852 15.3588C9.56679 15.9706 10.546 16.4254 11.289 16.7279C11.5668 16.841 11.8084 16.9316 12 17C12.1916 16.9316 12.4332 16.841 12.711 16.7279C13.454 16.4254 14.4332 15.9706 15.4015 15.3588C17.4 14.0961 19 12.4009 19 10.2433C19 8.45209 17.433 7 15.5 7C14.5589 7 13.7074 7.34226 13.0771 7.9028L12 8.86061Z" fill="#12131A"/>
</svg>
