<svg width="24" height="24" viewBox="0 0 24 24" fill="none" xmlns="http://www.w3.org/2000/svg">
<path opacity="0.25" d="M3.16184 12.1434C3.30146 10.5346 4.53621 9.31947 6.14628 9.19597C7.51009 9.09136 9.43529 9 12 9C14.5647 9 16.4899 9.09136 17.8537 9.19597C19.4638 9.31947 20.6985 10.5346 20.8382 12.1434C20.9277 13.1755 21 14.4794 21 16C21 17.5206 20.9277 18.8245 20.8382 19.8566C20.6985 21.4654 19.4638 22.6805 17.8537 22.804C16.4899 22.9086 14.5647 23 12 23C9.43529 23 7.51009 22.9086 6.14628 22.804C4.53621 22.6805 3.30146 21.4654 3.16184 19.8566C3.07226 18.8245 3 17.5206 3 16C3 14.4794 3.07226 13.1755 3.16184 12.1434Z" fill="#12131A"/>
<path fill-rule="evenodd" clip-rule="evenodd" d="M9.20711 6.20711C8.81658 6.59763 8.18342 6.59763 7.79289 6.20711C7.40237 5.81658 7.40237 5.18342 7.79289 4.79289L11.2929 1.29289C11.6834 0.902369 12.3166 0.902369 12.7071 1.29289L16.2071 4.79289C16.5976 5.18342 16.5976 5.81658 16.2071 6.20711C15.8166 6.59763 15.1834 6.59763 14.7929 6.20711L13 4.41421V14C13 14.5523 12.5523 15 12 15C11.4477 15 11 14.5523 11 14V4.41421L9.20711 6.20711Z" fill="#12131A"/>
</svg>
