<svg width="24" height="24" viewBox="0 0 24 24" fill="none" xmlns="http://www.w3.org/2000/svg">
<path opacity="0.25" d="M11.0818 3.12771C11.4292 2.32266 12.5707 2.32266 12.9181 3.12771L15.0982 8.1796C15.2453 8.52048 15.5691 8.75181 15.9393 8.78042L21.5299 9.21241C22.4269 9.28172 22.7833 10.4078 22.0896 10.9806L17.8852 14.4518C17.5886 14.6967 17.4588 15.0899 17.5511 15.4632L18.8451 20.6916C19.0579 21.5514 18.1303 22.2429 17.367 21.7935L12.5073 18.9326C12.1942 18.7482 11.8058 18.7482 11.4927 18.9326L6.63292 21.7935C5.86962 22.2429 4.9421 21.5514 5.15489 20.6916L6.44882 15.4632C6.54121 15.0899 6.41134 14.6967 6.11478 14.4518L1.9104 10.9806C1.21664 10.4078 1.57304 9.28172 2.47003 9.21241L8.06068 8.78042C8.43085 8.75181 8.7547 8.52048 8.9018 8.1796L11.0818 3.12771Z" fill="#12131A"/>
<path d="M11.5351 8.31608C11.7018 7.89464 12.2982 7.89464 12.465 8.31608L13.2766 10.3678C13.3464 10.5444 13.5103 10.6662 13.6995 10.6821L15.8494 10.8634C16.2857 10.9001 16.4673 11.4401 16.142 11.7331L14.4679 13.241C14.3333 13.3622 14.2748 13.5466 14.3149 13.7232L14.8198 15.9491C14.9189 16.3855 14.4386 16.7222 14.062 16.4804L12.2702 15.3296C12.1056 15.2239 11.8944 15.2239 11.7298 15.3296L9.93797 16.4804C9.56142 16.7222 9.08116 16.3855 9.18017 15.9491L9.68514 13.7232C9.7252 13.5466 9.66668 13.3622 9.53216 13.241L7.85798 11.7331C7.53267 11.4401 7.71434 10.9001 8.1506 10.8634L10.3005 10.6821C10.4897 10.6662 10.6536 10.5444 10.7235 10.3678L11.5351 8.31608Z" fill="#12131A"/>
</svg>
