<svg width="24" height="24" viewBox="0 0 24 24" fill="none" xmlns="http://www.w3.org/2000/svg">
<path opacity="0.25" d="M2 4C2 2.89543 2.89543 2 4 2H20C21.1046 2 22 2.89543 22 4V20C22 21.1046 21.1046 22 20 22H4C2.89543 22 2 21.1046 2 20V4Z" fill="#12131A"/>
<path fill-rule="evenodd" clip-rule="evenodd" d="M5 6C5 5.44772 5.44772 5 6 5H10C10.5523 5 11 5.44772 11 6C11 6.55228 10.5523 7 10 7H6C5.44772 7 5 6.55228 5 6ZM6 17C5.44772 17 5 17.4477 5 18C5 18.5523 5.44772 19 6 19H18C18.5523 19 19 18.5523 19 18C19 17.4477 18.5523 17 18 17H6ZM5 14C5 13.4477 5.44772 13 6 13H14C14.5523 13 15 13.4477 15 14C15 14.5523 14.5523 15 14 15H6C5.44772 15 5 14.5523 5 14ZM6 9C5.44772 9 5 9.44771 5 10C5 10.5523 5.44771 11 6 11H16C16.5523 11 17 10.5523 17 10C17 9.44771 16.5523 9 16 9H6Z" fill="#12131A"/>
</svg>
