<svg width="24" height="24" viewBox="0 0 24 24" fill="none" xmlns="http://www.w3.org/2000/svg">
<path opacity="0.25" d="M7 19C7 17.8954 7.89543 17 9 17H11C12.1046 17 13 17.8954 13 19V19C13 20.1046 12.1046 21 11 21H9C7.89543 21 7 20.1046 7 19V19Z" fill="#12131A"/>
<path opacity="0.25" d="M7 12C7 10.8954 7.89543 10 9 10H14C15.1046 10 16 10.8954 16 12V12C16 13.1046 15.1046 14 14 14H9C7.89543 14 7 13.1046 7 12V12Z" fill="#12131A"/>
<path d="M7 5C7 3.89543 7.89543 3 9 3H19C20.1046 3 21 3.89543 21 5V5C21 6.10457 20.1046 7 19 7H9C7.89543 7 7 6.10457 7 5V5Z" fill="#12131A"/>
<path opacity="0.25" fill-rule="evenodd" clip-rule="evenodd" d="M4 1C4.55228 1 5 1.44772 5 2V22C5 22.5523 4.55228 23 4 23C3.44772 23 3 22.5523 3 22V2C3 1.44772 3.44772 1 4 1Z" fill="#12131A"/>
</svg>
