<svg width="24" height="24" viewBox="0 0 24 24" fill="none" xmlns="http://www.w3.org/2000/svg">
<path opacity="0.25" d="M22 12C22 17.5228 17.5228 22 12 22C6.47715 22 2 17.5228 2 12C2 6.47715 6.47715 2 12 2C17.5228 2 22 6.47715 22 12Z" fill="#12131A"/>
<path fill-rule="evenodd" clip-rule="evenodd" d="M11 5C11 4.44772 11.4477 4 12 4C16.4183 4 20 7.58172 20 12C20 16.4183 16.4183 20 12 20C7.58172 20 4 16.4183 4 12C4 11.4477 4.44772 11 5 11C5.55228 11 6 11.4477 6 12C6 15.3137 8.68629 18 12 18C15.3137 18 18 15.3137 18 12C18 8.68629 15.3137 6 12 6C11.4477 6 11 5.55228 11 5ZM12 8C11.4477 8 11 8.44771 11 9C11 9.55229 11.4477 10 12 10C13.1046 10 14 10.8954 14 12C14 13.1046 13.1046 14 12 14C11.4477 14 11 14.4477 11 15C11 15.5523 11.4477 16 12 16C14.2091 16 16 14.2091 16 12C16 9.79086 14.2091 8 12 8Z" fill="#12131A"/>
</svg>
