<svg width="24" height="24" viewBox="0 0 24 24" fill="none" xmlns="http://www.w3.org/2000/svg">
<path opacity="0.25" d="M22 12C22 17.5228 17.5228 22 12 22C6.47715 22 2 17.5228 2 12C2 6.47715 6.47715 2 12 2C17.5228 2 22 6.47715 22 12Z" fill="#12131A"/>
<path fill-rule="evenodd" clip-rule="evenodd" d="M11 9C11 8.44771 11.4477 8 12 8C14.2091 8 16 9.79086 16 12C16 12.5523 15.5523 13 15 13C14.4477 13 14 12.5523 14 12C14 10.8954 13.1046 10 12 10C11.4477 10 11 9.55229 11 9ZM12 4C11.4477 4 11 4.44772 11 5C11 5.55228 11.4477 6 12 6C15.3137 6 18 8.68629 18 12C18 15.3137 15.3137 18 12 18C8.68629 18 6 15.3137 6 12C6 10.3323 6.67906 8.82511 7.77823 7.73659C8.17065 7.34797 8.17373 6.71482 7.78512 6.32239C7.3965 5.92997 6.76334 5.92689 6.37092 6.31551C4.90802 7.76422 4 9.777 4 12C4 16.4183 7.58172 20 12 20C16.4183 20 20 16.4183 20 12C20 7.58172 16.4183 4 12 4Z" fill="#12131A"/>
</svg>
