<svg width="24" height="24" viewBox="0 0 24 24" fill="none" xmlns="http://www.w3.org/2000/svg">
<path opacity="0.25" d="M1 5C1 3.89543 1.89543 3 3 3H21C22.1046 3 23 3.89543 23 5V19C23 20.1046 22.1046 21 21 21H3C1.89543 21 1 20.1046 1 19V5Z" fill="#12131A"/>
<path fill-rule="evenodd" clip-rule="evenodd" d="M4 15C3.44772 15 3 15.4477 3 16V18C3 18.5523 3.44772 19 4 19C4.55228 19 5 18.5523 5 18V16C5 15.4477 4.55228 15 4 15ZM7 14C7 13.4477 7.44772 13 8 13C8.55229 13 9 13.4477 9 14V18C9 18.5523 8.55229 19 8 19C7.44772 19 7 18.5523 7 18V14ZM12 7C11.4477 7 11 7.44771 11 8V18C11 18.5523 11.4477 19 12 19C12.5523 19 13 18.5523 13 18V8C13 7.44772 12.5523 7 12 7ZM15 10C15 9.44772 15.4477 9 16 9C16.5523 9 17 9.44771 17 10V18C17 18.5523 16.5523 19 16 19C15.4477 19 15 18.5523 15 18V10ZM20 5C19.4477 5 19 5.44772 19 6V18C19 18.5523 19.4477 19 20 19C20.5523 19 21 18.5523 21 18V6C21 5.44772 20.5523 5 20 5Z" fill="#12131A"/>
</svg>
