<svg width="24" height="24" viewBox="0 0 24 24" fill="none" xmlns="http://www.w3.org/2000/svg">
<path opacity="0.25" d="M1 5C1 3.89543 1.89543 3 3 3H21C22.1046 3 23 3.89543 23 5V19C23 20.1046 22.1046 21 21 21H3C1.89543 21 1 20.1046 1 19V5Z" fill="#12131A"/>
<path fill-rule="evenodd" clip-rule="evenodd" d="M20 15C20.5523 15 21 15.4477 21 16V18C21 18.5523 20.5523 19 20 19C19.4477 19 19 18.5523 19 18V16C19 15.4477 19.4477 15 20 15ZM17 14C17 13.4477 16.5523 13 16 13C15.4477 13 15 13.4477 15 14V18C15 18.5523 15.4477 19 16 19C16.5523 19 17 18.5523 17 18V14ZM12 7C12.5523 7 13 7.44771 13 8V18C13 18.5523 12.5523 19 12 19C11.4477 19 11 18.5523 11 18V8C11 7.44772 11.4477 7 12 7ZM9 10C9 9.44772 8.55229 9 8 9C7.44772 9 7 9.44771 7 10V18C7 18.5523 7.44772 19 8 19C8.55229 19 9 18.5523 9 18V10ZM4 5C4.55228 5 5 5.44772 5 6V18C5 18.5523 4.55228 19 4 19C3.44772 19 3 18.5523 3 18V6C3 5.44772 3.44772 5 4 5Z" fill="#12131A"/>
</svg>
