<svg width="24" height="24" viewBox="0 0 24 24" fill="none" xmlns="http://www.w3.org/2000/svg">
<path opacity="0.25" d="M1 5C1 3.89543 1.89543 3 3 3H21C22.1046 3 23 3.89543 23 5V19C23 20.1046 22.1046 21 21 21H3C1.89543 21 1 20.1046 1 19V5Z" fill="#12131A"/>
<path fill-rule="evenodd" clip-rule="evenodd" d="M8 15C7.44772 15 7 15.4477 7 16V18C7 18.5523 7.44772 19 8 19C8.55229 19 9 18.5523 9 18V16C9 15.4477 8.55229 15 8 15ZM15 14C15 13.4477 15.4477 13 16 13C16.5523 13 17 13.4477 17 14V18C17 18.5523 16.5523 19 16 19C15.4477 19 15 18.5523 15 18V14ZM12 7C11.4477 7 11 7.44771 11 8V18C11 18.5523 11.4477 19 12 19C12.5523 19 13 18.5523 13 18V8C13 7.44772 12.5523 7 12 7ZM19 10C19 9.44772 19.4477 9 20 9C20.5523 9 21 9.44771 21 10V18C21 18.5523 20.5523 19 20 19C19.4477 19 19 18.5523 19 18V10ZM4 5C3.44772 5 3 5.44772 3 6V18C3 18.5523 3.44772 19 4 19C4.55228 19 5 18.5523 5 18V6C5 5.44772 4.55228 5 4 5Z" fill="#12131A"/>
</svg>
