<svg width="24" height="24" viewBox="0 0 24 24" fill="none" xmlns="http://www.w3.org/2000/svg">
<path opacity="0.25" fill-rule="evenodd" clip-rule="evenodd" d="M22.6 5.20006C23.0418 5.53143 23.1314 6.15823 22.8 6.60006L16.8 14.6001C16.51 14.9867 15.985 15.1106 15.5528 14.8945L8.29925 11.2677L2.8 18.6001C2.46863 19.0419 1.84183 19.1314 1.4 18.8001C0.95817 18.4687 0.868627 17.8419 1.2 17.4001L7.2 9.40006C7.48997 9.01343 8.01495 8.8895 8.44721 9.10563L15.7007 12.7324L21.2 5.40006C21.5314 4.95823 22.1582 4.86869 22.6 5.20006Z" fill="#12131A"/>
<path d="M22 8C23.1046 8 24 7.10457 24 6C24 4.89543 23.1046 4 22 4C20.8954 4 20 4.89543 20 6C20 7.10457 20.8954 8 22 8Z" fill="#12131A"/>
<path d="M8 12C9.10457 12 10 11.1046 10 10C10 8.89543 9.10457 8 8 8C6.89543 8 6 8.89543 6 10C6 11.1046 6.89543 12 8 12Z" fill="#12131A"/>
<path d="M2 20C3.10457 20 4 19.1046 4 18C4 16.8954 3.10457 16 2 16C0.89543 16 0 16.8954 0 18C0 19.1046 0.89543 20 2 20Z" fill="#12131A"/>
<path d="M18 14C18 15.1046 17.1046 16 16 16C14.8954 16 14 15.1046 14 14C14 12.8954 14.8954 12 16 12C17.1046 12 18 12.8954 18 14Z" fill="#12131A"/>
</svg>
