<svg width="24" height="24" viewBox="0 0 24 24" fill="none" xmlns="http://www.w3.org/2000/svg">
<path opacity="0.25" fill-rule="evenodd" clip-rule="evenodd" d="M22.6 18.8001C23.0418 18.4687 23.1314 17.8419 22.8 17.4001L16.8 9.40006C16.51 9.01343 15.985 8.8895 15.5528 9.10563L8.29925 12.7324L2.8 5.40006C2.46863 4.95823 1.84183 4.86869 1.4 5.20006C0.95817 5.53143 0.868627 6.15823 1.2 6.60006L7.2 14.6001C7.48997 14.9867 8.01495 15.1106 8.44721 14.8945L15.7007 11.2677L21.2 18.6001C21.5314 19.0419 22.1582 19.1314 22.6 18.8001Z" fill="#12131A"/>
<path d="M22 16C23.1046 16 24 16.8954 24 18C24 19.1046 23.1046 20 22 20C20.8954 20 20 19.1046 20 18C20 16.8954 20.8954 16 22 16Z" fill="#12131A"/>
<path d="M8 12C9.10457 12 10 12.8954 10 14C10 15.1046 9.10457 16 8 16C6.89543 16 6 15.1046 6 14C6 12.8954 6.89543 12 8 12Z" fill="#12131A"/>
<path d="M2 4C3.10457 4 4 4.89543 4 6C4 7.10457 3.10457 8 2 8C0.89543 8 0 7.10457 0 6C0 4.89543 0.89543 4 2 4Z" fill="#12131A"/>
<path d="M18 10C18 8.89543 17.1046 8 16 8C14.8954 8 14 8.89543 14 10C14 11.1046 14.8954 12 16 12C17.1046 12 18 11.1046 18 10Z" fill="#12131A"/>
</svg>
