<svg width="24" height="24" viewBox="0 0 24 24" fill="none" xmlns="http://www.w3.org/2000/svg">
<g clip-path="url(#clip0)">
<path fill-rule="evenodd" clip-rule="evenodd" d="M10.002 3.05546C10.5509 2.99422 11 3.44768 11 3.99997L11 11.5858C11 11.851 10.8946 12.1053 10.7071 12.2929L5.34315 17.6568C4.95263 18.0473 4.31443 18.0504 3.96962 17.619C3.07318 16.4974 2.45494 15.1735 2.17294 13.7558C1.82567 12.01 2.0039 10.2004 2.68509 8.55582C3.36628 6.91128 4.51983 5.50567 5.99987 4.51674C7.20174 3.71367 8.57508 3.21467 10.002 3.05546Z" fill="#12131A"/>
<path opacity="0.25" fill-rule="evenodd" clip-rule="evenodd" d="M7.38105 20.0304C6.94963 19.6856 6.95273 19.0474 7.34325 18.6569L12.7072 13.2929C12.8947 13.1054 13.0001 12.851 13.0001 12.5858L13.0001 5C13.0001 4.44771 13.4492 3.99426 13.9981 4.0555C15.1307 4.18187 16.2322 4.52261 17.2427 5.06271C18.548 5.7604 19.6611 6.76924 20.4833 7.99987C21.3056 9.23049 21.8117 10.6449 21.9568 12.1178C22.1018 13.5908 21.8814 15.0768 21.315 16.4441C20.7486 17.8115 19.8537 19.0182 18.7096 19.9571C17.5655 20.896 16.2075 21.5383 14.7559 21.8271C13.3043 22.1158 11.8039 22.0421 10.3875 21.6125C9.29113 21.2799 8.27132 20.7419 7.38105 20.0304Z" fill="#12131A"/>
</g>
<defs>
<clipPath id="clip0">
<rect width="24" height="24" fill="white"/>
</clipPath>
</defs>
</svg>
