<svg width="24" height="24" viewBox="0 0 24 24" fill="none" xmlns="http://www.w3.org/2000/svg">
<path fill-rule="evenodd" clip-rule="evenodd" d="M10.002 4.05564C10.5509 3.9944 11 4.44785 11 5.00014L11 21.0001C11 21.5524 10.5509 22.0059 10.0021 21.9446C9.16275 21.851 8.33913 21.6395 7.55585 21.3151C6.46392 20.8628 5.47177 20.1998 4.63604 19.3641C3.80031 18.5284 3.13738 17.5362 2.68508 16.4443C2.23279 15.3524 2 14.182 2 13.0001C2 11.8182 2.23279 10.6479 2.68508 9.55599C3.13738 8.46406 3.80031 7.4719 4.63604 6.63618C5.47177 5.80045 6.46392 5.13751 7.55585 4.68522C8.33913 4.36077 9.16275 4.14928 10.002 4.05564Z" fill="#12131A"/>
<path opacity="0.25" fill-rule="evenodd" clip-rule="evenodd" d="M13.9979 19.9444C13.4491 20.0056 13 19.5521 13 18.9999L13 2.99986C13 2.44758 13.4491 1.99412 13.9979 2.05536C14.8372 2.149 15.6609 2.3605 16.4442 2.68495C17.5361 3.13724 18.5282 3.80017 19.364 4.6359C20.1997 5.47163 20.8626 6.46378 21.3149 7.55571C21.7672 8.64764 22 9.81796 22 10.9999C22 12.1818 21.7672 13.3521 21.3149 14.444C20.8626 15.5359 20.1997 16.5281 19.364 17.3638C18.5282 18.1995 17.5361 18.8625 16.4442 19.3148C15.6609 19.6392 14.8372 19.8507 13.9979 19.9444Z" fill="#12131A"/>
</svg>
