<svg width="24" height="24" viewBox="0 0 24 24" fill="none" xmlns="http://www.w3.org/2000/svg">
<path opacity="0.25" d="M22 13.8857C22 13.1875 21.3026 12.7042 20.6489 12.9493L15.8532 14.7477C15.3598 14.9327 14.8264 14.9845 14.3067 14.8979L9.36455 14.0742C9.1913 14.0453 9.01349 14.0626 8.84903 14.1243L2.64888 16.4493C2.25857 16.5957 2 16.9688 2 17.3857V20C2 21.1046 2.89543 22 4 22H20C21.1046 22 22 21.1046 22 20V13.8857Z" fill="#12131A"/>
<path d="M22 4.13517C22 2.4395 20.0223 1.51318 18.7196 2.59873L15.0644 5.64479C14.8407 5.83117 14.5469 5.91083 14.2598 5.86296L9.94453 5.14376C9.19272 5.01846 8.42141 5.18401 7.78724 5.60679L3.3359 8.57435C2.5013 9.13074 2 10.0674 2 11.0705V13.1138C2 13.812 2.69737 14.2953 3.35112 14.0501L8.14678 12.2518C8.64017 12.0667 9.17358 12.0149 9.69335 12.1016L14.6355 12.9253C14.8087 12.9541 14.9865 12.9369 15.151 12.8752L21.3511 10.5501C21.7414 10.4038 22 10.0307 22 9.61381V4.13517Z" fill="#12131A"/>
</svg>
