<svg width="24" height="24" viewBox="0 0 24 24" fill="none" xmlns="http://www.w3.org/2000/svg">
<path opacity="0.25" d="M2 4C2 2.89543 2.89543 2 4 2H20C21.1046 2 22 2.89543 22 4V20C22 21.1046 21.1046 22 20 22H4C2.89543 22 2 21.1046 2 20V4Z" fill="#12131A"/>
<path fill-rule="evenodd" clip-rule="evenodd" d="M5 17C4.44772 17 4 17.4477 4 18C4 18.5523 4.44772 19 5 19H7C7.55228 19 8 18.5523 8 18C8 17.4477 7.55228 17 7 17H5ZM4 14C4 13.4477 4.44772 13 5 13H7C7.55228 13 8 13.4477 8 14C8 14.5523 7.55228 15 7 15H5C4.44772 15 4 14.5523 4 14ZM11 17C10.4477 17 10 17.4477 10 18C10 18.5523 10.4477 19 11 19H13C13.5523 19 14 18.5523 14 18C14 17.4477 13.5523 17 13 17H11ZM10 14C10 13.4477 10.4477 13 11 13H13C13.5523 13 14 13.4477 14 14C14 14.5523 13.5523 15 13 15H11C10.4477 15 10 14.5523 10 14ZM11 9C10.4477 9 10 9.44771 10 10C10 10.5523 10.4477 11 11 11H13C13.5523 11 14 10.5523 14 10C14 9.44771 13.5523 9 13 9H11ZM16 18C16 17.4477 16.4477 17 17 17H19C19.5523 17 20 17.4477 20 18C20 18.5523 19.5523 19 19 19H17C16.4477 19 16 18.5523 16 18ZM17 13C16.4477 13 16 13.4477 16 14C16 14.5523 16.4477 15 17 15H19C19.5523 15 20 14.5523 20 14C20 13.4477 19.5523 13 19 13H17ZM16 10C16 9.44771 16.4477 9 17 9H19C19.5523 9 20 9.44771 20 10C20 10.5523 19.5523 11 19 11H17C16.4477 11 16 10.5523 16 10ZM17 5C16.4477 5 16 5.44772 16 6C16 6.55228 16.4477 7 17 7H19C19.5523 7 20 6.55228 20 6C20 5.44772 19.5523 5 19 5H17Z" fill="#12131A"/>
</svg>
