<svg width="24" height="24" viewBox="0 0 24 24" fill="none" xmlns="http://www.w3.org/2000/svg">
<path opacity="0.25" d="M2 4C2 2.89543 2.89543 2 4 2H20C21.1046 2 22 2.89543 22 4V20C22 21.1046 21.1046 22 20 22H4C2.89543 22 2 21.1046 2 20V4Z" fill="#12131A"/>
<path fill-rule="evenodd" clip-rule="evenodd" d="M19 17C19.5523 17 20 17.4477 20 18C20 18.5523 19.5523 19 19 19H17C16.4477 19 16 18.5523 16 18C16 17.4477 16.4477 17 17 17H19ZM20 14C20 13.4477 19.5523 13 19 13H17C16.4477 13 16 13.4477 16 14C16 14.5523 16.4477 15 17 15H19C19.5523 15 20 14.5523 20 14ZM13 17C13.5523 17 14 17.4477 14 18C14 18.5523 13.5523 19 13 19H11C10.4477 19 10 18.5523 10 18C10 17.4477 10.4477 17 11 17H13ZM14 14C14 13.4477 13.5523 13 13 13H11C10.4477 13 10 13.4477 10 14C10 14.5523 10.4477 15 11 15H13C13.5523 15 14 14.5523 14 14ZM13 9C13.5523 9 14 9.44771 14 10C14 10.5523 13.5523 11 13 11H11C10.4477 11 10 10.5523 10 10C10 9.44771 10.4477 9 11 9H13ZM8 18C8 17.4477 7.55228 17 7 17H5C4.44772 17 4 17.4477 4 18C4 18.5523 4.44772 19 5 19H7C7.55228 19 8 18.5523 8 18ZM7 13C7.55228 13 8 13.4477 8 14C8 14.5523 7.55228 15 7 15H5C4.44772 15 4 14.5523 4 14C4 13.4477 4.44772 13 5 13H7ZM8 10C8 9.44771 7.55228 9 7 9H5C4.44772 9 4 9.44771 4 10C4 10.5523 4.44772 11 5 11H7C7.55228 11 8 10.5523 8 10ZM7 5C7.55228 5 8 5.44772 8 6C8 6.55228 7.55228 7 7 7H5C4.44772 7 4 6.55228 4 6C4 5.44772 4.44772 5 5 5H7Z" fill="#12131A"/>
</svg>
