<svg width="24" height="24" viewBox="0 0 24 24" fill="none" xmlns="http://www.w3.org/2000/svg">
<path opacity="0.25" fill-rule="evenodd" clip-rule="evenodd" d="M12 22C17.5228 22 22 17.5228 22 12C22 6.47715 17.5228 2 12 2C6.47715 2 2 6.47715 2 12C2 17.5228 6.47715 22 12 22Z" fill="#12131A"/>
<path d="M6.00001 20.0007C8.4289 18.1763 10 15.2716 10 12C10 8.72836 8.4289 5.82368 6.00001 3.99927C5.45412 4.4093 4.95156 4.8739 4.50043 5.38496C6.61296 6.82498 8.00001 9.25051 8.00001 12C8.00001 14.7495 6.61296 17.175 4.50043 18.615C4.95156 19.1261 5.45412 19.5907 6.00001 20.0007Z" fill="#12131A"/>
<path d="M18 3.99927C15.5711 5.82368 14 8.72837 14 12C14 15.2716 15.5711 18.1763 18 20.0007C18.5459 19.5907 19.0485 19.1261 19.4996 18.615C17.3871 17.175 16 14.7495 16 12C16 9.25051 17.3871 6.82498 19.4996 5.38497C19.0485 4.8739 18.5459 4.4093 18 3.99927Z" fill="#12131A"/>
</svg>
