<svg width="24" height="24" viewBox="0 0 24 24" fill="none" xmlns="http://www.w3.org/2000/svg">
<path opacity="0.25" d="M2 4C2 2.89543 2.89543 2 4 2H20C21.1046 2 22 2.89543 22 4V14C22 15.1046 21.1046 16 20 16H4C2.89543 16 2 15.1046 2 14V4Z" fill="#12131A"/>
<path fill-rule="evenodd" clip-rule="evenodd" d="M7 10C6.44772 10 6 10.4477 6 11C6 11.5523 6.44771 12 7 12V21C7 21.5523 7.44772 22 8 22C8.55229 22 9 21.5523 9 21V20H11V21C11 21.5523 11.4477 22 12 22C12.5523 22 13 21.5523 13 21V20H15V21C15 21.5523 15.4477 22 16 22C16.5523 22 17 21.5523 17 21V12C17.5523 12 18 11.5523 18 11C18 10.4477 17.5523 10 17 10H7ZM11 12H9V14H11V12ZM13 14V12H15V14H13ZM11 16H9V18H11V16ZM13 18V16H15V18H13Z" fill="#12131A"/>
</svg>
