<svg width="24" height="24" viewBox="0 0 24 24" fill="none" xmlns="http://www.w3.org/2000/svg">
<path opacity="0.25" d="M5 5C5 3.89543 5.89543 3 7 3H17C18.1046 3 19 3.89543 19 5V10C19 13.866 15.866 17 12 17C8.13401 17 5 13.866 5 10V5Z" fill="#12131A"/>
<path d="M4 5C2.34315 5 1 6.34315 1 8V9C1 11.2091 2.79086 13 5 13H6C6.55228 13 7 12.5523 7 12C7 11.4477 6.55228 11 6 11H5C3.89543 11 3 10.1046 3 9V8C3 7.44772 3.44772 7 4 7H6C6.55228 7 7 6.55228 7 6C7 5.44772 6.55228 5 6 5H4Z" fill="#12131A"/>
<path d="M20 5C21.6569 5 23 6.34315 23 8V9C23 11.2091 21.2091 13 19 13H18C17.4477 13 17 12.5523 17 12C17 11.4477 17.4477 11 18 11H19C20.1046 11 21 10.1046 21 9V8C21 7.44772 20.5523 7 20 7H18C17.4477 7 17 6.55228 17 6C17 5.44772 17.4477 5 18 5H20Z" fill="#12131A"/>
<path d="M12 15C11.4477 15 11 15.4477 11 16V19H9C8.44771 19 8 19.4477 8 20C8 20.5523 8.44771 21 9 21H15C15.5523 21 16 20.5523 16 20C16 19.4477 15.5523 19 15 19H13V16C13 15.4477 12.5523 15 12 15Z" fill="#12131A"/>
</svg>
