<svg width="24" height="24" viewBox="0 0 24 24" fill="none" xmlns="http://www.w3.org/2000/svg">
<path opacity="0.25" fill-rule="evenodd" clip-rule="evenodd" d="M21.7071 2.29289C22.0976 2.68342 22.0976 3.31658 21.7071 3.70711L9.70711 15.7071C9.31658 16.0976 8.68342 16.0976 8.29289 15.7071C7.90237 15.3166 7.90237 14.6834 8.29289 14.2929L20.2929 2.29289C20.6834 1.90237 21.3166 1.90237 21.7071 2.29289Z" fill="#12131A"/>
<path d="M17 9.99999L19 7.99998C19.8284 7.17156 19.8284 5.82841 19 4.99998C18.1716 4.17156 16.8284 4.17155 16 4.99998L14 6.99998C13.1716 7.82841 13.1716 9.17156 14 9.99998C14.8284 10.8284 16.1716 10.8284 17 9.99999Z" fill="#12131A"/>
<path d="M5.82843 13H10C10.5523 13 11 13.4477 11 14V18.1716C11 18.702 10.7893 19.2107 10.4142 19.5858L9.41422 20.5858C8.63317 21.3668 7.36684 21.3668 6.58579 20.5858L3.41422 17.4142C2.63317 16.6332 2.63317 15.3668 3.41422 14.5858L4.41422 13.5858C4.78929 13.2107 5.298 13 5.82843 13Z" fill="#12131A"/>
</svg>
