<svg width="24" height="24" viewBox="0 0 24 24" fill="none" xmlns="http://www.w3.org/2000/svg">
<path opacity="0.25" d="M4 1C4 0.447716 4.44772 0 5 0C5.55228 0 6 0.447715 6 1V23C6 23.5523 5.55228 24 5 24C4.44772 24 4 23.5523 4 23V1Z" fill="#12131A"/>
<path opacity="0.25" d="M12 5C12 4.44772 12.4477 4 13 4H19.382C20.1253 4 20.6088 4.78231 20.2764 5.44721L18.2236 9.55279C18.0828 9.83431 18.0828 10.1657 18.2236 10.4472L20.2764 14.5528C20.6088 15.2177 20.1253 16 19.382 16H14C12.8954 16 12 15.1046 12 14V5Z" fill="#12131A"/>
<path d="M6 2H12C13.1046 2 14 2.89543 14 4V13C14 13.5523 13.5523 14 13 14H6V2Z" fill="#12131A"/>
</svg>
