<svg width="24" height="24" viewBox="0 0 24 24" fill="none" xmlns="http://www.w3.org/2000/svg">
<path opacity="0.25" d="M13.8292 20.3417L21.5675 4.86496C21.8258 4.34844 21.7246 3.72462 21.3162 3.31627C20.6687 2.66874 19.5771 2.84589 19.1675 3.66496L12.8292 16.3417C12.321 17.358 11.2822 18 10.1459 18H4.23607C2.74931 18 1.78231 19.5647 2.44722 20.8945C2.786 21.572 3.47853 22 4.23607 22H11.1459C12.2822 22 13.321 21.358 13.8292 20.3417Z" fill="#12131A"/>
<path d="M13.7527 14.4945L16.1527 15.6945L17.0472 13.9057L14.6472 12.7057L13.7527 14.4945Z" fill="#12131A"/>
<path d="M2 11C2 10.4477 2.44772 10 3 10H5C5.55228 10 6 10.4477 6 11C6 11.5523 5.55228 12 5 12H3C2.44772 12 2 11.5523 2 11Z" fill="#12131A"/>
</svg>
