<svg width="24" height="24" viewBox="0 0 24 24" fill="none" xmlns="http://www.w3.org/2000/svg">
<path d="M1 6C1 4.89543 1.89543 4 3 4H5C6.10457 4 7 4.89543 7 6V8C7 9.10457 6.10457 10 5 10H3C1.89543 10 1 9.10457 1 8V6Z" fill="#12131A"/>
<path d="M1 16C1 14.8954 1.89543 14 3 14H5C6.10457 14 7 14.8954 7 16V18C7 19.1046 6.10457 20 5 20H3C1.89543 20 1 19.1046 1 18V16Z" fill="#12131A"/>
<path d="M19 9C17.8954 9 17 9.89543 17 11V13C17 14.1046 17.8954 15 19 15H21C22.1046 15 23 14.1046 23 13V11C23 9.89543 22.1046 9 21 9H19Z" fill="#12131A"/>
<path opacity="0.25" d="M7 8H10C10.5523 8 11 8.44772 11 9V15C11 15.5523 10.5523 16 10 16H7V18H10C11.6569 18 13 16.6569 13 15V13H17V11H13V9C13 7.34315 11.6569 6 10 6H7V8Z" fill="#12131A"/>
</svg>
