<svg width="24" height="24" viewBox="0 0 24 24" fill="none" xmlns="http://www.w3.org/2000/svg">
<path opacity="0.25" d="M9 3C9 2.44772 8.55228 2 8 2H6C4.89543 2 4 2.89549 4 4.00006V5C4 7.75002 3.39499 9.29002 2.85049 10.1191C2.43465 10.7523 2 11.4785 2 12.2361V20C2 21.1046 2.89543 22 4 22H20C21.1046 22 22 21.1046 22 20V12.2361C22 11.4785 21.5654 10.7523 21.1495 10.1191C20.605 9.29002 20 7.75002 20 5V4.00006C20 2.89549 19.1046 2 18 2H16C15.4477 2 15 2.44772 15 3C15 4.65685 13.6569 6 12 6C10.3431 6 9 4.65685 9 3Z" fill="#12131A"/>
<path d="M12 10C12.5523 10 13 10.4477 13 11V16C13.5523 16 14 16.4477 14 17C14 17.5523 13.5523 18 13 18H11C10.4477 18 10 17.5523 10 17C10 16.4477 10.4477 16 11 16V12C10.4477 12 10 11.5523 10 11C10 10.4477 10.4477 10 11 10H12Z" fill="#12131A"/>
</svg>
