<svg width="24" height="24" viewBox="0 0 24 24" fill="none" xmlns="http://www.w3.org/2000/svg">
<path opacity="0.25" d="M14 15.748C17.4505 14.8599 20 11.7277 20 8C20 3.58172 16.4183 0 12 0C7.58172 0 4 3.58172 4 8C4 11.7277 6.54955 14.8599 10 15.748V22C10 23.1046 10.8954 24 12 24C13.1046 24 14 23.1046 14 22V15.748Z" fill="#12131A"/>
<path d="M6.70835 14H17.2916C17.9396 13.4281 18.4943 12.7528 18.9297 12H5.07025C5.50573 12.7528 6.06036 13.4281 6.70835 14Z" fill="#12131A"/>
<path d="M19 3C19 4.10457 18.1046 5 17 5C15.8954 5 15 4.10457 15 3C15 1.89543 15.8954 1 17 1C18.1046 1 19 1.89543 19 3Z" fill="#12131A"/>
</svg>
